STARTFONT 2.1
FONT -HP-Sammul-Bold-R-Normal--32-320-75-75-C-320-KSC5601.1987-1
SIZE 32 75 75
FONTBOUNDINGBOX 32 32 0 -2

STARTPROPERTIES 23
FONTNAME_REGISTRY ""
FOUNDRY "HP"
FAMILY_NAME "Sammul"
WEIGHT_NAME "Bold"
SLANT "R"
SETWIDTH_NAME "Normal"
ADD_STYLE_NAME ""
PIXEL_SIZE 32
POINT_SIZE 320
RESOLUTION_X 75
RESOLUTION_Y 75
SPACING "C"
AVERAGE_WIDTH 320
CHARSET_REGISTRY "KSC5601.1987"
CHARSET_ENCODING "1"
COPYRIGHT "Copyright (c) 1994 Samsung Hewlett-Packard Company."
WEIGHT 32767
X_HEIGHT 30
QUAD_WIDTH 32
_HP_ASXVERSION "@(#) ASX 3.00 $Revision: 13.9 $ samB32h"
DEFAULT_CHAR 41702
FONT_DESCENT 2
FONT_ASCENT 30
ENDPROPERTIES

CHARS 8225

STARTCHAR kor_A1A1
ENCODING 41377
SWIDTH 1024 0
DWIDTH 32 0
BBX 32 32 0 -2
BITMAP
00000000
00000000
00000000
00000000
00000000
00000000
00000000
00000000
00000000
00000000
00000000
00000000
00000000
00000000
00000000
00000000
00000000
00000000
00000000
00000000
00000000
00000000
00000000
00000000
00000000
00000000
00000000
00000000
00000000
00000000
00000000
00000000
ENDCHAR

STARTCHAR kor_A1A2
ENCODING 41378
SWIDTH 1024 0
DWIDTH 32 0
BBX 32 32 0 -2
BITMAP
00000000
00000000
00000000
00000380
000003E0
000001F8
000000FC
0000007E
0000007E
0000003E
0000003E
0000001E
00000000
00000000
00000000
00000000
00000000
00000000
00000000
00000000
00000000
00000000
00000000
00000000
00000000
00000000
00000000
00000000
00000000
00000000
00000000
00000000
ENDCHAR

STARTCHAR kor_A1A3
ENCODING 41379
SWIDTH 1024 0
DWIDTH 32 0
BBX 32 32 0 -2
BITMAP
00000000
00000000
00000000
00000000
00000000
00000000
00000000
00000000
00000000
00000000
00000000
0003E000
0007F000
000E3800
000C1800
000C1800
000C1800
000E3800
0007F000
0003E000
00000000
00000000
00000000
00000000
00000000
00000000
00000000
00000000
00000000
00000000
00000000
00000000
ENDCHAR

STARTCHAR kor_A1A4
ENCODING 41380
SWIDTH 1024 0
DWIDTH 32 0
BBX 32 32 0 -2
BITMAP
00000000
0003E000
0007F000
000FF800
000FF800
000FF800
000FF800
000FF800
0007F000
0003E000
00000000
00000000
00000000
00000000
00000000
00000000
00000000
00000000
00000000
00000000
00000000
00000000
00000000
00000000
00000000
00000000
00000000
00000000
00000000
00000000
00000000
00000000
ENDCHAR

STARTCHAR kor_A1A5
ENCODING 41381
SWIDTH 1024 0
DWIDTH 32 0
BBX 32 32 0 -2
BITMAP
00000000
00000000
00000000
00000000
00000000
00000000
00000000
00000000
00000000
00000000
00000000
00000000
00000000
01F001F0
03F803F8
03F803F8
03F803F8
03F803F8
03F803F8
01F001F0
00000000
00000000
00000000
00000000
00000000
00000000
00000000
00000000
00000000
00000000
00000000
00000000
ENDCHAR

STARTCHAR kor_A1A6
ENCODING 41382
SWIDTH 1024 0
DWIDTH 32 0
BBX 32 32 0 -2
BITMAP
00000000
00000000
00000000
00000000
00000000
00000000
00000000
00000000
00000000
00000000
00000000
00000000
00000000
1F03E07C
3F87F0FE
3F87F0FE
3F87F0FE
3F87F0FE
3F87F0FE
1F03E07C
00000000
00000000
00000000
00000000
00000000
00000000
00000000
00000000
00000000
00000000
00000000
00000000
ENDCHAR

STARTCHAR kor_A1A7
ENCODING 41383
SWIDTH 1024 0
DWIDTH 32 0
BBX 32 32 0 -2
BITMAP
00000000
00000000
00000000
01F001F0
03F803F8
03F803F8
03F803F8
03F803F8
03F803F8
01F001F0
00000000
00000000
00000000
00000000
00000000
00000000
00000000
00000000
00000000
00000000
00000000
00000000
00000000
00000000
00000000
00000000
00000000
00000000
00000000
00000000
00000000
00000000
ENDCHAR

STARTCHAR kor_A1A8
ENCODING 41384
SWIDTH 1024 0
DWIDTH 32 0
BBX 32 32 0 -2
BITMAP
00000000
00000000
00000000
00000000
00000000
00000000
00000000
00000000
00000000
000E0E00
000E0E00
001E1E00
001E1E00
001C1C00
003C3C00
00383800
00383800
00707000
00707000
00606000
00E0E000
00C0C000
00000000
00000000
00000000
00000000
00000000
00000000
00000000
00000000
00000000
00000000
ENDCHAR

STARTCHAR kor_A1A9
ENCODING 41385
SWIDTH 1024 0
DWIDTH 32 0
BBX 32 32 0 -2
BITMAP
00000000
00000000
00000000
00000000
00000000
00000000
00000000
00000000
00000000
00000000
00000000
00000000
00000000
00000000
00000000
000FF800
000FF800
000FF800
00000000
00000000
00000000
00000000
00000000
00000000
00000000
00000000
00000000
00000000
00000000
00000000
00000000
00000000
ENDCHAR

STARTCHAR kor_A1AA
ENCODING 41386
SWIDTH 1024 0
DWIDTH 32 0
BBX 32 32 0 -2
BITMAP
00000000
00000000
00000000
00000000
00000000
00000000
00000000
00000000
00000000
00000000
00000000
00000000
00000000
00000000
00000000
03FFFF00
03FFFF00
03FFFF00
00000000
00000000
00000000
00000000
00000000
00000000
00000000
00000000
00000000
00000000
00000000
00000000
00000000
00000000
ENDCHAR

STARTCHAR kor_A1AB
ENCODING 41387
SWIDTH 1024 0
DWIDTH 32 0
BBX 32 32 0 -2
BITMAP
00000000
00000000
00000000
000E3800
000E3800
000E3800
000E3800
000E3800
000E3800
000E3800
000E3800
000E3800
000E3800
000E3800
000E3800
000E3800
000E3800
000E3800
000E3800
000E3800
000E3800
000E3800
000E3800
000E3800
000E3800
000E3800
000E3800
000E3800
00000000
00000000
00000000
00000000
ENDCHAR

STARTCHAR kor_A1AC
ENCODING 41388
SWIDTH 1024 0
DWIDTH 32 0
BBX 32 32 0 -2
BITMAP
00000000
00000000
0C000000
1E000000
1F000000
0F800000
07C00000
03E00000
01F00000
00F80000
007C0000
003E0000
001F0000
000F8000
0007C000
0003E000
0001F000
0000F800
00007C00
00003E00
00001F00
00000F80
000007C0
000003E0
000001F0
000000F8
0000007C
0000003C
00000018
00000000
00000000
00000000
ENDCHAR

STARTCHAR kor_A1AD
ENCODING 41389
SWIDTH 1024 0
DWIDTH 32 0
BBX 32 32 0 -2
BITMAP
00000000
00000000
00000000
00000000
00000000
00000000
00000000
00000000
00000000
00000000
00000000
01F8000C
07FE000C
0FFF001C
1F9FC03C
1E07E078
3C03F9F8
3800FFF0
30007FE0
30001F80
00000000
00000000
00000000
00000000
00000000
00000000
00000000
00000000
00000000
00000000
00000000
00000000
ENDCHAR

STARTCHAR kor_A1AE
ENCODING 41390
SWIDTH 1024 0
DWIDTH 32 0
BBX 32 32 0 -2
BITMAP
00000000
00000000
00000007
0000000F
0000001E
0000001C
00000038
00000038
00000036
0000003F
0000003F
0000003F
0000001E
00000000
00000000
00000000
00000000
00000000
00000000
00000000
00000000
00000000
00000000
00000000
00000000
00000000
00000000
00000000
00000000
00000000
00000000
00000000
ENDCHAR

STARTCHAR kor_A1AF
ENCODING 41391
SWIDTH 1024 0
DWIDTH 32 0
BBX 32 32 0 -2
BITMAP
00000000
00000000
00000000
1E000000
3F000000
3F000000
3F000000
1F000000
03000000
07000000
0E000000
1E000000
3C000000
38000000
00000000
00000000
00000000
00000000
00000000
00000000
00000000
00000000
00000000
00000000
00000000
00000000
00000000
00000000
00000000
00000000
00000000
00000000
ENDCHAR

STARTCHAR kor_A1B0
ENCODING 41392
SWIDTH 1024 0
DWIDTH 32 0
BBX 32 32 0 -2
BITMAP
00000000
00000000
00000000
00000707
00000F0F
00001E1E
00001C1C
00003838
00003E3E
00003E3E
00003E3E
00003E3E
00003E3E
00000000
00000000
00000000
00000000
00000000
00000000
00000000
00000000
00000000
00000000
00000000
00000000
00000000
00000000
00000000
00000000
00000000
00000000
00000000
ENDCHAR

STARTCHAR kor_A1B1
ENCODING 41393
SWIDTH 1024 0
DWIDTH 32 0
BBX 32 32 0 -2
BITMAP
00000000
00000000
00000000
3E3E0000
3E3E0000
3E3E0000
3E3E0000
3E3E0000
0E0E0000
1C1C0000
3C3C0000
78780000
70700000
00000000
00000000
00000000
00000000
00000000
00000000
00000000
00000000
00000000
00000000
00000000
00000000
00000000
00000000
00000000
00000000
00000000
00000000
00000000
ENDCHAR

STARTCHAR kor_A1B2
ENCODING 41394
SWIDTH 1024 0
DWIDTH 32 0
BBX 32 32 0 -2
BITMAP
00000000
0000000E
0000003E
000000FE
000003F8
000003E0
00000380
00000380
00000380
00000380
00000380
00000380
00000380
00000380
00000380
00000380
00000380
00000380
00000380
00000380
00000380
00000380
00000380
00000380
00000380
000003E0
000003F8
000000FE
0000003E
0000000E
00000000
00000000
ENDCHAR

STARTCHAR kor_A1B3
ENCODING 41395
SWIDTH 1024 0
DWIDTH 32 0
BBX 32 32 0 -2
BITMAP
00000000
38000000
3E000000
3F800000
0FE00000
03E00000
00E00000
00E00000
00E00000
00E00000
00E00000
00E00000
00E00000
00E00000
00E00000
00E00000
00E00000
00E00000
00E00000
00E00000
00E00000
00E00000
00E00000
00E00000
00E00000
03E00000
0FE00000
3F800000
3E000000
38000000
00000000
00000000
ENDCHAR

STARTCHAR kor_A1B4
ENCODING 41396
SWIDTH 1024 0
DWIDTH 32 0
BBX 32 32 0 -2
BITMAP
00000000
0000000E
0000000E
0000001C
0000003C
00000038
00000070
000000F0
000000E0
000001C0
000003C0
00000380
00000700
00000F00
00000E00
00000C00
00000E00
00000F00
00000700
00000380
000003C0
000001C0
000000E0
000000F0
00000070
00000038
0000003C
0000001C
0000000E
0000000E
00000000
00000000
ENDCHAR

STARTCHAR kor_A1B5
ENCODING 41397
SWIDTH 1024 0
DWIDTH 32 0
BBX 32 32 0 -2
BITMAP
00000000
38000000
38000000
1C000000
1E000000
0E000000
07000000
07800000
03800000
01C00000
01E00000
00E00000
00700000
00780000
00380000
00180000
00380000
00780000
00700000
00E00000
01E00000
01C00000
03800000
07800000
07000000
0E000000
1E000000
1C000000
38000000
38000000
00000000
00000000
ENDCHAR

STARTCHAR kor_A1B6
ENCODING 41398
SWIDTH 1024 0
DWIDTH 32 0
BBX 32 32 0 -2
BITMAP
00000000
000000C6
000000C6
000001CE
0000018C
0000039C
00000318
00000738
00000630
00000E70
00000C60
00001CE0
000018C0
000039C0
00003180
00003180
00003180
000039C0
000018C0
00001CE0
00000C60
00000E70
00000630
00000738
00000318
0000039C
0000018C
000001CE
000000C6
000000C6
00000000
00000000
ENDCHAR

STARTCHAR kor_A1B7
ENCODING 41399
SWIDTH 1024 0
DWIDTH 32 0
BBX 32 32 0 -2
BITMAP
00000000
0C600000
0C600000
0E700000
06300000
07380000
03180000
039C0000
018C0000
01CE0000
00C60000
00E70000
00630000
00738000
00318000
00318000
00318000
00738000
00630000
00E70000
00C60000
01CE0000
018C0000
039C0000
03180000
07380000
06300000
0E700000
0C600000
0C600000
00000000
00000000
ENDCHAR

STARTCHAR kor_A1B8
ENCODING 41400
SWIDTH 1024 0
DWIDTH 32 0
BBX 32 32 0 -2
BITMAP
00000000
000003FE
000003FE
000003FE
00000380
00000380
00000380
00000380
00000380
00000380
00000380
00000380
00000380
00000380
00000380
00000380
00000380
00000380
00000380
00000380
00000380
00000380
00000380
00000380
00000380
00000380
00000380
00000380
00000000
00000000
00000000
00000000
ENDCHAR

STARTCHAR kor_A1B9
ENCODING 41401
SWIDTH 1024 0
DWIDTH 32 0
BBX 32 32 0 -2
BITMAP
00000000
00000000
00700000
00700000
00700000
00700000
00700000
00700000
00700000
00700000
00700000
00700000
00700000
00700000
00700000
00700000
00700000
00700000
00700000
00700000
00700000
00700000
00700000
00700000
00700000
00700000
00700000
3FF00000
3FF00000
3FF00000
00000000
00000000
ENDCHAR

STARTCHAR kor_A1BA
ENCODING 41402
SWIDTH 1024 0
DWIDTH 32 0
BBX 32 32 0 -2
BITMAP
00000000
00001FFE
00001FFE
00001806
00001806
000019FE
000019FE
00001980
00001980
00001980
00001980
00001980
00001980
00001980
00001980
00001980
00001980
00001F80
00001F80
00000000
00000000
00000000
00000000
00000000
00000000
00000000
00000000
00000000
00000000
00000000
00000000
00000000
ENDCHAR

STARTCHAR kor_A1BB
ENCODING 41403
SWIDTH 1024 0
DWIDTH 32 0
BBX 32 32 0 -2
BITMAP
00000000
00000000
00000000
00000000
00000000
00000000
00000000
00000000
00000000
00000000
00000000
00000000
00FC0000
00FC0000
00CC0000
00CC0000
00CC0000
00CC0000
00CC0000
00CC0000
00CC0000
00CC0000
00CC0000
00CC0000
3FCC0000
3FCC0000
300C0000
300C0000
3FFC0000
3FFC0000
00000000
00000000
ENDCHAR

STARTCHAR kor_A1BC
ENCODING 41404
SWIDTH 1024 0
DWIDTH 32 0
BBX 32 32 0 -2
BITMAP
00000000
000003FE
000003FE
000003FC
000003F8
000003F0
000003F0
000003E0
000003E0
000003C0
000003C0
000003C0
00000380
00000380
00000380
00000380
00000380
00000380
00000380
000003C0
000003C0
000003C0
000003E0
000003E0
000003F0
000003F0
000003F8
000003FC
000003FE
000003FE
00000000
00000000
ENDCHAR

STARTCHAR kor_A1BD
ENCODING 41405
SWIDTH 1024 0
DWIDTH 32 0
BBX 32 32 0 -2
BITMAP
00000000
3FE00000
3FE00000
1FE00000
0FE00000
07E00000
07E00000
03E00000
03E00000
01E00000
01E00000
01E00000
00E00000
00E00000
00E00000
00E00000
00E00000
00E00000
00E00000
01E00000
01E00000
01E00000
03E00000
03E00000
07E00000
07E00000
0FE00000
1FE00000
3FE00000
3FE00000
00000000
00000000
ENDCHAR

STARTCHAR kor_A1BE
ENCODING 41406
SWIDTH 1024 0
DWIDTH 32 0
BBX 32 32 0 -2
BITMAP
00000000
00000000
00000000
00000000
00000000
0001C000
0001C000
0001C000
0001C000
0001C000
0001C000
03FFFFE0
03FFFFE0
03FFFFE0
0001C000
0001C000
0001C000
0001C000
0001C000
0001C000
00000000
03FFFFE0
03FFFFE0
03FFFFE0
00000000
00000000
00000000
00000000
00000000
00000000
00000000
00000000
ENDCHAR

STARTCHAR kor_A1BF
ENCODING 41407
SWIDTH 1024 0
DWIDTH 32 0
BBX 32 32 0 -2
BITMAP
00000000
00000000
00000000
00000000
00000000
00000000
00000000
00E00380
00F00780
00780F00
003C1E00
001E3C00
000F7800
0007F000
0003E000
0001C000
0007F000
000F7800
001E3C00
003C1E00
00780F00
00F00780
00E00380
00C00180
00000000
00000000
00000000
00000000
00000000
00000000
00000000
00000000
ENDCHAR

STARTCHAR kor_A1C0
ENCODING 41408
SWIDTH 1024 0
DWIDTH 32 0
BBX 32 32 0 -2
BITMAP
00000000
00000000
00000000
0001F000
0003F800
0003F800
0003F800
0003F800
0003F800
0001F000
00000000
00000000
00000000
07FFFFFC
07FFFFFC
07FFFFFC
00000000
00000000
00000000
00000000
00000000
0001F000
0003F800
0003F800
0003F800
0003F800
0003F800
0001F000
00000000
00000000
00000000
00000000
ENDCHAR

STARTCHAR kor_A1C1
ENCODING 41409
SWIDTH 1024 0
DWIDTH 32 0
BBX 32 32 0 -2
BITMAP
00000000
00000000
00000000
00000000
00000000
00380000
00380000
003C0000
001E0000
000E0000
00070000
03FFFFF8
03FFFFF8
03FFFFF8
0001C000
0000E000
00007000
03FFFFF8
03FFFFF8
03FFFFF8
00001C00
00000E00
00000700
00000780
00000380
00000380
00000000
00000000
00000000
00000000
00000000
00000000
ENDCHAR

STARTCHAR kor_A1C2
ENCODING 41410
SWIDTH 1024 0
DWIDTH 32 0
BBX 32 32 0 -2
BITMAP
00000000
00000000
00000000
00000000
00000000
00000380
00001F80
0000FE00
0007F000
003F8000
01FC0000
0FE00000
0F000000
01FC0000
003F8000
0007F000
0000FE00
00001F80
00000380
00000000
00000000
00000000
0FFFFFC0
0FFFFFC0
00000000
00000000
00000000
00000000
00000000
00000000
00000000
00000000
ENDCHAR

STARTCHAR kor_A1C3
ENCODING 41411
SWIDTH 1024 0
DWIDTH 32 0
BBX 32 32 0 -2
BITMAP
00000000
00000000
00000000
00000000
00000000
03800000
03F00000
00FE0000
001FC000
0003F800
00007F00
00000FE0
000001E0
00007F00
0003F800
001FC000
00FE0000
03F00000
03800000
00000000
00000000
00000000
03FFFFE0
03FFFFE0
00000000
00000000
00000000
00000000
00000000
00000000
00000000
00000000
ENDCHAR

STARTCHAR kor_A1C4
ENCODING 41412
SWIDTH 1024 0
DWIDTH 32 0
BBX 32 32 0 -2
BITMAP
00000000
00000000
00000000
00000000
00000000
00000000
00000000
00000000
00000000
00F80F80
03FE3FE0
038F78E0
07077070
0603E030
0601C030
0601C030
0603E030
0706F070
038F78E0
03FE3FE0
00F80F80
00000000
00000000
00000000
00000000
00000000
00000000
00000000
00000000
00000000
00000000
00000000
ENDCHAR

STARTCHAR kor_A1C5
ENCODING 41413
SWIDTH 1024 0
DWIDTH 32 0
BBX 32 32 0 -2
BITMAP
00000000
00000000
00000000
00000000
00000000
0001C000
0003E000
0007F000
0007F000
0007F000
0003E000
0001C000
00000000
00000000
00000000
00000000
00000000
00000000
00000000
00E00380
01F007C0
03F80FE0
03F80FE0
03F80FE0
01F007C0
00E00380
00000000
00000000
00000000
00000000
00000000
00000000
ENDCHAR

STARTCHAR kor_A1C6
ENCODING 41414
SWIDTH 1024 0
DWIDTH 32 0
BBX 32 32 0 -2
BITMAP
00000000
00000000
00000000
0FE00000
1FF00000
38380000
30180000
30180000
30180000
30180000
30180000
38380000
1FF00000
0FE00000
00000000
00000000
00000000
00000000
00000000
00000000
00000000
00000000
00000000
00000000
00000000
00000000
00000000
00000000
00000000
00000000
00000000
00000000
ENDCHAR

STARTCHAR kor_A1C7
ENCODING 41415
SWIDTH 1024 0
DWIDTH 32 0
BBX 32 32 0 -2
BITMAP
00000000
00000000
00000000
0F000000
0F000000
0F000000
0E000000
1E000000
1C000000
1C000000
38000000
38000000
30000000
30000000
00000000
00000000
00000000
00000000
00000000
00000000
00000000
00000000
00000000
00000000
00000000
00000000
00000000
00000000
00000000
00000000
00000000
00000000
ENDCHAR

STARTCHAR kor_A1C8
ENCODING 41416
SWIDTH 1024 0
DWIDTH 32 0
BBX 32 32 0 -2
BITMAP
00000000
00000000
00000000
071C0000
071C0000
0F3C0000
0E380000
0E380000
1C700000
1C700000
18600000
18600000
18600000
00000000
00000000
00000000
00000000
00000000
00000000
00000000
00000000
00000000
00000000
00000000
00000000
00000000
00000000
00000000
00000000
00000000
00000000
00000000
ENDCHAR

STARTCHAR kor_A1C9
ENCODING 41417
SWIDTH 1024 0
DWIDTH 32 0
BBX 32 32 0 -2
BITMAP
00000000
03E00000
07F00000
0E380000
0C180000
0C18FF00
0C1BFFC0
0E3FFFE0
07F781F0
03EE0078
001C0038
001C0038
001C0000
00380000
00380000
00380000
00380000
00380000
00380000
00380000
00380000
001C0038
001C0038
001C0078
000E00F0
000F83F0
0007FFE0
0003FFC0
0000FF00
00000000
00000000
00000000
ENDCHAR

STARTCHAR kor_A1CA
ENCODING 41418
SWIDTH 1024 0
DWIDTH 32 0
BBX 32 32 0 -2
BITMAP
00000000
0003E000
0007F000
000E3800
000C1800
000C1800
000C1800
000E3800
0007F000
0003E000
00000000
0001C000
0003C000
0003E000
0007E000
0006F000
000EF000
000E7800
001E7800
001C3C00
003C3C00
003BDE00
007FFE00
007FFF00
00F00F00
00E00780
01E00780
01C003C0
03C003E0
038001E0
00000000
00000000
ENDCHAR

STARTCHAR kor_A1CB
ENCODING 41419
SWIDTH 1024 0
DWIDTH 32 0
BBX 32 32 0 -2
BITMAP
00000000
00000700
00000700
00000F00
00000E00
0003FE00
000FFC00
001FFF00
003E3F80
007C7780
00787380
00F0F380
00F0E000
00E1E000
00E1C000
00E3C000
00E38000
00F78000
00F70000
007F0380
007E0380
003E0780
001C1F00
003FFF00
006FFE00
0073F800
00F00000
00E00000
00E00000
00000000
00000000
00000000
ENDCHAR

STARTCHAR kor_A1CC
ENCODING 41420
SWIDTH 1024 0
DWIDTH 32 0
BBX 32 32 0 -2
BITMAP
00000000
00000000
00000000
0001FE00
0003FF00
00078780
00070380
000F0380
000F0380
000E0000
000E0000
000E0000
000E0000
00FFFE00
00FFFE00
00FFFE00
00070000
00070000
00070000
00030000
00FB0000
01FF00E0
03CF80E0
038781E0
0387C1C0
03CDF7C0
01FEFF80
00FC3E00
00000000
00000000
00000000
00000000
ENDCHAR

STARTCHAR kor_A1CD
ENCODING 41421
SWIDTH 1024 0
DWIDTH 32 0
BBX 32 32 0 -2
BITMAP
00000000
00000000
00000000
078003C0
078003C0
03C00780
03E00780
01E00F00
00F01E00
00F81E00
00783C00
003C7800
003EF800
03DFF780
03FFFF80
03FFFF80
0007C000
03FBBF80
03FFFF80
03FFFF80
00038000
00038000
00038000
00038000
00038000
00038000
00038000
00000000
00000000
00000000
00000000
00000000
ENDCHAR

STARTCHAR kor_A1CE
ENCODING 41422
SWIDTH 1024 0
DWIDTH 32 0
BBX 32 32 0 -2
BITMAP
00000000
00000000
00000000
00030000
00078000
000FC000
001AE000
003B7000
00733800
00E31C00
01C30E00
03830700
03030300
00030000
00030000
00030000
00030000
0007C000
001FF000
001C7000
00383800
00301800
00301800
00301800
00383800
001C7000
001FF000
0007C000
00000000
00000000
00000000
00000000
ENDCHAR

STARTCHAR kor_A1CF
ENCODING 41423
SWIDTH 1024 0
DWIDTH 32 0
BBX 32 32 0 -2
BITMAP
00000000
00000000
00000000
0007E000
000FF000
001C3800
00381C00
00300C00
00300C00
00300C00
00300C00
00381C00
001C3800
000FF000
0007E000
00018000
00018000
01FFFF80
01FFFF80
00018000
00018000
00018000
00018000
00018000
00018000
00018000
00018000
00018000
00000000
00000000
00000000
00000000
ENDCHAR

STARTCHAR kor_A1D0
ENCODING 41424
SWIDTH 1024 0
DWIDTH 32 0
BBX 32 32 0 -2
BITMAP
00000000
00000000
00000000
00000000
00000000
00000380
00000780
00000F00
00001E00
00003C00
00007800
0000F000
0001E000
0003C000
00078000
000F0000
001E0000
003C0000
00780000
00F00000
01E00000
03DFFF80
03FFFF80
03FFFF80
00000000
00000000
00000000
00000000
00000000
00000000
00000000
00000000
ENDCHAR

STARTCHAR kor_A1D1
ENCODING 41425
SWIDTH 1024 0
DWIDTH 32 0
BBX 32 32 0 -2
BITMAP
00000000
00000000
00000000
00000000
00000000
00000000
00000000
0000E000
0000E000
0000E000
0000E000
0000E000
0000E000
0000E000
0000E000
0000E000
0000E000
0000E000
0000E000
0000E000
0000E000
00FFFFE0
00FFFFE0
00FFFFE0
00000000
00000000
00000000
00000000
00000000
00000000
00000000
00000000
ENDCHAR

STARTCHAR kor_A1D2
ENCODING 41426
SWIDTH 1024 0
DWIDTH 32 0
BBX 32 32 0 -2
BITMAP
00000000
00000000
00000000
0003F800
000FFE00
003E0F80
007803C0
00E000E0
01C00070
01800030
03800038
03000018
00000000
00000000
00000000
00000000
00000000
00000000
00000000
00000000
00000000
00000000
00000000
00000000
00000000
00000000
00000000
00000000
00000000
00000000
00000000
00000000
ENDCHAR

STARTCHAR kor_A1D3
ENCODING 41427
SWIDTH 1024 0
DWIDTH 32 0
BBX 32 32 0 -2
BITMAP
00000000
00000000
00000000
0001E000
0007F000
000FF800
001FF800
001E3C00
00381C00
00381C00
00000C00
00000C00
00000C00
0003EC00
000FFC00
001F7C00
001C1800
00381800
00383800
00303800
00303000
00307000
0038E000
003FE000
001FC000
000F0000
00000000
00000000
00000000
00000000
00000000
00000000
ENDCHAR

STARTCHAR kor_A1D4
ENCODING 41428
SWIDTH 1024 0
DWIDTH 32 0
BBX 32 32 0 -2
BITMAP
00000000
00000000
00000000
00000000
00000000
03FFFFF8
03FFFFF8
01FFFFF0
00C00060
00E000E0
007001C0
007001C0
00380380
00380380
001C0700
001C0700
000E0E00
000E0E00
00071C00
00071C00
0003B800
0003B800
0001F000
0001F000
0000E000
0000E000
00000000
00000000
00000000
00000000
00000000
00000000
ENDCHAR

STARTCHAR kor_A1D5
ENCODING 41429
SWIDTH 1024 0
DWIDTH 32 0
BBX 32 32 0 -2
BITMAP
00000000
00000000
00000000
00000000
00000000
00000000
00000000
03FFFFF8
03FFFFF8
03FFFFF8
00000000
00000000
00000000
00000000
00000000
03FFFFF8
03FFFFF8
03FFFFF8
00000000
00000000
00000000
00000000
00000000
03FFFFF8
03FFFFF8
03FFFFF8
00000000
00000000
00000000
00000000
00000000
00000000
ENDCHAR

STARTCHAR kor_A1D6
ENCODING 41430
SWIDTH 1024 0
DWIDTH 32 0
BBX 32 32 0 -2
BITMAP
00000000
00000000
00000000
00000000
00000000
00F80000
00F80000
00F80000
00F80000
00F80000
00000000
00000000
00000000
03FFFFF8
03FFFFF8
03FFFFF8
00000000
03FFFFF8
03FFFFF8
03FFFFF8
00000000
00000000
00000000
00000F80
00000F80
00000F80
00000F80
00000F80
00000000
00000000
00000000
00000000
ENDCHAR

STARTCHAR kor_A1D7
ENCODING 41431
SWIDTH 1024 0
DWIDTH 32 0
BBX 32 32 0 -2
BITMAP
00000000
0003E000
000FF800
001E3C00
00180C00
00380E00
00300600
00300600
00380000
001C0000
000F0000
0007C000
001DF000
00387800
00301C00
00300C00
00380C00
001E1C00
000FB800
0003F000
0000E800
00003C00
00000E00
00300600
00300600
00380E00
00180C00
001E3C00
000FF800
0003E000
00000000
00000000
ENDCHAR

STARTCHAR kor_A1D8
ENCODING 41432
SWIDTH 1024 0
DWIDTH 32 0
BBX 32 32 0 -2
BITMAP
00000000
00000000
00000000
0C03E018
0E07F038
0F07F078
0787F0F0
03C7F1E0
01E7F3C0
00F3E780
00780F00
003C1E00
001E3C00
07CF79F0
0FE7F3F8
0FE3E3F8
0FE1C3F8
0FE7F3F8
0FEF7BF8
07DE3DF0
003C1E00
00780F00
00F3E780
01E7F3C0
03C7F1E0
0787F0F0
0F07F078
0E07F038
0003E000
00000000
00000000
00000000
ENDCHAR

STARTCHAR kor_A1D9
ENCODING 41433
SWIDTH 1024 0
DWIDTH 32 0
BBX 32 32 0 -2
BITMAP
00000000
00018000
00018000
0003C000
0002C000
0002C000
0006E000
00066000
00066000
000E7000
000C3000
3FFC3FFE
3FFC3FFE
1C00001C
07000070
03C001E0
01E003C0
00700700
00300600
00700700
00600300
00E00380
00C3E180
01CFF9C0
01BE3EC0
03F80FE0
02E00360
038000E0
00000000
00000000
00000000
00000000
ENDCHAR

STARTCHAR kor_A1DA
ENCODING 41434
SWIDTH 1024 0
DWIDTH 32 0
BBX 32 32 0 -2
BITMAP
00000000
00018000
00018000
0003C000
0003C000
0003C000
0007E000
0007E000
0007E000
000FF000
000FF000
3FFFFFFE
3FFFFFFE
1FFFFFFC
07FFFFF0
03FFFFE0
00FFFF80
007FFF00
003FFE00
007FFF00
007FFF00
00FFFF80
00FFFF80
01FFFFC0
01FE3FC0
03F80FE0
03E003E0
038000E0
00000000
00000000
00000000
00000000
ENDCHAR

STARTCHAR kor_A1DB
ENCODING 41435
SWIDTH 1024 0
DWIDTH 32 0
BBX 32 32 0 -2
BITMAP
00000000
00000000
00000000
000FF800
003FFE00
00F80F80
01E003C0
038000E0
03000060
07000070
06000030
0E000038
0C000018
0C000018
0C000018
0C000018
0C000018
0C000018
0C000018
0E000038
06000030
07000070
03000060
038000E0
01E003C0
00F80F80
003FFE00
000FF800
00000000
00000000
00000000
00000000
ENDCHAR

STARTCHAR kor_A1DC
ENCODING 41436
SWIDTH 1024 0
DWIDTH 32 0
BBX 32 32 0 -2
BITMAP
00000000
00000000
00000000
000FF800
003FFE00
00FFFF80
01FFFFC0
03FFFFE0
03FFFFE0
07FFFFF0
07FFFFF0
0FFFFFF8
0FFFFFF8
0FFFFFF8
0FFFFFF8
0FFFFFF8
0FFFFFF8
0FFFFFF8
0FFFFFF8
0FFFFFF8
07FFFFF0
07FFFFF0
03FFFFE0
03FFFFE0
01FFFFC0
00FFFF80
003FFE00
000FF800
00000000
00000000
00000000
00000000
ENDCHAR

STARTCHAR kor_A1DD
ENCODING 41437
SWIDTH 1024 0
DWIDTH 32 0
BBX 32 32 0 -2
BITMAP
00000000
00000000
00000000
000FF800
003FFE00
00F80F80
01E003C0
038000E0
0303E060
070FF870
061E3C30
0E380E38
0C300618
0C700718
0C600318
0C600318
0C600318
0C700718
0C300618
0E380E38
061E3C30
070FF870
0303E060
038000E0
01E003C0
00F80F80
003FFE00
000FF800
00000000
00000000
00000000
00000000
ENDCHAR

STARTCHAR kor_A1DE
ENCODING 41438
SWIDTH 1024 0
DWIDTH 32 0
BBX 32 32 0 -2
BITMAP
00000000
00000000
00000000
0001C000
0003E000
0007F000
000F7800
001E3C00
003C1E00
00780F00
00F00780
01E003C0
03C001E0
078000F0
0F000078
0E000038
0F000078
078000F0
03C001E0
01E003C0
00F00780
00780F00
003C1E00
001E3C00
000F7800
0007F000
0003E000
0001C000
00000000
00000000
00000000
00000000
ENDCHAR

STARTCHAR kor_A1DF
ENCODING 41439
SWIDTH 1024 0
DWIDTH 32 0
BBX 32 32 0 -2
BITMAP
00000000
00000000
00000000
0001C000
0003E000
0007F000
000FF800
001FFC00
003FFE00
007FFF00
00FFFF80
01FFFFC0
03FFFFE0
07FFFFF0
0FFFFFF8
0FFFFFF8
0FFFFFF8
07FFFFF0
03FFFFE0
01FFFFC0
00FFFF80
007FFF00
003FFE00
001FFC00
000FF800
0007F000
0003E000
0001C000
00000000
00000000
00000000
00000000
ENDCHAR

STARTCHAR kor_A1E0
ENCODING 41440
SWIDTH 1024 0
DWIDTH 32 0
BBX 32 32 0 -2
BITMAP
00000000
00000000
00000000
0FFFFFF8
0FFFFFF8
0FFFFFF8
0E000038
0E000038
0E000038
0E000038
0E000038
0E000038
0E000038
0E000038
0E000038
0E000038
0E000038
0E000038
0E000038
0E000038
0E000038
0E000038
0E000038
0E000038
0E000038
0FFFFFF8
0FFFFFF8
0FFFFFF8
00000000
00000000
00000000
00000000
ENDCHAR

STARTCHAR kor_A1E1
ENCODING 41441
SWIDTH 1024 0
DWIDTH 32 0
BBX 32 32 0 -2
BITMAP
00000000
00000000
00000000
0FFFFFF8
0FFFFFF8
0FFFFFF8
0FFFFFF8
0FFFFFF8
0FFFFFF8
0FFFFFF8
0FFFFFF8
0FFFFFF8
0FFFFFF8
0FFFFFF8
0FFFFFF8
0FFFFFF8
0FFFFFF8
0FFFFFF8
0FFFFFF8
0FFFFFF8
0FFFFFF8
0FFFFFF8
0FFFFFF8
0FFFFFF8
0FFFFFF8
0FFFFFF8
0FFFFFF8
0FFFFFF8
00000000
00000000
00000000
00000000
ENDCHAR

STARTCHAR kor_A1E2
ENCODING 41442
SWIDTH 1024 0
DWIDTH 32 0
BBX 32 32 0 -2
BITMAP
00000000
00000000
00000000
0001C000
0001C000
0003E000
0003E000
0007F000
00077000
000F7800
000E3800
001E3C00
001C1C00
003C1E00
00380E00
00780F00
00700700
00F00780
00E00380
01E003C0
01C001C0
03C001E0
038000E0
078000F0
07000070
0FFFFFF8
0FFFFFF8
0FFFFFF8
00000000
00000000
00000000
00000000
ENDCHAR

STARTCHAR kor_A1E3
ENCODING 41443
SWIDTH 1024 0
DWIDTH 32 0
BBX 32 32 0 -2
BITMAP
00000000
00000000
00000000
0001C000
0001C000
0003E000
0003E000
0007F000
0007F000
000FF800
000FF800
001FFC00
001FFC00
003FFE00
003FFE00
007FFF00
007FFF00
00FFFF80
00FFFF80
01FFFFC0
01FFFFC0
03FFFFE0
03FFFFE0
07FFFFF0
07FFFFF0
0FFFFFF8
0FFFFFF8
0FFFFFF8
00000000
00000000
00000000
00000000
ENDCHAR

STARTCHAR kor_A1E4
ENCODING 41444
SWIDTH 1024 0
DWIDTH 32 0
BBX 32 32 0 -2
BITMAP
00000000
00000000
00000000
0FFFFFF8
0FFFFFF8
0FFFFFF8
07000070
078000F0
038000E0
03C001E0
01C001C0
01E003C0
00E00380
00F00780
00700700
00780F00
00380E00
003C1E00
001C1C00
001E3C00
000E3800
000F7800
00077000
0007F000
0003E000
0003E000
0001C000
0001C000
00000000
00000000
00000000
00000000
ENDCHAR

STARTCHAR kor_A1E5
ENCODING 41445
SWIDTH 1024 0
DWIDTH 32 0
BBX 32 32 0 -2
BITMAP
00000000
00000000
00000000
0FFFFFF8
0FFFFFF8
0FFFFFF8
07FFFFF0
07FFFFF0
03FFFFE0
03FFFFE0
01FFFFC0
01FFFFC0
00FFFF80
00FFFF80
007FFF00
007FFF00
003FFE00
003FFE00
001FFC00
001FFC00
000FF800
000FF800
0007F000
0007F000
0003E000
0003E000
0001C000
0001C000
00000000
00000000
00000000
00000000
ENDCHAR

STARTCHAR kor_A1E6
ENCODING 41446
SWIDTH 1024 0
DWIDTH 32 0
BBX 32 32 0 -2
BITMAP
00000000
00000000
00000000
00000000
00000000
00000000
00000000
00000000
00000000
000000C0
000000E0
000000F0
000000F8
3FFFFFFC
3FFFFFFC
3FFFFFFC
000000F8
000000F0
000000E0
000000C0
00000000
00000000
00000000
00000000
00000000
00000000
00000000
00000000
00000000
00000000
00000000
00000000
ENDCHAR

STARTCHAR kor_A1E7
ENCODING 41447
SWIDTH 1024 0
DWIDTH 32 0
BBX 32 32 0 -2
BITMAP
00000000
00000000
00000000
00000000
00000000
00000000
00000000
00000000
00000000
01800000
03800000
07800000
0F800000
1FFFFFF8
1FFFFFF8
1FFFFFF8
0F800000
07800000
03800000
01800000
00000000
00000000
00000000
00000000
00000000
00000000
00000000
00000000
00000000
00000000
00000000
00000000
ENDCHAR

STARTCHAR kor_A1E8
ENCODING 41448
SWIDTH 1024 0
DWIDTH 32 0
BBX 32 32 0 -2
BITMAP
00000000
00000000
00038000
0007C000
000FE000
001FF000
003FF800
003FF800
00038000
00038000
00038000
00038000
00038000
00038000
00038000
00038000
00038000
00038000
00038000
00038000
00038000
00038000
00038000
00038000
00038000
00038000
00038000
00038000
00000000
00000000
00000000
00000000
ENDCHAR

STARTCHAR kor_A1E9
ENCODING 41449
SWIDTH 1024 0
DWIDTH 32 0
BBX 32 32 0 -2
BITMAP
00000000
00038000
00038000
00038000
00038000
00038000
00038000
00038000
00038000
00038000
00038000
00038000
00038000
00038000
00038000
00038000
00038000
00038000
00038000
00038000
00038000
00038000
00038000
003FF800
003FF800
001FF000
000FE000
0007C000
00038000
00000000
00000000
00000000
ENDCHAR

STARTCHAR kor_A1EA
ENCODING 41450
SWIDTH 1024 0
DWIDTH 32 0
BBX 32 32 0 -2
BITMAP
00000000
00000000
00000000
00000000
00000000
00000000
00000000
00000000
00000000
018000C0
038000E0
078000F0
0F8000F8
1FFFFFFC
1FFFFFFC
1FFFFFFC
0F8000F8
078000F0
038000E0
018000C0
00000000
00000000
00000000
00000000
00000000
00000000
00000000
00000000
00000000
00000000
00000000
00000000
ENDCHAR

STARTCHAR kor_A1EB
ENCODING 41451
SWIDTH 1024 0
DWIDTH 32 0
BBX 32 32 0 -2
BITMAP
00000000
00000000
00000000
00000000
00000000
00000000
00000000
00000000
00000000
00000000
00000000
0FFFFFF8
0FFFFFF8
0FFFFFF8
00000000
00000000
00000000
0FFFFFF8
0FFFFFF8
0FFFFFF8
00000000
00000000
00000000
00000000
00000000
00000000
00000000
00000000
00000000
00000000
00000000
00000000
ENDCHAR

STARTCHAR kor_A1EC
ENCODING 41452
SWIDTH 1024 0
DWIDTH 32 0
BBX 32 32 0 -2
BITMAP
00000000
00000000
00000000
00000000
00000000
00000000
00000000
00000000
00000000
00003C00
0001FC78
0007F3F8
003F8FC0
00FE7E00
03F1F800
0FCFC000
0E0E0000
0FCFC000
03F3F800
00FC7E00
003F0FC0
000FE3F8
0003FC78
00007C00
00000000
00000000
00000000
00000000
00000000
00000000
00000000
00000000
ENDCHAR

STARTCHAR kor_A1ED
ENCODING 41453
SWIDTH 1024 0
DWIDTH 32 0
BBX 32 32 0 -2
BITMAP
00000000
00000000
00000000
00000000
00000000
00000000
00000000
00000000
00000000
1E1E0000
1F9FC000
07E7F000
01F8FE00
003F3F80
000FC7E0
0003F1F8
00007038
0003F1F8
000FC7E0
003F1F80
01FC7E00
07F3F800
1F8FE000
1E0F0000
00000000
00000000
00000000
00000000
00000000
00000000
00000000
00000000
ENDCHAR

STARTCHAR kor_A1EE
ENCODING 41454
SWIDTH 1024 0
DWIDTH 32 0
BBX 32 32 0 -2
BITMAP
00000000
00000000
00000000
00000000
00000000
00000000
00000000
00007FFE
00007FFE
00006000
0000E000
0000C000
0000C000
0181C000
03818000
07818000
0FC38000
1FC30000
3DC30000
39E70000
00E60000
00E60000
00EE0000
006C0000
006C0000
007C0000
00380000
00380000
00000000
00000000
00000000
00000000
ENDCHAR

STARTCHAR kor_A1EF
ENCODING 41455
SWIDTH 1024 0
DWIDTH 32 0
BBX 32 32 0 -2
BITMAP
00000000
00000000
00000000
00000000
00000000
00000000
00000000
00000000
00000000
01E00F80
07F83FE0
073878E0
0E18E070
0C00C030
0C01C030
0C038030
0C030030
0E071870
071E1CE0
07FC1FE0
01F00780
00000000
00000000
00000000
00000000
00000000
00000000
00000000
00000000
00000000
00000000
00000000
ENDCHAR

STARTCHAR kor_A1F0
ENCODING 41456
SWIDTH 1024 0
DWIDTH 32 0
BBX 32 32 0 -2
BITMAP
00000000
00000000
00000000
00000000
00000000
00000000
00000000
00000000
00000000
003C0780
00FF1FE0
01E7BCE0
0181B000
0380F000
0300E000
03006000
0300E000
0380F000
0181B000
01E7BCE0
00FF1FE0
003C0780
00000000
00000000
00000000
00000000
00000000
00000000
00000000
00000000
00000000
00000000
ENDCHAR

STARTCHAR kor_A1F1
ENCODING 41457
SWIDTH 1024 0
DWIDTH 32 0
BBX 32 32 0 -2
BITMAP
00000000
00000000
00000000
00000000
00000000
00E000E0
01F001F0
03F803F8
03F803F8
03F803F8
01F001F0
00E000E0
00000000
00000000
00000000
00000000
00000000
00000000
00000000
0000E000
0001F000
0003F800
0003F800
0003F800
0001F000
0000E000
00000000
00000000
00000000
00000000
00000000
00000000
ENDCHAR

STARTCHAR kor_A1F2
ENCODING 41458
SWIDTH 1024 0
DWIDTH 32 0
BBX 32 32 0 -2
BITMAP
00000000
0000F800
0001FC00
0001DE00
00038E00
00038E00
00038E00
00038000
00038000
00038000
00038000
0003C000
0001C000
0001C000
0001C000
0001C000
0001C000
0001C000
0001E000
0000E000
0000E000
0000E000
0000E000
0000E000
0038E000
0038E000
0038E000
003DC000
001FC000
000F8000
00000000
00000000
ENDCHAR

STARTCHAR kor_A1F3
ENCODING 41459
SWIDTH 1024 0
DWIDTH 32 0
BBX 32 32 0 -2
BITMAP
00000000
001F07C0
003F8FE0
003BCEF0
0071DC70
0071DC70
0071DC70
00701C00
00701C00
00701C00
00701C00
00781E00
00380E00
00380E00
00380E00
00380E00
00380E00
00380E00
003C0F00
001C0700
001C0700
001C0700
001C0700
001C0700
071DC700
071DC700
071DC700
07B9EE00
03F8FE00
01F07C00
00000000
00000000
ENDCHAR

STARTCHAR kor_A1F4
ENCODING 41460
SWIDTH 1024 0
DWIDTH 32 0
BBX 32 32 0 -2
BITMAP
00000000
00000000
00000000
00000000
00000000
00000000
00000000
001FFFF8
007FFFF8
00FFFFF8
01F00000
01C00000
03C00000
03800000
03800000
03FFFFF8
03FFFFF8
03FFFFF8
03800000
03800000
03C00000
01C00000
01F00000
00FFFFF8
007FFFF8
001FFFF8
00000000
00000000
00000000
00000000
00000000
00000000
ENDCHAR

STARTCHAR kor_A1F5
ENCODING 41461
SWIDTH 1024 0
DWIDTH 32 0
BBX 32 32 0 -2
BITMAP
00000000
00000000
00000000
00000000
00000000
00000000
00000000
0FFFFF00
0FFFFFC0
0FFFFFE0
000003F0
000000F0
00000078
00000078
00000038
0FFFFFF8
0FFFFFF8
0FFFFFF8
00000038
00000078
00000078
000000F0
000003F0
0FFFFFE0
0FFFFFC0
0FFFFF00
00000000
00000000
00000000
00000000
00000000
00000000
ENDCHAR

STARTCHAR kor_A1F6
ENCODING 41462
SWIDTH 1024 0
DWIDTH 32 0
BBX 32 32 0 -2
BITMAP
00000000
00000000
00000000
00000000
00000000
001FFFF8
007FFFF8
00FFFFF8
01F00000
01C00000
03C00000
03800000
03800000
03800000
03800000
03800000
03C00000
01C00000
01F00000
00FFFFF8
007FFFF8
001FFFF8
00000000
00000000
00000000
03FFFFF8
03FFFFF8
03FFFFF8
00000000
00000000
00000000
00000000
ENDCHAR

STARTCHAR kor_A1F7
ENCODING 41463
SWIDTH 1024 0
DWIDTH 32 0
BBX 32 32 0 -2
BITMAP
00000000
00000000
00000000
00000000
00000000
0FFFFF00
0FFFFFC0
0FFFFFE0
000003F0
000000F0
00000078
00000078
00000038
00000038
00000038
00000078
00000078
000000F0
000003F0
0FFFFFE0
0FFFFFC0
0FFFFF00
00000000
00000000
00000000
0FFFFFE0
0FFFFFE0
0FFFFFE0
00000000
00000000
00000000
00000000
ENDCHAR

STARTCHAR kor_A1F8
ENCODING 41464
SWIDTH 1024 0
DWIDTH 32 0
BBX 32 32 0 -2
BITMAP
00000000
00000000
00000000
00000000
00000000
00000000
00000000
001FFFF8
007FFFF8
00FFFFF8
01F80000
01E00000
03C00000
03C00000
03800000
03800000
03800000
03800000
03800000
03C00000
03C00000
01E00000
01F80000
00FFFFF8
007FFFF8
001FFFF8
00000000
00000000
00000000
00000000
00000000
00000000
ENDCHAR

STARTCHAR kor_A1F9
ENCODING 41465
SWIDTH 1024 0
DWIDTH 32 0
BBX 32 32 0 -2
BITMAP
00000000
00000000
00000000
00000000
00000000
00000000
00000000
3FFFFF00
3FFFFFC0
3FFFFFE0
000003F0
000000F0
00000078
00000078
00000038
00000038
00000038
00000038
00000038
00000078
00000078
000000F0
000003F0
3FFFFFE0
3FFFFFC0
3FFFFF00
00000000
00000000
00000000
00000000
00000000
00000000
ENDCHAR

STARTCHAR kor_A1FA
ENCODING 41466
SWIDTH 1024 0
DWIDTH 32 0
BBX 32 32 0 -2
BITMAP
00000000
00000000
00000000
00E00380
00E00380
00E00380
00E00380
00E00380
00E00380
00E00380
00E00380
00E00380
00E00380
00E00380
00E00380
00E00380
00E00380
00E00380
00E00380
00E00380
00E00380
00F00780
00F00780
00780F00
007E3F00
003FFE00
001FFC00
0007F000
00000000
00000000
00000000
00000000
ENDCHAR

STARTCHAR kor_A1FB
ENCODING 41467
SWIDTH 1024 0
DWIDTH 32 0
BBX 32 32 0 -2
BITMAP
00000000
00000000
00000000
00000000
00000000
0007F000
001FFC00
003FFE00
007C1F00
00700700
00F00780
00E00380
00E00380
00E00380
00E00380
00E00380
00E00380
00E00380
00E00380
00E00380
00E00380
00E00380
00E00380
00E00380
00E00380
00E00380
00E00380
00E00380
00000000
00000000
00000000
00000000
ENDCHAR

STARTCHAR kor_A1FC
ENCODING 41468
SWIDTH 1024 0
DWIDTH 32 0
BBX 32 32 0 -2
BITMAP
00000000
00000000
00000000
0001C000
0001C000
0003E000
0003E000
0003E000
0007F000
00077000
000F7800
000E3800
000E3800
001E3C00
001C1C00
003C1E00
00380E00
00380E00
00780F00
00700700
00F00780
00E00380
00E00380
01E003C0
01C001C0
03C001E0
038000E0
038000E0
00000000
00000000
00000000
00000000
ENDCHAR

STARTCHAR kor_A1FD
ENCODING 41469
SWIDTH 1024 0
DWIDTH 32 0
BBX 32 32 0 -2
BITMAP
00000000
00000000
00000000
038000E0
038000E0
03C001E0
01C001C0
01E003C0
00E00380
00E00380
00F00780
00700700
00780F00
00380E00
00380E00
003C1E00
001C1C00
001E3C00
000E3800
000E3800
000F7800
00077000
0007F000
0003E000
0003E000
0003E000
0001C000
0001C000
00000000
00000000
00000000
00000000
ENDCHAR

STARTCHAR kor_A1FE
ENCODING 41470
SWIDTH 1024 0
DWIDTH 32 0
BBX 32 32 0 -2
BITMAP
00000000
00000000
00000000
00000000
00000000
00000000
00000000
00000000
00000000
00000000
00000000
03FFFFF8
03FFFFF8
03FFFFF8
00000038
00000038
00000038
00000038
00000038
00000038
00000038
00000038
00000000
00000000
00000000
00000000
00000000
00000000
00000000
00000000
00000000
00000000
ENDCHAR

STARTCHAR kor_A2A1
ENCODING 41633
SWIDTH 1024 0
DWIDTH 32 0
BBX 32 32 0 -2
BITMAP
00000000
00000000
00000000
00000000
00000000
00000E00
00000F00
00000F80
000007C0
0FFFFBE0
0FFFFFF0
0FFFFFF8
0000007C
0000003E
0000001E
0000003E
0000007C
0FFFFFF8
0FFFFFF0
0FFFFFE0
000003C0
00000F80
00000F00
00000E00
00000000
00000000
00000000
00000000
00000000
00000000
00000000
00000000
ENDCHAR

STARTCHAR kor_A2A2
ENCODING 41634
SWIDTH 1024 0
DWIDTH 32 0
BBX 32 32 0 -2
BITMAP
00000000
00000000
00000000
00000000
00000000
00000000
00000000
00E00380
01E003C0
03E003E0
07C001F0
0FBFFEF8
1FFFFFFC
3FFFFFFE
7C00001F
7800000F
7C00001F
3FFFFFFE
1FFFFFFC
0FFFFFF8
078000F0
03E003E0
01E003C0
00E00380
00000000
00000000
00000000
00000000
00000000
00000000
00000000
00000000
ENDCHAR

STARTCHAR kor_A2A3
ENCODING 41635
SWIDTH 1024 0
DWIDTH 32 0
BBX 32 32 0 -2
BITMAP
00000000
038000E0
038000E0
03C001E0
01C001C0
01E003C0
00E00380
00F00780
00700700
007FFF00
007FFF00
003FFE00
00380E00
001C1C00
001E3C00
000E3800
000E3800
000F7800
00077000
0007F000
0003E000
0003E000
0001C000
0001C000
0001C000
00000000
00000000
00000000
00000000
00000000
00000000
00000000
ENDCHAR

STARTCHAR kor_A2A4
ENCODING 41636
SWIDTH 1024 0
DWIDTH 32 0
BBX 32 32 0 -2
BITMAP
00000000
00FFFF00
00FFFF00
00FFFF00
00000700
00000700
00000700
00000700
00000700
00000700
00000700
00FFFF00
00FFFF00
00FFFF00
00000700
00000700
00000700
00000700
00000700
00000700
00000700
00FFFF00
00FFFF00
00FFFF00
00000000
00000000
00000000
00000000
00000000
00000000
00000000
00000000
ENDCHAR

STARTCHAR kor_A2A5
ENCODING 41637
SWIDTH 1024 0
DWIDTH 32 0
BBX 32 32 0 -2
BITMAP
00000000
00000000
00000000
00038000
00038000
00038000
00030000
00030000
00070000
00060000
00060000
00060000
00000000
00000000
00000000
00000000
00000000
00000000
00000000
00000000
00000000
00000000
00000000
00000000
00000000
00000000
00000000
00000000
00000000
00000000
00000000
00000000
ENDCHAR

STARTCHAR kor_A2A6
ENCODING 41638
SWIDTH 1024 0
DWIDTH 32 0
BBX 32 32 0 -2
BITMAP
00000000
00000000
00000000
00000000
00000000
000F0600
001F8600
0039CE00
0030FC00
00307800
00000000
00000000
00000000
00000000
00000000
00000000
00000000
00000000
00000000
00000000
00000000
00000000
00000000
00000000
00000000
00000000
00000000
00000000
00000000
00000000
00000000
00000000
ENDCHAR

STARTCHAR kor_A2A7
ENCODING 41639
SWIDTH 1024 0
DWIDTH 32 0
BBX 32 32 0 -2
BITMAP
00000000
00000000
00000000
00300600
00380E00
001C1C00
000E3800
00077000
0003E000
0001C000
00000000
00000000
00000000
00000000
00000000
00000000
00000000
00000000
00000000
00000000
00000000
00000000
00000000
00000000
00000000
00000000
00000000
00000000
00000000
00000000
00000000
00000000
ENDCHAR

STARTCHAR kor_A2A8
ENCODING 41640
SWIDTH 1024 0
DWIDTH 32 0
BBX 32 32 0 -2
BITMAP
00000000
00000000
00000000
00300600
00300600
00380E00
001E3C00
000FF800
0003E000
00000000
00000000
00000000
00000000
00000000
00000000
00000000
00000000
00000000
00000000
00000000
00000000
00000000
00000000
00000000
00000000
00000000
00000000
00000000
00000000
00000000
00000000
00000000
ENDCHAR

STARTCHAR kor_A2A9
ENCODING 41641
SWIDTH 1024 0
DWIDTH 32 0
BBX 32 32 0 -2
BITMAP
00000000
00000000
00000000
000E3800
000E3800
000E3800
001C7000
001C7000
00186000
0038E000
0030C000
0030C000
00000000
00000000
00000000
00000000
00000000
00000000
00000000
00000000
00000000
00000000
00000000
00000000
00000000
00000000
00000000
00000000
00000000
00000000
00000000
00000000
ENDCHAR

STARTCHAR kor_A2AA
ENCODING 41642
SWIDTH 1024 0
DWIDTH 32 0
BBX 32 32 0 -2
BITMAP
00000000
00000000
00000000
0003E000
0007F000
000E3800
000C1800
000C1800
000C1800
000E3800
0007F000
0003E000
00000000
00000000
00000000
00000000
00000000
00000000
00000000
00000000
00000000
00000000
00000000
00000000
00000000
00000000
00000000
00000000
00000000
00000000
00000000
00000000
ENDCHAR

STARTCHAR kor_A2AB
ENCODING 41643
SWIDTH 1024 0
DWIDTH 32 0
BBX 32 32 0 -2
BITMAP
00000000
00000000
00000000
0001F000
0003F800
0003F800
0003F800
0003F800
0003F800
0001F000
00000000
00000000
00000000
00000000
00000000
00000000
00000000
00000000
00000000
00000000
00000000
00000000
00000000
00000000
00000000
00000000
00000000
00000000
00000000
00000000
00000000
00000000
ENDCHAR

STARTCHAR kor_A2AC
ENCODING 41644
SWIDTH 1024 0
DWIDTH 32 0
BBX 32 32 0 -2
BITMAP
00000000
00000000
00000000
00000000
00000000
00000000
00000000
00000000
00000000
00000000
00000000
00060000
00060000
000E0000
000F0000
000F0000
00078000
0007C000
0003E000
0001F000
0000F000
00007800
00003800
00003800
00007800
001FF000
001FF000
000FC000
00000000
00000000
00000000
00000000
ENDCHAR

STARTCHAR kor_A2AD
ENCODING 41645
SWIDTH 1024 0
DWIDTH 32 0
BBX 32 32 0 -2
BITMAP
00000000
00000000
00000000
00000000
00000000
00000000
00000000
00000000
00000000
00000000
00000000
00000000
00000000
00000000
00000000
0000C000
0001C000
0003C000
00038000
00078000
00070000
000F0000
000E0000
000E0000
000F3800
000FF800
000FF000
0007C000
00000000
00000000
00000000
00000000
ENDCHAR

STARTCHAR kor_A2AE
ENCODING 41646
SWIDTH 1024 0
DWIDTH 32 0
BBX 32 32 0 -2
BITMAP
00000000
00000000
00000000
0001C000
0003E000
0003E000
0003E000
0001C000
00000000
00000000
0001C000
0001C000
0001C000
0001C000
0001C000
0001C000
0001C000
0001C000
0003E000
0003E000
0003E000
0003E000
0003E000
0003E000
0003E000
0003E000
0001C000
00000000
00000000
00000000
00000000
00000000
ENDCHAR

STARTCHAR kor_A2AF
ENCODING 41647
SWIDTH 1024 0
DWIDTH 32 0
BBX 32 32 0 -2
BITMAP
00000000
00000000
00000000
0000E000
0001F000
0001F000
0001F000
0000E000
00000000
0000E000
0000E000
0000E000
0000E000
0000E000
0000E000
0003E000
000FE000
001FE000
001E0000
003C0000
00380000
00380000
00381800
00381800
001C7800
001FF000
0007C000
00000000
00000000
00000000
00000000
00000000
ENDCHAR

STARTCHAR kor_A2B0
ENCODING 41648
SWIDTH 1024 0
DWIDTH 32 0
BBX 32 32 0 -2
BITMAP
00000000
00000000
00000000
00000000
00000000
00000000
00000000
000FE000
000FE000
0007C000
0007C000
00038000
00038000
00000000
00000000
00000000
00000000
00000000
00038000
00038000
0007C000
0007C000
000FE000
000FE000
00000000
00000000
00000000
00000000
00000000
00000000
00000000
00000000
ENDCHAR

STARTCHAR kor_A2B1
ENCODING 41649
SWIDTH 1024 0
DWIDTH 32 0
BBX 32 32 0 -2
BITMAP
00000000
00007800
0001FC00
0001DC00
00039C00
00038000
00038000
00038000
00038000
00038000
0007C000
001FF000
001B7000
003BB800
00339800
00339800
00339800
003BB800
001BF000
001F7000
0007C000
00038000
00038000
00038000
00038000
00038000
00738000
00770000
007F0000
003C0000
00000000
00000000
ENDCHAR

STARTCHAR kor_A2B2
ENCODING 41650
SWIDTH 1024 0
DWIDTH 32 0
BBX 32 32 0 -2
BITMAP
00000000
00000000
00000000
00000000
00000000
03FFFF80
03FFFF80
01FFFF80
00F80380
007E0380
003F0180
001F8180
000FC000
0007E000
0003F000
0001F000
0000E000
0003C000
00078000
000F0180
001E0180
003C0180
00780180
00F00180
01E00380
03C00380
07BFFF80
07FFFF80
00000000
00000000
00000000
00000000
ENDCHAR

STARTCHAR kor_A2B3
ENCODING 41651
SWIDTH 1024 0
DWIDTH 32 0
BBX 32 32 0 -2
BITMAP
00000000
00000000
00000000
00000000
00000000
00FFFF80
00FFFF80
00FFFF80
00380E00
00380E00
00380E00
00380E00
00380E00
00380E00
00380E00
00380E00
00380E00
00380E00
00380E00
00380E00
00380E00
00380E00
00380E00
00380E00
00380E00
00380E00
00000000
00000000
00000000
00000000
00000000
00000000
ENDCHAR

STARTCHAR kor_A2B4
ENCODING 41652
SWIDTH 1024 0
DWIDTH 32 0
BBX 32 32 0 -2
BITMAP
00000000
00000000
00000000
00000000
00000000
00000000
00000000
00600180
00700380
003BF700
001FFE00
000E1C00
00180600
00380700
00300300
00300300
00300300
00300300
00380700
00180600
003E1F00
006FFB80
00E3F1C0
00C000C0
00000000
00000000
00000000
00000000
00000000
00000000
00000000
00000000
ENDCHAR

STARTCHAR kor_A2B5
ENCODING 41653
SWIDTH 1024 0
DWIDTH 32 0
BBX 32 32 0 -2
BITMAP
00000000
03E00000
07F00000
0E380000
0C180000
0C1FFFF8
0C1FFFF8
0E3B8038
07F38038
03E38018
00038018
00038018
00038000
00038180
00038180
00038380
0003FF80
0003FF80
00038380
00038180
00038180
00038000
00038000
00038000
00038000
00038000
00038000
00038000
000FF800
000FF800
00000000
00000000
ENDCHAR

STARTCHAR kor_A2B6
ENCODING 41654
SWIDTH 1024 0
DWIDTH 32 0
BBX 32 32 0 -2
BITMAP
00000000
00000000
00006000
00006000
0780E000
0FC0C000
1EE1C000
1CE18000
3CE38000
38E30000
38E70000
39E60000
39CE0000
3BCC0000
1F9CF03C
0F19F87E
003BDCF7
00339CE7
00779DE7
00671DC7
00E71DC7
00C73DCF
01C739CE
018779DE
0383F0FC
0301E078
07000000
06000000
06000000
00000000
00000000
00000000
ENDCHAR

STARTCHAR kor_A2B7
ENCODING 41655
SWIDTH 1024 0
DWIDTH 32 0
BBX 32 32 0 -2
BITMAP
00000000
00000000
00000000
00000038
000000F8
000003F8
00000FF8
00003FB8
0000FE38
0003F838
000FE038
003F8038
00FE0038
03F80038
03E00038
03F80038
00FE0038
003F8038
000FE038
0003F838
0000FE38
00003FB8
00000FF8
000003F8
000000F8
00000038
00000000
00000000
00000000
00000000
00000000
00000000
ENDCHAR

STARTCHAR kor_A2B8
ENCODING 41656
SWIDTH 1024 0
DWIDTH 32 0
BBX 32 32 0 -2
BITMAP
00000000
00000000
00000000
00000038
000000F8
000003F8
00000FF8
00003FF8
0000FFF8
0003FFF8
000FFFF8
003FFFF8
00FFFFF8
03FFFFF8
03FFFFF8
03FFFFF8
00FFFFF8
003FFFF8
000FFFF8
0003FFF8
0000FFF8
00003FF8
00000FF8
000003F8
000000F8
00000038
00000000
00000000
00000000
00000000
00000000
00000000
ENDCHAR

STARTCHAR kor_A2B9
ENCODING 41657
SWIDTH 1024 0
DWIDTH 32 0
BBX 32 32 0 -2
BITMAP
00000000
00000000
00000000
03800000
03E00000
03F80000
03FE0000
03BF8000
038FE000
0383F800
0380FE00
03803F80
03800FE0
038003F8
038000F8
038003F8
03800FE0
03803F80
0380FE00
0383F800
038FE000
03BF8000
03FE0000
03F80000
03E00000
03800000
00000000
00000000
00000000
00000000
00000000
00000000
ENDCHAR

STARTCHAR kor_A2BA
ENCODING 41658
SWIDTH 1024 0
DWIDTH 32 0
BBX 32 32 0 -2
BITMAP
00000000
00000000
00000000
03800000
03E00000
03F80000
03FE0000
03FF8000
03FFE000
03FFF800
03FFFE00
03FFFF80
03FFFFE0
03FFFFF8
03FFFFF8
03FFFFF8
03FFFFE0
03FFFF80
03FFFE00
03FFF800
03FFE000
03FF8000
03FE0000
03F80000
03E00000
03800000
00000000
00000000
00000000
00000000
00000000
00000000
ENDCHAR

STARTCHAR kor_A2BB
ENCODING 41659
SWIDTH 1024 0
DWIDTH 32 0
BBX 32 32 0 -2
BITMAP
00000000
0001C000
0001C000
0003E000
0003E000
0007F000
000F7800
001E3C00
003C1E00
00380E00
00780F00
00F00780
00E00380
01E003C0
01C001C0
03C001E0
038000E0
038000E0
038000E0
0381C0E0
03C7F1E0
03FFFFE0
01FFFFC0
00FDDF80
0001C000
0001C000
0007F000
0007F000
00000000
00000000
00000000
00000000
ENDCHAR

STARTCHAR kor_A2BC
ENCODING 41660
SWIDTH 1024 0
DWIDTH 32 0
BBX 32 32 0 -2
BITMAP
00000000
0001C000
0001C000
0003E000
0003E000
0007F000
000FF800
001FFC00
003FFE00
003FFE00
007FFF00
00FFFF80
00FFFF80
01FFFFC0
01FFFFC0
03FFFFE0
03FFFFE0
03FFFFE0
03FFFFE0
03FFFFE0
03FFFFE0
03FFFFE0
01FFFFC0
00FDDF80
0001C000
0001C000
0007F000
0007F000
00000000
00000000
00000000
00000000
ENDCHAR

STARTCHAR kor_A2BD
ENCODING 41661
SWIDTH 1024 0
DWIDTH 32 0
BBX 32 32 0 -2
BITMAP
00000000
00000000
00000000
00000000
00000000
003E0F80
00FFBFE0
01FFFFF0
01E1F0F0
03C0E078
03800038
03800038
03800038
03800038
03C00078
01C00070
01E000F0
00E000E0
00F001E0
007803C0
00380380
003C0780
001E0F00
000F1E00
0007BC00
0003F800
0001F000
0000E000
00000000
00000000
00000000
00000000
ENDCHAR

STARTCHAR kor_A2BE
ENCODING 41662
SWIDTH 1024 0
DWIDTH 32 0
BBX 32 32 0 -2
BITMAP
00000000
00000000
00000000
00000000
00000000
003E0F80
00FFBFE0
01FFFFF0
01FFFFF0
03FFFFF8
03FFFFF8
03FFFFF8
03FFFFF8
03FFFFF8
03FFFFF8
01FFFFF0
01FFFFF0
00FFFFE0
00FFFFE0
007FFFC0
003FFF80
003FFF80
001FFF00
000FFE00
0007FC00
0003F800
0001F000
0000E000
00000000
00000000
00000000
00000000
ENDCHAR

STARTCHAR kor_A2BF
ENCODING 41663
SWIDTH 1024 0
DWIDTH 32 0
BBX 32 32 0 -2
BITMAP
00000000
00000000
00000000
0007F000
000FF800
001FFC00
001E3C00
001C1C00
001C1C00
001C1C00
001C1C00
001E3C00
000E3800
00F77780
01FF6FC0
03FF7FE0
03C001E0
038000E0
038000E0
0381C0E0
03C3E1E0
03FFFFE0
01FFFFC0
00FDDF80
0001C000
0001C000
0007F000
0007F000
00000000
00000000
00000000
00000000
ENDCHAR

STARTCHAR kor_A2C0
ENCODING 41664
SWIDTH 1024 0
DWIDTH 32 0
BBX 32 32 0 -2
BITMAP
00000000
00000000
00000000
0007F000
000FF800
001FFC00
001FFC00
001FFC00
001FFC00
001FFC00
001FFC00
001FFC00
000FF800
00F7F780
01FFEFC0
03FFFFE0
03FFFFE0
03FFFFE0
03FFFFE0
03FFFFE0
03FFFFE0
03FFFFE0
01FFFFC0
00FDDF80
0001C000
0001C000
0007F000
0007F000
00000000
00000000
00000000
00000000
ENDCHAR

STARTCHAR kor_A2C1
ENCODING 41665
SWIDTH 1024 0
DWIDTH 32 0
BBX 32 32 0 -2
BITMAP
00000000
00000000
00000000
00000000
00000000
0007FC00
001FFF00
003FFF80
007C07C0
00F001E0
01E000F0
01C00070
03C00078
0381F038
0383F838
0383F838
0383F838
0383F838
0383F838
0381F038
03C00078
01C00070
01E000F0
00F001E0
007C07C0
003FFF80
001FFF00
0007FC00
00000000
00000000
00000000
00000000
ENDCHAR

STARTCHAR kor_A2C2
ENCODING 41666
SWIDTH 1024 0
DWIDTH 32 0
BBX 32 32 0 -2
BITMAP
00000000
00000000
00000000
0001C000
0003E000
0007F000
000F7800
001E3C00
003C1E00
00780F00
00F1C780
01E3E3C0
03C7F1E0
078FF8F0
0F1FFC78
0E1FFC38
0F1FFC78
078FF8F0
03C7F1E0
01E3E3C0
00F1C780
00780F00
003C1E00
001E3C00
000F7800
0007F000
0003E000
0001C000
00000000
00000000
00000000
00000000
ENDCHAR

STARTCHAR kor_A2C3
ENCODING 41667
SWIDTH 1024 0
DWIDTH 32 0
BBX 32 32 0 -2
BITMAP
00000000
00000000
00000000
00000000
07FFFFF0
07FFFFF0
07FFFFF0
07000070
07000070
07000070
07000070
070FF870
070FF870
070FF870
070FF870
070FF870
070FF870
070FF870
070FF870
070FF870
07000070
07000070
07000070
07000070
07FFFFF0
07FFFFF0
07FFFFF0
00000000
00000000
00000000
00000000
00000000
ENDCHAR

STARTCHAR kor_A2C4
ENCODING 41668
SWIDTH 1024 0
DWIDTH 32 0
BBX 32 32 0 -2
BITMAP
00000000
00000000
00000000
00000000
00000000
0007FC00
001FFF00
003FFF80
007FC7C0
00FFC1E0
01FFC0F0
01FFC070
03FFC078
03FFC038
03FFC038
03FFC038
03FFC038
03FFC038
03FFC038
03FFC038
03FFC078
01FFC070
01FFC0F0
00FFC1E0
007FC7C0
003FFF80
001FFF00
0007FC00
00000000
00000000
00000000
00000000
ENDCHAR

STARTCHAR kor_A2C5
ENCODING 41669
SWIDTH 1024 0
DWIDTH 32 0
BBX 32 32 0 -2
BITMAP
00000000
00000000
00000000
00000000
00000000
0007FC00
001FFF00
003FFF80
007C7FC0
00F07FE0
01E07FF0
01C07FF0
03C07FF8
03807FF8
03807FF8
03807FF8
03807FF8
03807FF8
03807FF8
03807FF8
03C07FF8
01C07FF0
01E07FF0
00F07FE0
007C7FC0
003FFF80
001FFF00
0007FC00
00000000
00000000
00000000
00000000
ENDCHAR

STARTCHAR kor_A2C6
ENCODING 41670
SWIDTH 1024 0
DWIDTH 32 0
BBX 32 32 0 -2
BITMAP
7FFFFFFF
7FFFFFFF
60000001
61E1E1E1
61E1E1E1
61E1E1E1
7E1E1E1D
5E1E1E1D
5E1E1E1D
7E1E1E1D
61E1E1E1
61E1E1E1
61E1E1E1
61E1E1E1
7E1E1E1D
5E1E1E1D
5E1E1E1D
7E1E1E1D
61E1E1E1
61E1E1E1
61E1E1E1
61E1E1E1
7E1E1E1D
5E1E1E1D
5E1E1E1D
7E1E1E1D
61E1E1E1
61E1E1E1
61E1E1E1
61E1E1E1
7E1E1E1F
7FFFFFFF
ENDCHAR

STARTCHAR kor_A2C7
ENCODING 41671
SWIDTH 1024 0
DWIDTH 32 0
BBX 32 32 0 -2
BITMAP
FFFFFFFF
C0000003
C0000003
C0000003
C0000003
FFFFFFFF
FFFFFFFF
C0000003
C0000003
C0000003
C0000003
FFFFFFFF
FFFFFFFF
C0000003
C0000003
C0000003
C0000003
FFFFFFFF
FFFFFFFF
C0000003
C0000003
C0000003
C0000003
FFFFFFFF
FFFFFFFF
C0000003
C0000003
C0000003
C0000003
FFFFFFFF
FFFFFFFF
00000000
ENDCHAR

STARTCHAR kor_A2C8
ENCODING 41672
SWIDTH 1024 0
DWIDTH 32 0
BBX 32 32 0 -2
BITMAP
FFFFFFFF
C30C30C3
C30C30C3
C30C30C3
C30C30C3
C30C30C3
C30C30C3
C30C30C3
C30C30C3
C30C30C3
C30C30C3
C30C30C3
C30C30C3
C30C30C3
C30C30C3
C30C30C3
C30C30C3
C30C30C3
C30C30C3
C30C30C3
C30C30C3
C30C30C3
C30C30C3
C30C30C3
C30C30C3
C30C30C3
C30C30C3
C30C30C3
C30C30C3
FFFFFFFF
FFFFFFFF
00000000
ENDCHAR

STARTCHAR kor_A2C9
ENCODING 41673
SWIDTH 1024 0
DWIDTH 32 0
BBX 32 32 0 -2
BITMAP
FFFFFFFF
C700E01B
DE03C07B
FC0780F3
B80F01E3
F01E03C3
E03C0783
C0780F03
C0F01E03
C1E03C03
C3C07807
C780F00F
CF01E01F
DE03C03B
FC07807B
B80F00F3
F01E01E3
E03C03C3
C0780783
C0F00F03
C1E01E03
C3C03C03
C7807807
CF00F00F
DE01E01F
FC03C03B
B807807B
F00F00F3
E01E01E3
DFFDFFDF
FFFFFFFF
00000000
ENDCHAR

STARTCHAR kor_A2CA
ENCODING 41674
SWIDTH 1024 0
DWIDTH 32 0
BBX 32 32 0 -2
BITMAP
FFFFFFFF
E0070073
F803C03B
BC01E01F
DE00F00F
CF007807
C7803C03
C3C01E03
C1E00F03
C0F00783
C07803C3
C03C01E3
E01E00F3
F00F007B
F807803B
BC03C01F
DE01E00F
CF00F007
C7807803
C3C03C03
C1E01E03
C0F00F03
C0780783
C03C03C3
E01E01E3
F00F00F3
F807807B
BC03C03B
DE01E01F
EFFEFFEF
FFFFFFFF
00000000
ENDCHAR

STARTCHAR kor_A2CB
ENCODING 41675
SWIDTH 1024 0
DWIDTH 32 0
BBX 32 32 0 -2
BITMAP
7FFFFFFE
7FFFFFFE
60C18306
60C18306
60C18306
60C18306
60C18306
7FFFFFFE
7FFFFFFE
60C18306
60C18306
60C18306
60C18306
60C18306
7FFFFFFE
7FFFFFFE
60C18306
60C18306
60C18306
60C18306
60C18306
7FFFFFFE
7FFFFFFE
60C18306
60C18306
60C18306
60C18306
60C18306
7FFFFFFE
7FFFFFFE
00000000
00000000
ENDCHAR

STARTCHAR kor_A2CC
ENCODING 41676
SWIDTH 1024 0
DWIDTH 32 0
BBX 32 32 0 -2
BITMAP
FFFFFFFF
E1CE38E7
F787F07D
BF03E03D
DE01C07D
FF07F0EF
B78F79E7
F3DE3BC3
E1FC1F81
C0F80F01
C0701F81
C1FC3BC3
E3DE79E7
F78EF0EF
FF07E07D
BE03C03D
DC07E07D
BF0EF0EF
F79E79E7
E3BC3BC3
C1F81F81
C0F00F01
C1F81F81
C3BC3BC3
E79E79E7
EF0EF0EF
FE07E07D
BC03C03D
FE07E07D
EF0EF0EF
F7FF7FF7
FFFFFFFF
ENDCHAR

STARTCHAR kor_A2CD
ENCODING 41677
SWIDTH 1024 0
DWIDTH 32 0
BBX 32 32 0 -2
BITMAP
00000000
00000000
00003000
00007000
0006E300
000FC700
001DCE00
001B9C00
003B9C00
003B9C00
003B9C00
003BDE00
003DCE00
001DEE00
001CEF00
001EE700
006EF7C0
01EE76F0
01CE7770
038E7738
030E7618
030C7618
038C6638
03806038
01E000F0
01F803F0
00FFFFE0
003FFF80
0007FC00
00000000
00000000
00000000
ENDCHAR

STARTCHAR kor_A2CE
ENCODING 41678
SWIDTH 1024 0
DWIDTH 32 0
BBX 32 32 0 -2
BITMAP
00000000
00000000
00000000
007FFE00
03FFFFC0
0FC003F0
1E3FFC78
18FFFF18
39CC339C
338C31CC
330C30CC
3F0C30FC
3F0FF0FC
001FF800
003C3C00
00781E00
00D81700
01D81B80
039819C0
071C38E0
060FF060
0E07E070
0C000030
0C7FFF30
0C7FFF30
0FE003F0
0FE003F0
00000000
00000000
00000000
00000000
00000000
ENDCHAR

STARTCHAR kor_A2CF
ENCODING 41679
SWIDTH 1024 0
DWIDTH 32 0
BBX 32 32 0 -2
BITMAP
00000000
00000000
00000000
007FFE00
03FFFFC0
0FFFFFF0
1FFFFFF8
1FFFFFF8
3FDC3BFC
3F9C39FC
3F1C38FC
3F1C38FC
3F1FF8FC
001FF800
003C3C00
00781E00
00F81F00
01F81F80
03F81FC0
07FC3FE0
07FFFFE0
0FFFFFF0
0FFFFFF0
0FFFFFF0
0FFFFFF0
0FC003F0
0FC003F0
00000000
00000000
00000000
00000000
00000000
ENDCHAR

STARTCHAR kor_A2D0
ENCODING 41680
SWIDTH 1024 0
DWIDTH 32 0
BBX 32 32 0 -2
BITMAP
00000000
00000000
00000000
00000000
00000000
00000000
00000000
00000000
0000001F
1FFFFF9F
3FFFFFF9
300000F9
3FFF8019
1FFF8019
00180019
001F8019
000F8019
00180019
001FC019
000FC0F9
000C03F9
000FFF99
0007FE1F
0000001F
00000000
00000000
00000000
00000000
00000000
00000000
00000000
00000000
ENDCHAR

STARTCHAR kor_A2D1
ENCODING 41681
SWIDTH 1024 0
DWIDTH 32 0
BBX 32 32 0 -2
BITMAP
00000000
00000000
00000000
00000000
00000000
00000000
00000000
00000000
3F000000
3F3FFFFF
33FFFFFF
33E00001
33007FFF
33007FFF
33000300
33007F00
33007E00
33000300
3300FF00
33E0FE00
33F80600
333FFE00
3F0FFC00
3F000000
00000000
00000000
00000000
00000000
00000000
00000000
00000000
00000000
ENDCHAR

STARTCHAR kor_A2D2
ENCODING 41682
SWIDTH 1024 0
DWIDTH 32 0
BBX 32 32 0 -2
BITMAP
00000000
00000000
00000000
00000000
00000000
001FF380
007FF380
00FFF380
00F07380
01E07380
01C07380
01C07380
01C07380
01E07380
00F07380
00FFF380
007FF380
001FF380
00007380
00007380
00007380
00007380
00007380
00007380
00007380
00007380
00007380
00007380
00000000
00000000
00000000
00000000
ENDCHAR

STARTCHAR kor_A2D3
ENCODING 41683
SWIDTH 1024 0
DWIDTH 32 0
BBX 32 32 0 -2
BITMAP
00000000
00038000
00038000
00038000
00038000
00038000
00038000
00038000
00038000
00FFFE00
00FFFE00
00FFFE00
00038000
00038000
00038000
00038000
00038000
00038000
00038000
00038000
00038000
00038000
00038000
00038000
00038000
00038000
00038000
00038000
00000000
00000000
00000000
00000000
ENDCHAR

STARTCHAR kor_A2D4
ENCODING 41684
SWIDTH 1024 0
DWIDTH 32 0
BBX 32 32 0 -2
BITMAP
00000000
00038000
00038000
00038000
00038000
00038000
00038000
00FFFE00
00FFFE00
00FFFE00
00038000
00038000
00038000
007FFC00
007FFC00
007FFC00
00038000
00038000
00038000
00038000
00038000
00038000
00038000
00038000
00038000
00038000
00038000
00038000
00000000
00000000
00000000
00000000
ENDCHAR

STARTCHAR kor_A2D5
ENCODING 41685
SWIDTH 1024 0
DWIDTH 32 0
BBX 32 32 0 -2
BITMAP
00000000
00038000
0007C000
000FE000
001FF000
001FF000
00038000
00038000
00038000
00038000
00038000
00038000
00038000
00038000
00038000
00038000
00038000
00038000
00038000
00038000
00038000
00038000
00038000
00038000
00038000
001FF000
001FF000
000FE000
0007C000
00038000
00000000
00000000
ENDCHAR

STARTCHAR kor_A2D6
ENCODING 41686
SWIDTH 1024 0
DWIDTH 32 0
BBX 32 32 0 -2
BITMAP
00000000
00000000
00000000
00000000
00000000
00000FE0
00000FE0
000000E0
000003E0
00000760
00000F60
00001E60
00003C00
00007800
0000F000
0001E000
0003C000
00078000
000F0000
001E0000
003C0000
00780000
00F00000
01E00000
03C00000
03800000
00000000
00000000
00000000
00000000
00000000
00000000
ENDCHAR

STARTCHAR kor_A2D7
ENCODING 41687
SWIDTH 1024 0
DWIDTH 32 0
BBX 32 32 0 -2
BITMAP
00000000
00000000
00000000
00000000
00000000
00000060
000000E0
000001C0
00000380
00000700
00000E00
00001C00
00003800
00007000
0000E000
0001C000
00038000
00070000
000E0000
031C0000
03380000
03700000
03E00000
02C00000
03B80000
03F80000
00000000
00000000
00000000
00000000
00000000
00000000
ENDCHAR

STARTCHAR kor_A2D8
ENCODING 41688
SWIDTH 1024 0
DWIDTH 32 0
BBX 32 32 0 -2
BITMAP
00000000
00000000
00000000
00000000
00000000
03F80000
03F80000
03800000
02E00000
03700000
03380000
031C0000
000E0000
00070000
00038000
0001C000
0000E000
00007000
00003800
00001C00
00000E00
00000700
00000380
000001C0
000000C0
00000000
00000000
00000000
00000000
00000000
00000000
00000000
ENDCHAR

STARTCHAR kor_A2D9
ENCODING 41689
SWIDTH 1024 0
DWIDTH 32 0
BBX 32 32 0 -2
BITMAP
00000000
00000000
00000000
00000000
00000000
00C00000
00E00000
00700000
00380000
001C0000
000E0000
00070000
00038000
0001C000
0000E000
00007000
00003800
00001C60
00000E60
00000760
00000360
000001E0
00000EE0
00000FE0
00000000
00000000
00000000
00000000
00000000
00000000
00000000
00000000
ENDCHAR

STARTCHAR kor_A2DA
ENCODING 41690
SWIDTH 1024 0
DWIDTH 32 0
BBX 32 32 0 -2
BITMAP
00000000
00000000
00000000
000E0000
000E0000
000E0000
000E0000
000E0000
000E0000
000E0000
000E0000
000E0000
000E0000
000FF800
000DFC00
000FFE00
000F1E00
000E0E00
000E0E00
000E1E00
000E1C00
000E3C00
000EF800
000FF000
000FE000
000F8000
00000000
00000000
00000000
00000000
00000000
00000000
ENDCHAR

STARTCHAR kor_A2DB
ENCODING 41691
SWIDTH 1024 0
DWIDTH 32 0
BBX 32 32 0 -2
BITMAP
00000000
00003800
00003800
00003800
00003800
00003800
00003800
00003800
00003800
00003800
00003800
00003800
00003800
00003800
00003800
00003800
00003800
00003800
00003800
00003800
00003800
0001F800
0007F800
000FF800
001FF000
001FF000
003FE000
003FC000
001F0000
00000000
00000000
00000000
ENDCHAR

STARTCHAR kor_A2DC
ENCODING 41692
SWIDTH 1024 0
DWIDTH 32 0
BBX 32 32 0 -2
BITMAP
00000000
00038000
00038000
00038000
0003C000
0003C000
0003E000
0003F000
00037800
0003BC00
00039E00
00038F00
00038700
00038780
00038380
00038380
00038380
00038780
00038F00
00038E00
00038000
000F8000
003F8000
007F8000
00FF8000
00FF0000
01FF0000
01FE0000
01FC0000
01F00000
00000000
00000000
ENDCHAR

STARTCHAR kor_A2DD
ENCODING 41693
SWIDTH 1024 0
DWIDTH 32 0
BBX 32 32 0 -2
BITMAP
00000000
00000000
00000000
000FFFF0
000FFFF0
000FFFF0
000E0070
000E0070
000E0070
000FFFF0
000FFFF0
000FFFF0
000E0070
000E0070
000E0070
000E0070
000E0070
000E0070
000E0070
000E0070
000E0070
000E0070
007E03F0
01FE0FF0
01FC0FF0
03FC1FE0
03FC1FE0
03F81FC0
03E01E00
00000000
00000000
00000000
ENDCHAR

STARTCHAR kor_A2DE
ENCODING 41694
SWIDTH 1024 0
DWIDTH 32 0
BBX 32 32 0 -2
BITMAP
00000000
00000000
00000000
000FF800
003FFE00
00FC1F80
01F007C0
03C001E0
038000F0
070E0E70
070E1E38
0E0E3C38
0E0E7800
0C0EF000
0C0FE000
0FEDC3F8
0FEFE3F8
000EF018
000E7018
000E7838
0E0E3838
0E0E3C70
070E1C70
078E1CE0
03C001E0
01F007C0
00FC1F80
003FFE00
000FF800
00000000
00000000
00000000
ENDCHAR

STARTCHAR kor_A2DF
ENCODING 41695
SWIDTH 1024 0
DWIDTH 32 0
BBX 32 32 0 -2
BITMAP
00000000
07000070
07000070
0F000078
0E000038
1EFFFFBC
1CFFFF9C
3CFFFF9E
3801C00E
3807F00E
781F7C0F
70FF7F87
70FC1F87
70F00787
70000007
70000007
71FFFFC7
71FFFFC7
71FFFFC7
7001C007
7801C00F
3801C00E
3801C00E
3C01C01E
1C01C01C
1E01C03C
0E01C038
0F01C078
07000070
07000070
00000000
00000000
ENDCHAR

STARTCHAR kor_A2E0
ENCODING 41696
SWIDTH 1024 0
DWIDTH 32 0
BBX 32 32 0 -2
BITMAP
00000000
1C070000
1C070000
1E070000
1E070000
1F070000
1F070000
1F870000
1B870000
1FC70E00
1DC73F80
1DE73F80
1CE77BC0
1CF771C0
1C7771C0
1C7771C0
1C3771C0
1C3F71C0
1C1F71C0
1C1F71C0
1C0F7BC0
1C0F3F9C
1C073F9C
1C070E1C
00000000
00000000
00000000
00000000
00000000
00000000
00000000
00000000
ENDCHAR

STARTCHAR kor_A2E1
ENCODING 41697
SWIDTH 1024 0
DWIDTH 32 0
BBX 32 32 0 -2
BITMAP
00000000
01F00000
07FC0000
0FFE0000
1F1F0000
1C070000
3C070000
38000000
38000000
38000E00
38003F80
38003F80
38007BC0
380071C0
380071C0
380071C0
380071C0
3C0071C0
3C0771C0
1E0771C0
1F0F7BC0
0FFF3F9C
07FE3F9C
01F80E1C
00000000
00000000
00000000
00000000
00000000
00000000
00000000
00000000
ENDCHAR

STARTCHAR kor_A2E2
ENCODING 41698
SWIDTH 1024 0
DWIDTH 32 0
BBX 32 32 0 -2
BITMAP
00000000
7FF7801E
7FF7801E
7FF7801E
0707C03E
0707C03E
0707C03E
0706E06E
0706E06E
0707E06E
070770EE
070770EE
070770EE
070739CE
070739CE
070739CE
07071B8E
07071B8E
07071B8E
07070F0E
07070F0E
07070F0E
0707060E
0707060E
00000000
00000000
00000000
00000000
00000000
00000000
00000000
00000000
ENDCHAR

STARTCHAR kor_A2E3
ENCODING 41699
SWIDTH 1024 0
DWIDTH 32 0
BBX 32 32 0 -2
BITMAP
00000000
00000000
00000000
00000000
00000000
00000000
00000000
00000000
00000000
0F01FFC0
1F83FFE0
3FC39CE0
39C39CE0
07C39CE0
1FC39CE0
3FC39CE0
3DC39CE0
39C39CE0
39C39CE0
39C39CE0
3DC39CE0
3FFB9CEE
1FBB9CEE
0FBB9CEE
00000000
00000000
00000000
00000000
00000000
00000000
00000000
00000000
ENDCHAR

STARTCHAR kor_A2E4
ENCODING 41700
SWIDTH 1024 0
DWIDTH 32 0
BBX 32 32 0 -2
BITMAP
00000000
00000000
00000000
00000000
00000000
00000000
00000000
00000000
00000000
3F01F7C0
3FC3FFE0
3FC3FFE0
39E39CE0
38E39CE0
38E39CE0
38E39CE0
38E39CE0
38E39CE0
38E39CE0
38E39CE0
39E39CE0
3FDB9CEE
3FBB9CEE
3F3B9CEE
38000000
38000000
38000000
38000000
38000000
38000000
00000000
00000000
ENDCHAR

STARTCHAR kor_A2E5
ENCODING 41701
SWIDTH 1024 0
DWIDTH 32 0
BBX 32 32 0 -2
BITMAP
00000000
3FFF8038
3FFF8038
3FFF8038
00E00038
00E00038
00E00038
00E00038
00E00038
00E00038
00E00038
00E0FC38
00E1FE38
00E3FF38
00E3CF38
00E38738
00E3FF38
00E3FF38
00E3FF38
00E38038
00E3C738
00E3FF38
00E1FF38
00E0FE38
00000000
00000000
00000000
00000000
00000000
00000000
00000000
00000000
ENDCHAR

STARTCHAR default_char
ENCODING 41702
SWIDTH 32 0
DWIDTH 32 0
BBX 32 32 0 -2
BITMAP
00000000
00000000
20000004
00000000
00000000
00000000
00000000
00000000
00000000
00000000
00000000
00000000
00000000
00000000
00000000
00000000
00000000
00000000
00000000
00000000
00000000
00000000
00000000
00000000
00000000
00000000
00000000
00000000
00000000
20000004
00000000
00000000
ENDCHAR

STARTCHAR kor_A3A1
ENCODING 41889
SWIDTH 1024 0
DWIDTH 32 0
BBX 32 32 0 -2
BITMAP
00000000
00000000
00000000
00038000
00038000
0007C000
0007C000
0007C000
0007C000
0007C000
0007C000
0007C000
0007C000
0007C000
0007C000
0007C000
00038000
00038000
00038000
00038000
00038000
00038000
00000000
00038000
0007C000
0007C000
0007C000
00038000
00000000
00000000
00000000
00000000
ENDCHAR

STARTCHAR kor_A3A2
ENCODING 41890
SWIDTH 1024 0
DWIDTH 32 0
BBX 32 32 0 -2
BITMAP
00000000
000F3C00
000F3C00
000F3C00
000F3C00
000E3800
001E7800
001E7800
001C7000
001C7000
0038E000
0038E000
0030C000
00000000
00000000
00000000
00000000
00000000
00000000
00000000
00000000
00000000
00000000
00000000
00000000
00000000
00000000
00000000
00000000
00000000
00000000
00000000
ENDCHAR

STARTCHAR kor_A3A3
ENCODING 41891
SWIDTH 1024 0
DWIDTH 32 0
BBX 32 32 0 -2
BITMAP
00000000
00000000
00380E00
00380E00
00380E00
00380E00
00380FF0
0038FFF0
003FFFF0
07FFFFF0
07FFFE00
07FF8E00
07F80E00
00380E00
00380E00
00380E00
00380FF0
0038FFF0
003FFFF0
07FFFFF0
07FFFE00
07FF8E00
07F80E00
00380E00
00380E00
00380E00
00380E00
00380E00
00380E00
00000000
00000000
00000000
ENDCHAR

STARTCHAR kor_A3A4
ENCODING 41892
SWIDTH 1024 0
DWIDTH 32 0
BBX 32 32 0 -2
BITMAP
00066000
00066000
00066000
001FF000
007FFC00
00FE7E00
00F66F00
01E66780
01E66380
01E66380
01F66000
00FE6000
00FFE000
007FF800
001FFE00
0005FF00
00067F00
00066F80
00066F80
03866780
03866780
03C66780
01C66F80
01E66F00
00F67F00
007E5E00
003FFC00
000FF000
00066000
00066000
00066000
00066000
ENDCHAR

STARTCHAR kor_A3A5
ENCODING 41893
SWIDTH 1024 0
DWIDTH 32 0
BBX 32 32 0 -2
BITMAP
00000000
00000000
00000000
00001C00
00781C00
00FC3C00
01FE3800
01EE3800
03CE7800
03CE7000
038E7000
039EF000
039EE000
03BCE000
03FDE000
01F9C780
00F1CFC0
0003DFE0
00039EE0
0003BCE0
0007BCE0
000738E0
000739E0
000F39E0
000E3BC0
000E3FC0
001E1F80
001C0F00
001C0000
00000000
00000000
00000000
ENDCHAR

STARTCHAR kor_A3A6
ENCODING 41894
SWIDTH 1024 0
DWIDTH 32 0
BBX 32 32 0 -2
BITMAP
00000000
00000000
00000000
001F8000
007FC000
007FE000
00F1E000
00E0E000
00E0E000
00E1E000
00F1E000
00F3C000
0077C000
007F8700
003F0700
007E0700
00FF8700
01F7CF00
01E3EE00
03C1FE00
03C0FE00
03807C00
03803F80
0380FFF0
03E3F7F0
03FFE1F0
01FFC000
007F0000
00000000
00000000
00000000
00000000
ENDCHAR

STARTCHAR kor_A3A7
ENCODING 41895
SWIDTH 1024 0
DWIDTH 32 0
BBX 32 32 0 -2
BITMAP
00000000
00000000
00000000
0003C000
0003C000
0003C000
0003C000
0003C000
00038000
00038000
00038000
00038000
00000000
00000000
00000000
00000000
00000000
00000000
00000000
00000000
00000000
00000000
00000000
00000000
00000000
00000000
00000000
00000000
00000000
00000000
00000000
00000000
ENDCHAR

STARTCHAR kor_A3A8
ENCODING 41896
SWIDTH 1024 0
DWIDTH 32 0
BBX 32 32 0 -2
BITMAP
00000000
0000000C
0000001C
0000001C
00000038
00000038
00000070
00000070
000000E0
000000E0
000000E0
000001C0
000001C0
000001C0
000001C0
000001C0
000001C0
000001C0
000001C0
000001C0
000001E0
000000E0
000000E0
000000E0
00000070
00000070
00000038
0000003C
0000001C
0000000C
00000000
00000000
ENDCHAR

STARTCHAR kor_A3A9
ENCODING 41897
SWIDTH 1024 0
DWIDTH 32 0
BBX 32 32 0 -2
BITMAP
00000000
18000000
1C000000
0E000000
0E000000
07000000
07000000
03800000
03800000
03800000
03C00000
01C00000
01C00000
01C00000
01C00000
01C00000
01C00000
01C00000
01C00000
01C00000
03C00000
03800000
03800000
03800000
07000000
07000000
0E000000
0E000000
1C000000
18000000
00000000
00000000
ENDCHAR

STARTCHAR kor_A3AA
ENCODING 41898
SWIDTH 1024 0
DWIDTH 32 0
BBX 32 32 0 -2
BITMAP
00000000
00000000
00000000
00000000
00000000
00000000
00000000
00000000
00038000
00339800
007BBC00
007BFC00
003F7800
001FF000
000FE000
0007C000
001FF000
003FF800
007B7C00
007BBC00
00339800
00038000
00000000
00000000
00000000
00000000
00000000
00000000
00000000
00000000
00000000
00000000
ENDCHAR

STARTCHAR kor_A3AB
ENCODING 41899
SWIDTH 1024 0
DWIDTH 32 0
BBX 32 32 0 -2
BITMAP
00000000
00000000
00000000
00000000
00000000
0001C000
0001C000
0001C000
0001C000
0001C000
0001C000
0001C000
0001C000
0001C000
03FFFFE0
03FFFFE0
03FFFFE0
0001C000
0001C000
0001C000
0001C000
0001C000
0001C000
0001C000
0001C000
0001C000
00000000
00000000
00000000
00000000
00000000
00000000
ENDCHAR

STARTCHAR kor_A3AC
ENCODING 41900
SWIDTH 1024 0
DWIDTH 32 0
BBX 32 32 0 -2
BITMAP
00000000
00000000
00000000
00000000
00000000
00000000
00000000
00000000
00000000
00000000
00000000
00000000
00000000
00000000
00000000
00000000
00000000
00000000
00000000
00000000
00000000
00000000
0000E000
0001F000
0001F000
0001F000
0000F000
00003000
00006000
0001E000
0001C000
00000000
ENDCHAR

STARTCHAR kor_A3AD
ENCODING 41901
SWIDTH 1024 0
DWIDTH 32 0
BBX 32 32 0 -2
BITMAP
00000000
00000000
00000000
00000000
00000000
00000000
00000000
00000000
00000000
00000000
00000000
00000000
00000000
00000000
03FFFFE0
03FFFFE0
03FFFFE0
00000000
00000000
00000000
00000000
00000000
00000000
00000000
00000000
00000000
00000000
00000000
00000000
00000000
00000000
00000000
ENDCHAR

STARTCHAR kor_A3AE
ENCODING 41902
SWIDTH 1024 0
DWIDTH 32 0
BBX 32 32 0 -2
BITMAP
00000000
00000000
00000000
00000000
00000000
00000000
00000000
00000000
00000000
00000000
00000000
00000000
00000000
00000000
00000000
00000000
00000000
00000000
00000000
00000000
00000000
00000000
0000E000
0001F000
0001F000
0001F000
0000E000
00000000
00000000
00000000
00000000
00000000
ENDCHAR

STARTCHAR kor_A3AF
ENCODING 41903
SWIDTH 1024 0
DWIDTH 32 0
BBX 32 32 0 -2
BITMAP
00000000
00000000
00000000
00000038
00000038
000000F8
000000F8
000003E0
000003E0
00000F80
00000F80
00003E00
00003E00
0000F800
0000F800
0003E000
0003E000
000F8000
000F8000
003E0000
003E0000
00F80000
00F80000
03E00000
03E00000
0F800000
0F800000
0E000000
0E000000
00000000
00000000
00000000
ENDCHAR

STARTCHAR kor_A3B0
ENCODING 41904
SWIDTH 1024 0
DWIDTH 32 0
BBX 32 32 0 -2
BITMAP
00000000
00000000
00000000
0003E000
000FF800
001FFC00
001E3C00
003C1E00
00380E00
00380E00
00700700
00700700
00700700
00700700
00700700
00700700
00700700
00700700
00700700
00700700
00700F00
00380E00
00380E00
003C1E00
001E3C00
001FFC00
000FF800
0003E000
00000000
00000000
00000000
00000000
ENDCHAR

STARTCHAR kor_A3B1
ENCODING 41905
SWIDTH 1024 0
DWIDTH 32 0
BBX 32 32 0 -2
BITMAP
00000000
00000000
00000000
0001E000
0001E000
0001E000
0001E000
0001E000
0001E000
0001E000
0001E000
0001E000
0001E000
0001E000
0001E000
0001E000
0001E000
0001E000
0001E000
0001E000
0001E000
0001E000
0001E000
0001E000
0001E000
0001E000
0001E000
0001E000
00000000
00000000
00000000
00000000
ENDCHAR

STARTCHAR kor_A3B2
ENCODING 41906
SWIDTH 1024 0
DWIDTH 32 0
BBX 32 32 0 -2
BITMAP
00000000
00000000
00000000
000FF000
001FFC00
003C3E00
00381E00
00780F00
00700F00
00700F00
00700F00
00001F00
00001E00
00003E00
00007C00
0000F800
0001F000
0003E000
0007C000
000F8000
000F0000
001E0000
001C0000
003C0000
00380000
003FFF00
003FFF00
003FFF00
00000000
00000000
00000000
00000000
ENDCHAR

STARTCHAR kor_A3B3
ENCODING 41907
SWIDTH 1024 0
DWIDTH 32 0
BBX 32 32 0 -2
BITMAP
00000000
00000000
00000000
0007E000
001FF800
003FFC00
007C3C00
00781E00
00700E00
00700E00
00001E00
00001C00
00003C00
0007F800
0007F000
0007FC00
00001E00
00000E00
00000F00
00000700
00000700
00700700
00700F00
00780E00
003C3E00
003FFC00
001FF800
0007E000
00000000
00000000
00000000
00000000
ENDCHAR

STARTCHAR kor_A3B4
ENCODING 41908
SWIDTH 1024 0
DWIDTH 32 0
BBX 32 32 0 -2
BITMAP
00000000
00000000
00000000
00003800
00007800
00007800
0000F800
0000F800
0001F800
0001B800
0003B800
0007B800
0007B800
000F3800
000E3800
001E3800
003C3800
003C3800
00783800
00783800
00F03800
00EFFF80
00FFFF80
00FFFF80
00003800
00003800
00003800
00003800
00003800
00000000
00000000
00000000
ENDCHAR

STARTCHAR kor_A3B5
ENCODING 41909
SWIDTH 1024 0
DWIDTH 32 0
BBX 32 32 0 -2
BITMAP
00000000
00000000
00000000
007FFE00
007FFE00
007FFE00
00700000
00700000
00700000
00700000
00700000
00700000
0077E000
007FF800
007FFC00
00783E00
00001E00
00000F00
00000F00
00000700
00000700
00700700
00700700
00780F00
00780E00
003C3E00
003FFC00
001FF800
000FE000
00000000
00000000
00000000
ENDCHAR

STARTCHAR kor_A3B6
ENCODING 41910
SWIDTH 1024 0
DWIDTH 32 0
BBX 32 32 0 -2
BITMAP
00000000
00000000
00000000
0003F000
000FFC00
001FFE00
001E1E00
003C0F00
00380700
00380700
00700700
00700000
00700000
0071F000
0077FC00
007FFE00
006F1E00
007C0F00
00780700
00780700
00700700
00780700
00380700
003C0F00
001E1E00
001FFE00
000FFC00
0003F000
00000000
00000000
00000000
00000000
ENDCHAR

STARTCHAR kor_A3B7
ENCODING 41911
SWIDTH 1024 0
DWIDTH 32 0
BBX 32 32 0 -2
BITMAP
00000000
00000000
00000000
003FFF80
003FFF80
003FFF80
00380380
00380780
00380700
00000F00
00000E00
00000E00
00001E00
00001C00
00001C00
00003C00
00003800
00003800
00003800
00007800
00007000
00007000
00007000
0000F000
0000E000
0000E000
0000E000
0000E000
00000000
00000000
00000000
00000000
ENDCHAR

STARTCHAR kor_A3B8
ENCODING 41912
SWIDTH 1024 0
DWIDTH 32 0
BBX 32 32 0 -2
BITMAP
00000000
00000000
00000000
0007C000
001FF000
003FF800
003C7800
00783C00
00701C00
00701C00
00701C00
00781C00
00383800
003EF800
001FF000
002FE800
007EFC00
00783C00
00F01E00
00F01E00
00E00E00
00E00E00
00F01E00
00F01E00
00783C00
007FFC00
003FF800
000FE000
00000000
00000000
00000000
00000000
ENDCHAR

STARTCHAR kor_A3B9
ENCODING 41913
SWIDTH 1024 0
DWIDTH 32 0
BBX 32 32 0 -2
BITMAP
00000000
00000000
00000000
000FC000
003FF000
007FF800
00787800
00F03C00
00F01C00
00E01C00
00E01C00
00E01C00
00F01C00
00F03C00
0078FC00
007FFC00
003FDC00
000F9C00
00001C00
00001C00
00001C00
00E01C00
00E03C00
00F03C00
00787800
007FF800
003FF000
000FC000
00000000
00000000
00000000
00000000
ENDCHAR

STARTCHAR kor_A3BA
ENCODING 41914
SWIDTH 1024 0
DWIDTH 32 0
BBX 32 32 0 -2
BITMAP
00000000
00000000
00000000
00000000
00000000
00000000
0001C000
0003E000
0003E000
0003E000
0001C000
00000000
00000000
00000000
00000000
00000000
00000000
00000000
00000000
00000000
00000000
00000000
0001C000
0003E000
0003E000
0003E000
0001C000
00000000
00000000
00000000
00000000
00000000
ENDCHAR

STARTCHAR kor_A3BB
ENCODING 41915
SWIDTH 1024 0
DWIDTH 32 0
BBX 32 32 0 -2
BITMAP
00000000
00000000
00000000
00000000
00000000
00000000
0001C000
0003E000
0003E000
0003E000
0001C000
00000000
00000000
00000000
00000000
00000000
00000000
00000000
00000000
00000000
00000000
00000000
0001C000
0003E000
0003E000
0003E000
0001E000
00006000
0000E000
0003C000
00038000
00000000
ENDCHAR

STARTCHAR kor_A3BC
ENCODING 41916
SWIDTH 1024 0
DWIDTH 32 0
BBX 32 32 0 -2
BITMAP
00000000
00000000
00000000
00000000
00000000
00000000
00000000
00000000
000003C0
00000FC0
00007FC0
0001FF00
000FF800
003FE000
01FF0000
07FC0000
07E00000
07FC0000
01FF0000
003FE000
000FF800
0001FF00
00007FC0
00000FC0
000003C0
00000000
00000000
00000000
00000000
00000000
00000000
00000000
ENDCHAR

STARTCHAR kor_A3BD
ENCODING 41917
SWIDTH 1024 0
DWIDTH 32 0
BBX 32 32 0 -2
BITMAP
00000000
00000000
00000000
00000000
00000000
00000000
00000000
00000000
00000000
00000000
03FFFFE0
03FFFFE0
03FFFFE0
00000000
00000000
00000000
00000000
00000000
03FFFFE0
03FFFFE0
03FFFFE0
00000000
00000000
00000000
00000000
00000000
00000000
00000000
00000000
00000000
00000000
00000000
ENDCHAR

STARTCHAR kor_A3BE
ENCODING 41918
SWIDTH 1024 0
DWIDTH 32 0
BBX 32 32 0 -2
BITMAP
00000000
00000000
00000000
00000000
00000000
00000000
00000000
00000000
07800000
07E00000
07FC0000
01FF0000
003FE000
000FF800
0001FF00
00007FC0
00000FC0
00007FC0
0001FF00
000FF800
003FE000
01FF0000
07FC0000
07E00000
07800000
00000000
00000000
00000000
00000000
00000000
00000000
00000000
ENDCHAR

STARTCHAR kor_A3BF
ENCODING 41919
SWIDTH 1024 0
DWIDTH 32 0
BBX 32 32 0 -2
BITMAP
00000000
000FE000
003FF800
007FFC00
00783C00
00F01E00
00E00E00
00E00E00
00E00E00
00001C00
00001C00
00003800
00007800
0000F000
0000E000
0001C000
0001C000
00038000
00038000
00038000
00038000
00000000
00000000
0007C000
0007C000
0007C000
0007C000
0007C000
00000000
00000000
00000000
00000000
ENDCHAR

STARTCHAR kor_A3C0
ENCODING 41920
SWIDTH 1024 0
DWIDTH 32 0
BBX 32 32 0 -2
BITMAP
00000000
00000000
00000000
000FFC00
003FFF00
00FFFF80
01F003C0
03C001C0
038000E0
0783DCE0
070FFC70
0F0E3C70
0E1C1C70
0E1C1C70
0E1C1C70
0E1C1C70
0E1C1C70
0E1C1CE0
0E1C1CE0
0F1E3FC0
070FFBC0
0783EF00
03800000
03C00000
01F003C0
00FFFFC0
003FFFC0
000FFE00
00000000
00000000
00000000
00000000
ENDCHAR

STARTCHAR kor_A3C1
ENCODING 41921
SWIDTH 1024 0
DWIDTH 32 0
BBX 32 32 0 -2
BITMAP
00000000
00000000
0003C000
0003C000
0003C000
0003E000
0007E000
0007E000
0006F000
000EF000
000E7000
000E7000
001E7800
001C3800
001C3800
003C3C00
00381C00
003FFC00
007FFE00
007FFE00
00700E00
00F00F00
00F00F00
00E00700
01E00780
01E00780
01C00380
01C00380
00000000
00000000
00000000
00000000
ENDCHAR

STARTCHAR kor_A3C2
ENCODING 41922
SWIDTH 1024 0
DWIDTH 32 0
BBX 32 32 0 -2
BITMAP
00000000
00000000
00000000
00FFFC00
00FFFF00
00FFFF80
00E00F80
00E003C0
00E001C0
00E001C0
00E001C0
00E00380
00E01F80
00FFFF00
00FFFE80
00FFFFC0
00E007C0
00E001E0
00E000E0
00E000E0
00E000E0
00E000E0
00E000E0
00E001E0
00E007C0
00FFFFC0
00FFFF80
00FFFE00
00000000
00000000
00000000
00000000
ENDCHAR

STARTCHAR kor_A3C3
ENCODING 41923
SWIDTH 1024 0
DWIDTH 32 0
BBX 32 32 0 -2
BITMAP
00000000
00000000
00000000
000FFC00
003FFF00
007FFF80
00FC0FC0
00F003E0
01E001E0
01C000E0
03C000E0
03800000
07800000
07000000
07000000
07000000
07000000
07000000
07000000
078000E0
038000E0
03C000E0
01E001E0
01F003C0
00FC0FC0
007FFF80
003FFF00
000FFC00
00000000
00000000
00000000
00000000
ENDCHAR

STARTCHAR kor_A3C4
ENCODING 41924
SWIDTH 1024 0
DWIDTH 32 0
BBX 32 32 0 -2
BITMAP
00000000
00000000
00000000
01FFF000
01FFFC00
01FFFF00
01C01F80
01C007C0
01C001C0
01C001E0
01C000E0
01C000F0
01C00070
01C00070
01C00070
01C00070
01C00070
01C00070
01C00070
01C000F0
01C000E0
01C001E0
01C003C0
01C007C0
01C01F80
01FFFF00
01FFFC00
01FFF000
00000000
00000000
00000000
00000000
ENDCHAR

STARTCHAR kor_A3C5
ENCODING 41925
SWIDTH 1024 0
DWIDTH 32 0
BBX 32 32 0 -2
BITMAP
00000000
00000000
00000000
00FFFF80
00FFFF80
00FFFF80
00E00000
00E00000
00E00000
00E00000
00E00000
00E00000
00E00000
00FFFF80
00FFFF80
00FFFF80
00E00000
00E00000
00E00000
00E00000
00E00000
00E00000
00E00000
00E00000
00FFFF80
00FFFF80
00FFFF80
00000000
00000000
00000000
00000000
00000000
ENDCHAR

STARTCHAR kor_A3C6
ENCODING 41926
SWIDTH 1024 0
DWIDTH 32 0
BBX 32 32 0 -2
BITMAP
00000000
00000000
00000000
007FFFC0
007FFFC0
007FFFC0
00700000
00700000
00700000
00700000
00700000
00700000
00700000
007FFFC0
007FFFC0
007FFFC0
00700000
00700000
00700000
00700000
00700000
00700000
00700000
00700000
00700000
00700000
00700000
00700000
00000000
00000000
00000000
00000000
ENDCHAR

STARTCHAR kor_A3C7
ENCODING 41927
SWIDTH 1024 0
DWIDTH 32 0
BBX 32 32 0 -2
BITMAP
00000000
00000000
00000000
000FF800
003FFE00
00FFFF00
01F00F80
03C003C0
03C001C0
078001C0
078001C0
0F000000
0F000000
0E000000
0E000000
0E003F80
0E003F80
0E003F80
0F000380
0F000380
07000380
07800380
03C00380
03E00380
01F80780
00FFFF80
003FFF80
000FFB80
00000000
00000000
00000000
00000000
ENDCHAR

STARTCHAR kor_A3C8
ENCODING 41928
SWIDTH 1024 0
DWIDTH 32 0
BBX 32 32 0 -2
BITMAP
00000000
00000000
00000000
01C001C0
01C001C0
01C001C0
01C001C0
01C001C0
01C001C0
01C001C0
01C001C0
01C001C0
01C001C0
01C001C0
01FFFFC0
01FFFFC0
01FFFFC0
01C001C0
01C001C0
01C001C0
01C001C0
01C001C0
01C001C0
01C001C0
01C001C0
01C001C0
01C001C0
01C001C0
01C001C0
00000000
00000000
00000000
ENDCHAR

STARTCHAR kor_A3C9
ENCODING 41929
SWIDTH 1024 0
DWIDTH 32 0
BBX 32 32 0 -2
BITMAP
00000000
00000000
00000000
00038000
00038000
00038000
00038000
00038000
00038000
00038000
00038000
00038000
00038000
00038000
00038000
00038000
00038000
00038000
00038000
00038000
00038000
00038000
00038000
00038000
00038000
00038000
00038000
00038000
00000000
00000000
00000000
00000000
ENDCHAR

STARTCHAR kor_A3CA
ENCODING 41930
SWIDTH 1024 0
DWIDTH 32 0
BBX 32 32 0 -2
BITMAP
00000000
00000000
00000000
00001C00
00001C00
00001C00
00001C00
00001C00
00001C00
00001C00
00001C00
00001C00
00001C00
00001C00
00001C00
00001C00
00001C00
00001C00
00001C00
00001C00
00001C00
00001C00
01C01C00
01C01C00
01C03C00
01E03800
00F0F800
00FFF000
007FE000
001F8000
00000000
00000000
ENDCHAR

STARTCHAR kor_A3CB
ENCODING 41931
SWIDTH 1024 0
DWIDTH 32 0
BBX 32 32 0 -2
BITMAP
00000000
00000000
00000000
01C00000
01C00F00
01C01F00
01C03E00
01C07C00
01C0F800
01C1F000
01C3E000
01C7C000
01CF8000
01DF0000
01FE0000
01BC0000
01F80000
01BE0000
01DF0000
01CF8000
01C7C000
01C3E000
01C1F000
01C0F800
01C07C00
01C03E00
01C01F00
01C00F00
01C00000
00000000
00000000
00000000
ENDCHAR

STARTCHAR kor_A3CC
ENCODING 41932
SWIDTH 1024 0
DWIDTH 32 0
BBX 32 32 0 -2
BITMAP
00000000
00000000
00000000
00700000
00700000
00700000
00700000
00700000
00700000
00700000
00700000
00700000
00700000
00700000
00700000
00700000
00700000
00700000
00700000
00700000
00700000
00700000
00700000
00700000
00700000
007FFFE0
007FFFE0
007FFFE0
00000000
00000000
00000000
00000000
ENDCHAR

STARTCHAR kor_A3CD
ENCODING 41933
SWIDTH 1024 0
DWIDTH 32 0
BBX 32 32 0 -2
BITMAP
00000000
00000000
00000000
0F8003E0
0F8003E0
0FC007E0
0DC006E0
0FC00EE0
0EE00EE0
0EE00EE0
0EF01EE0
0E701CE0
0E701CE0
0E783CE0
0E3838E0
0E3838E0
0E3C78E0
0E1C70E0
0E1C70E0
0E1EF0E0
0E0EE0E0
0E0EE0E0
0E0FE0E0
0E07C0E0
0E07C0E0
0E07C0E0
0E0380E0
0E0380E0
00000000
00000000
00000000
00000000
ENDCHAR

STARTCHAR kor_A3CE
ENCODING 41934
SWIDTH 1024 0
DWIDTH 32 0
BBX 32 32 0 -2
BITMAP
00000000
00000000
00000000
01F001C0
01F001C0
01F801C0
01F801C0
01BC01C0
01FC01C0
01DE01C0
01DF01C0
01CF01C0
01C781C0
01C781C0
01C3C1C0
01C1E1C0
01C1E1C0
01C0F1C0
01C0F9C0
01C07DC0
01C03DC0
01C01DC0
01C01FC0
01C00FC0
01C007C0
01C003C0
01C001C0
01C001C0
00000000
00000000
00000000
00000000
ENDCHAR

STARTCHAR kor_A3CF
ENCODING 41935
SWIDTH 1024 0
DWIDTH 32 0
BBX 32 32 0 -2
BITMAP
00000000
00000000
00000000
001FF000
007FFC00
00FFFE00
01F83F00
01E00F00
03C00780
03800380
078003C0
070001C0
070001C0
070001C0
070001C0
070001C0
070001C0
070001C0
070001C0
070001C0
070001C0
078003C0
038003C0
03C00780
01E00F80
01F83F00
00FFFE00
003FF800
000FE000
00000000
00000000
00000000
ENDCHAR

STARTCHAR kor_A3D0
ENCODING 41936
SWIDTH 1024 0
DWIDTH 32 0
BBX 32 32 0 -2
BITMAP
00000000
00000000
00000000
003FFF00
003FFF80
003FFFC0
003C07C0
003C01E0
003C00E0
003C00E0
003C00E0
003C00E0
003C00E0
003C01E0
003C07C0
003FFFC0
003FFF80
003FFE00
003C0000
003C0000
003C0000
003C0000
003C0000
003C0000
003C0000
003C0000
003C0000
003C0000
00000000
00000000
00000000
00000000
ENDCHAR

STARTCHAR kor_A3D1
ENCODING 41937
SWIDTH 1024 0
DWIDTH 32 0
BBX 32 32 0 -2
BITMAP
00000000
00000000
00000000
001FF000
007FFC00
00FFFE00
01F83F00
01E00F00
03C00780
03800380
078003C0
070001C0
070001C0
070001C0
070001C0
070001C0
070001C0
070001C0
070001C0
070001C0
070001C0
078003C0
038003C0
03C00780
01E00F80
01F83F7C
00FFFFFC
003FFFFC
000FE000
00000000
00000000
00000000
ENDCHAR

STARTCHAR kor_A3D2
ENCODING 41938
SWIDTH 1024 0
DWIDTH 32 0
BBX 32 32 0 -2
BITMAP
00000000
00000000
00000000
00FFF800
00FFFE00
00FFFF00
00F00F80
00F00380
00F003C0
00F001C0
00F001C0
00F001C0
00F003C0
00F00F80
00FFFF80
00FFFF00
00FFFC00
00F03800
00F03C00
00F01E00
00F01E00
00F00F00
00F00F00
00F00780
00F00780
00F003C0
00F003C0
00F001C0
00000000
00000000
00000000
00000000
ENDCHAR

STARTCHAR kor_A3D3
ENCODING 41939
SWIDTH 1024 0
DWIDTH 32 0
BBX 32 32 0 -2
BITMAP
00000000
00000000
0007E000
001FF800
007FFE00
00F81F00
00E00780
01C00380
01C00380
01C00380
00E00000
00F80000
007E0000
003FC000
000FF800
0001FE00
00003F00
00000F00
00000780
03800380
03800380
03800780
03C00780
01C00F00
01F03F00
00FFFE00
007FF800
001FE000
00000000
00000000
00000000
00000000
ENDCHAR

STARTCHAR kor_A3D4
ENCODING 41940
SWIDTH 1024 0
DWIDTH 32 0
BBX 32 32 0 -2
BITMAP
00000000
00000000
00000000
0FFFFFF0
0FFFFFF0
0FFFFFF0
00038000
00038000
00038000
00038000
00038000
00038000
00038000
00038000
00038000
00038000
00038000
00038000
00038000
00038000
00038000
00038000
00038000
00038000
00038000
00038000
00038000
00038000
00038000
00000000
00000000
00000000
ENDCHAR

STARTCHAR kor_A3D5
ENCODING 41941
SWIDTH 1024 0
DWIDTH 32 0
BBX 32 32 0 -2
BITMAP
00000000
00000000
00000000
01C00380
01C00380
01C00380
01C00380
01C00380
01C00380
01C00380
01C00380
01C00380
01C00380
01C00380
01C00380
01C00380
01C00380
01C00380
01C00380
01C00380
01C00380
01E00380
01E00780
00F00700
00F81F00
007FFE00
003FFC00
000FF000
00000000
00000000
00000000
00000000
ENDCHAR

STARTCHAR kor_A3D6
ENCODING 41942
SWIDTH 1024 0
DWIDTH 32 0
BBX 32 32 0 -2
BITMAP
00000000
00000000
00000000
01C00380
01C00380
01C00380
01E00780
00E00700
00E00700
00F00F00
00700E00
00700E00
00781E00
00381C00
00381C00
003C3C00
001C3800
001C3800
001E7800
000E7000
000E7000
000EF000
0007E000
0007E000
0007E000
0003C000
0003C000
0003C000
00000000
00000000
00000000
00000000
ENDCHAR

STARTCHAR kor_A3D7
ENCODING 41943
SWIDTH 1024 0
DWIDTH 32 0
BBX 32 32 0 -2
BITMAP
00000000
00000000
00000000
0E038070
0E038070
0E038070
0F03C070
0707C0E0
0707C0E0
0707E0E0
0786E0E0
038EE0E0
038EE1C0
038EF1C0
03CE71C0
01DC71C0
01DC7380
01DC7B80
01DC3B80
00F83F80
00F83700
00F83F00
00F81F00
00F01F00
00701F00
00700E00
00700E00
00000E00
00000000
00000000
00000000
00000000
ENDCHAR

STARTCHAR kor_A3D8
ENCODING 41944
SWIDTH 1024 0
DWIDTH 32 0
BBX 32 32 0 -2
BITMAP
00000000
00000000
00000000
00000000
0F0000F0
0F8001F0
07C003E0
03E007C0
01F00F80
00F81F00
007C3E00
003E7C00
001EF800
000FF000
0007E000
0003C000
0007E000
000FF000
001EF800
003E7C00
007C3E00
00F81F00
01F00F80
03E007C0
07C003E0
0F8001F0
0F0000F0
00000000
00000000
00000000
00000000
00000000
ENDCHAR

STARTCHAR kor_A3D9
ENCODING 41945
SWIDTH 1024 0
DWIDTH 32 0
BBX 32 32 0 -2
BITMAP
00000000
00000000
00000000
3C000780
3E000F80
1F001F00
0F803E00
07803C00
03C07800
03E0F800
01F1F000
00FBE000
007FC000
003F8000
001F0000
000E0000
000E0000
000E0000
000E0000
000E0000
000E0000
000E0000
000E0000
000E0000
000E0000
000E0000
000E0000
000E0000
000E0000
00000000
00000000
00000000
ENDCHAR

STARTCHAR kor_A3DA
ENCODING 41946
SWIDTH 1024 0
DWIDTH 32 0
BBX 32 32 0 -2
BITMAP
00000000
00000000
00000000
03FFFF80
03FFFF80
03FFFF80
00000F00
00001E00
00003C00
00007800
00007800
0000F000
0001E000
0001E000
0003C000
00078000
000F0000
000F0000
001E0000
003C0000
003C0000
00780000
00F00000
01E00000
01E00000
03DFFF80
03FFFF80
03FFFF80
00000000
00000000
00000000
00000000
ENDCHAR

STARTCHAR kor_A3DB
ENCODING 41947
SWIDTH 1024 0
DWIDTH 32 0
BBX 32 32 0 -2
BITMAP
00000000
00000000
000003FE
000003FE
000003C0
000003C0
000003C0
000003C0
000003C0
000003C0
000003C0
000003C0
000003C0
000003C0
000003C0
000003C0
000003C0
000003C0
000003C0
000003C0
000003C0
000003C0
000003C0
000003C0
000003C0
000003C0
000003C0
000003FE
000003FE
00000000
00000000
00000000
ENDCHAR

STARTCHAR kor_A3DC
ENCODING 41948
SWIDTH 1024 0
DWIDTH 32 0
BBX 32 32 0 -2
BITMAP
00000000
00000000
00000000
0E038070
0E038070
0E038070
0F03C070
0707C0E0
0707C0E0
7FFFFFFF
7FFEFFFF
0386E0E0
038EE1C0
038EF1C0
7FFF7FFF
7FFFFFFF
01CC7180
01DC7B80
01DC3B80
00F83F80
00F83700
00F83F00
00F81F00
00F01F00
00701F00
00700E00
00700E00
00000E00
00000000
00000000
00000000
00000000
ENDCHAR

STARTCHAR kor_A3DD
ENCODING 41949
SWIDTH 1024 0
DWIDTH 32 0
BBX 32 32 0 -2
BITMAP
00000000
00000000
3FE00000
3FE00000
01E00000
01E00000
01E00000
01E00000
01E00000
01E00000
01E00000
01E00000
01E00000
01E00000
01E00000
01E00000
01E00000
01E00000
01E00000
01E00000
01E00000
01E00000
01E00000
01E00000
01E00000
01E00000
01E00000
3FE00000
3FE00000
00000000
00000000
00000000
ENDCHAR

STARTCHAR kor_A3DE
ENCODING 41950
SWIDTH 1024 0
DWIDTH 32 0
BBX 32 32 0 -2
BITMAP
00000000
00038000
0007C000
000FE000
001FF000
003EF800
007C7C00
00F83E00
00F01E00
00E00E00
00000000
00000000
00000000
00000000
00000000
00000000
00000000
00000000
00000000
00000000
00000000
00000000
00000000
00000000
00000000
00000000
00000000
00000000
00000000
00000000
00000000
00000000
ENDCHAR

STARTCHAR kor_A3DF
ENCODING 41951
SWIDTH 1024 0
DWIDTH 32 0
BBX 32 32 0 -2
BITMAP
00000000
00000000
00000000
00000000
00000000
00000000
00000000
00000000
00000000
00000000
00000000
00000000
00000000
00000000
00000000
00000000
00000000
00000000
00000000
00000000
00000000
00000000
00000000
00000000
00000000
00000000
00000000
00000000
00000000
3FFFFFFF
3FFFFFFF
3FFFFFFF
ENDCHAR

STARTCHAR kor_A3E0
ENCODING 41952
SWIDTH 1024 0
DWIDTH 32 0
BBX 32 32 0 -2
BITMAP
00000000
3C000000
3E000000
3F000000
3F000000
0F800000
07800000
03800000
01800000
01800000
00000000
00000000
00000000
00000000
00000000
00000000
00000000
00000000
00000000
00000000
00000000
00000000
00000000
00000000
00000000
00000000
00000000
00000000
00000000
00000000
00000000
00000000
ENDCHAR

STARTCHAR kor_A3E1
ENCODING 41953
SWIDTH 1024 0
DWIDTH 32 0
BBX 32 32 0 -2
BITMAP
00000000
00000000
00000000
00000000
00000000
00000000
00000000
00000000
00000000
0007E000
001FF800
003FF800
007C7C00
00783C00
00701C00
00701C00
0073FC00
000FFC00
003FFC00
003E1C00
00781C00
00701C00
00701C00
00781C00
00781C00
003C3C00
003FFC00
001FFC00
0007DC00
00000000
00000000
00000000
ENDCHAR

STARTCHAR kor_A3E2
ENCODING 41954
SWIDTH 1024 0
DWIDTH 32 0
BBX 32 32 0 -2
BITMAP
00000000
00000000
00000000
00380000
00380000
00380000
00380000
00380000
00380000
00380000
0039F800
003FFE00
0037FF00
003F9F00
003E0780
003C0380
003C0380
00380380
00380380
00380380
00380380
003C0380
003C0780
003E0780
003F1F00
003FFF00
0037FE00
0039F800
00000000
00000000
00000000
00000000
ENDCHAR

STARTCHAR kor_A3E3
ENCODING 41955
SWIDTH 1024 0
DWIDTH 32 0
BBX 32 32 0 -2
BITMAP
00000000
00000000
00000000
00000000
00000000
00000000
00000000
00000000
00000000
001FC000
007FF000
00FFF800
00F07C00
01E03C00
01C01C00
03C01C00
03800000
03800000
03800000
03800000
03C00000
03C01C00
01E01C00
01E01C00
00F83C00
00FFF800
003FF000
000FC000
00000000
00000000
00000000
00000000
ENDCHAR

STARTCHAR kor_A3E4
ENCODING 41956
SWIDTH 1024 0
DWIDTH 32 0
BBX 32 32 0 -2
BITMAP
00000000
00000000
00000000
00000E00
00000E00
00000E00
00000E00
00000E00
00000E00
00000E00
0007EE00
001FEE00
003FFE00
007C3E00
00781E00
00F00E00
00F00E00
00E00E00
00E00E00
00E00E00
00E00E00
00F00E00
00F00E00
00781E00
007E3E00
003FFE00
001FEE00
0007C600
00000000
00000000
00000000
00000000
ENDCHAR

STARTCHAR kor_A3E5
ENCODING 41957
SWIDTH 1024 0
DWIDTH 32 0
BBX 32 32 0 -2
BITMAP
00000000
00000000
00000000
00000000
00000000
00000000
00000000
00000000
00000000
0007E000
001FF800
003FFC00
007C3E00
00700E00
00F00F00
00E00700
00FFFF00
00FFFF00
00FFFF00
00E00000
00E00000
00E00700
00F00700
00700F00
007C1E00
003FFE00
001FFC00
0007F000
00000000
00000000
00000000
00000000
ENDCHAR

STARTCHAR kor_A3E6
ENCODING 41958
SWIDTH 1024 0
DWIDTH 32 0
BBX 32 32 0 -2
BITMAP
00000000
00000000
00000000
0000FC00
0003FC00
0007FC00
00078000
000F0000
000E0000
000E0000
000E0000
000E0000
00FFF800
00FFF800
00FFF800
000E0000
000E0000
000E0000
000E0000
000E0000
000E0000
000E0000
000E0000
000E0000
000E0000
000E0000
000E0000
000E0000
00000000
00000000
00000000
00000000
ENDCHAR

STARTCHAR kor_A3E7
ENCODING 41959
SWIDTH 1024 0
DWIDTH 32 0
BBX 32 32 0 -2
BITMAP
00000000
00000000
00000000
00000000
00000000
00000000
0007E700
001FF700
003FFF00
007E3F00
00780F00
00F00700
00F00700
00E00700
00E00700
00E00700
00F00700
00F00700
00780F00
007C1F00
003FFF00
001FF700
0007E700
00000700
00E00700
00E00700
00F00F00
00780F00
007C3E00
003FFE00
001FFC00
0007E000
ENDCHAR

STARTCHAR kor_A3E8
ENCODING 41960
SWIDTH 1024 0
DWIDTH 32 0
BBX 32 32 0 -2
BITMAP
00000000
00000000
00000000
00380000
00380000
00380000
00380000
00380000
00380000
0039F000
003FFC00
0037FE00
003F1E00
003C0F00
003C0F00
00380700
00380700
00380700
00380700
00380700
00380700
00380700
00380700
00380700
00380700
00380700
00380700
00380700
00000000
00000000
00000000
00000000
ENDCHAR

STARTCHAR kor_A3E9
ENCODING 41961
SWIDTH 1024 0
DWIDTH 32 0
BBX 32 32 0 -2
BITMAP
00000000
00000000
00000000
00038000
00038000
00038000
00038000
00000000
00000000
00000000
00038000
00038000
00038000
00038000
00038000
00038000
00038000
00038000
00038000
00038000
00038000
00038000
00038000
00038000
00038000
00038000
00038000
00038000
00000000
00000000
00000000
00000000
ENDCHAR

STARTCHAR kor_A3EA
ENCODING 41962
SWIDTH 1024 0
DWIDTH 32 0
BBX 32 32 0 -2
BITMAP
00000000
00000000
00000000
00007000
00007000
00007000
00007000
00000000
00000000
00000000
00007000
00007000
00007000
00007000
00007000
00007000
00007000
00007000
00007000
00007000
00007000
00007000
00007000
00007000
00007000
00E07000
00E07000
00F07000
0078F000
007FE000
003FE000
000F8000
ENDCHAR

STARTCHAR kor_A3EB
ENCODING 41963
SWIDTH 1024 0
DWIDTH 32 0
BBX 32 32 0 -2
BITMAP
00000000
00000000
00000000
00E00000
00E00000
00E01E00
00E03E00
00E07C00
00E0F800
00E1F000
00E3E000
00E7C000
00EF8000
00FF0000
00DE0000
00FC0000
00F80000
00FE0000
00FF0000
00DF8000
00EFC000
00E7E000
00E3F000
00E1F800
00E0FC00
00E07E00
00E03F00
00E01F80
00E00F80
00000000
00000000
00000000
ENDCHAR

STARTCHAR kor_A3EC
ENCODING 41964
SWIDTH 1024 0
DWIDTH 32 0
BBX 32 32 0 -2
BITMAP
00000000
00000000
00000000
00038000
00038000
00038000
00038000
00038000
00038000
00038000
00038000
00038000
00038000
00038000
00038000
00038000
00038000
00038000
00038000
00038000
00038000
00038000
00038000
00038000
00038000
00038000
00038000
00038000
00038000
00000000
00000000
00000000
ENDCHAR

STARTCHAR kor_A3ED
ENCODING 41965
SWIDTH 1024 0
DWIDTH 32 0
BBX 32 32 0 -2
BITMAP
00000000
00000000
00000000
00000000
00000000
00000000
00000000
00000000
00000000
0E7C1F80
0FFF7FE0
0DFFFFF0
0FC7F8F0
0F03E078
0F03E078
0E01C038
0E01C038
0E01C038
0E01C038
0E01C038
0E01C038
0E01C038
0E01C038
0E01C038
0E01C038
0E01C038
0E01C038
0E01C038
00000000
00000000
00000000
00000000
ENDCHAR

STARTCHAR kor_A3EE
ENCODING 41966
SWIDTH 1024 0
DWIDTH 32 0
BBX 32 32 0 -2
BITMAP
00000000
00000000
00000000
00000000
00000000
00000000
00000000
00000000
00000000
0001F000
0037FC00
003FFE00
003F1E00
003C0F00
003C0F00
00380700
00380700
00380700
00380700
00380700
00380700
00380700
00380700
00380700
00380700
00380700
00380700
00380700
00000000
00000000
00000000
00000000
ENDCHAR

STARTCHAR kor_A3EF
ENCODING 41967
SWIDTH 1024 0
DWIDTH 32 0
BBX 32 32 0 -2
BITMAP
00000000
00000000
00000000
00000000
00000000
00000000
00000000
00000000
00000000
0007F000
001FFC00
003FFE00
007E3F00
00780F00
00F00780
00F00780
00E00380
00E00380
00E00380
00E00380
00E00380
00F00780
00F00780
00780F00
007E3F00
003FFE00
001FFC00
0007F000
00000000
00000000
00000000
00000000
ENDCHAR

STARTCHAR kor_A3F0
ENCODING 41968
SWIDTH 1024 0
DWIDTH 32 0
BBX 32 32 0 -2
BITMAP
00000000
00000000
00000000
00000000
00000000
00000000
00000000
00000000
00000000
003BF000
003FFC00
0037FE00
003F3F00
003C0F00
00380780
00380380
00380380
00380380
00380380
00380380
00380780
003C0700
003F1F00
003FFE00
0037FC00
0039F000
00380000
00380000
00380000
00380000
00380000
00380000
ENDCHAR

STARTCHAR kor_A3F1
ENCODING 41969
SWIDTH 1024 0
DWIDTH 32 0
BBX 32 32 0 -2
BITMAP
00000000
00000000
00000000
00000000
00000000
00000000
00000000
00000000
00000000
0007E380
001FFB80
003FFB80
003C3F80
00780F80
00700780
00F00780
00E00380
00E00380
00E00380
00E00380
00F00780
00700780
00780F80
003C3F80
003FFB80
001FFB80
0007E380
00000380
00000380
00000380
00000380
00000380
ENDCHAR

STARTCHAR kor_A3F2
ENCODING 41970
SWIDTH 1024 0
DWIDTH 32 0
BBX 32 32 0 -2
BITMAP
00000000
00000000
00000000
00000000
00000000
00000000
00000000
00000000
00000000
00380000
00387C00
0039FC00
003BFC00
003FC000
00370000
003E0000
003C0000
00380000
00380000
00380000
00380000
00380000
00380000
00380000
00380000
00380000
00380000
00380000
00000000
00000000
00000000
00000000
ENDCHAR

STARTCHAR kor_A3F3
ENCODING 41971
SWIDTH 1024 0
DWIDTH 32 0
BBX 32 32 0 -2
BITMAP
00000000
00000000
00000000
00000000
00000000
00000000
00000000
00000000
0001F000
0007FC00
000FFE00
000F1F00
001E0F00
001C0700
001E0700
001F0000
000FC000
0007F000
0001FC00
00007E00
00001F00
00380F00
00380700
003C0700
003E0F00
001FFE00
000FFC00
0003F000
00000000
00000000
00000000
00000000
ENDCHAR

STARTCHAR kor_A3F4
ENCODING 41972
SWIDTH 1024 0
DWIDTH 32 0
BBX 32 32 0 -2
BITMAP
00000000
00000000
00000000
00000000
00000000
000E0000
000E0000
000E0000
000E0000
00FFE000
00FFE000
00FFE000
000E0000
000E0000
000E0000
000E0000
000E0000
000E0000
000E0000
000E0000
000E0000
000E0000
000E0000
000E1C00
000F3C00
0007FC00
0007F800
0001E000
00000000
00000000
00000000
00000000
ENDCHAR

STARTCHAR kor_A3F5
ENCODING 41973
SWIDTH 1024 0
DWIDTH 32 0
BBX 32 32 0 -2
BITMAP
00000000
00000000
00000000
00000000
00000000
00000000
00000000
00000000
00000000
00E00E00
00E00E00
00E00E00
00E00E00
00E00E00
00E00E00
00E00E00
00E00E00
00E00E00
00E00E00
00E00E00
00E00E00
00E01E00
00F01E00
00F03E00
007CFE00
007FFE00
003FEE00
000FCE00
00000000
00000000
00000000
00000000
ENDCHAR

STARTCHAR kor_A3F6
ENCODING 41974
SWIDTH 1024 0
DWIDTH 32 0
BBX 32 32 0 -2
BITMAP
00000000
00000000
00000000
00000000
00000000
00000000
00000000
00000000
00000000
00E00700
00E00700
00F00F00
00700E00
00700E00
00781E00
00381C00
00381C00
003C3C00
001C3800
001C7800
001E7000
000EF000
000EF000
000FE000
0007E000
0007C000
0007C000
00038000
00038000
00000000
00000000
00000000
ENDCHAR

STARTCHAR kor_A3F7
ENCODING 41975
SWIDTH 1024 0
DWIDTH 32 0
BBX 32 32 0 -2
BITMAP
00000000
00000000
00000000
00000000
00000000
00000000
00000000
00000000
00000000
0E03C070
0E03C070
0E03C070
0E03C070
0707E0F0
0707E0E0
0706E0E0
070EE1E0
038E71C0
038E71C0
039E73C0
039C7380
01BC3780
01BC3780
01F83F00
01F83F00
00F01E00
00F01E00
00F01E00
00000000
00000000
00000000
00000000
ENDCHAR

STARTCHAR kor_A3F8
ENCODING 41976
SWIDTH 1024 0
DWIDTH 32 0
BBX 32 32 0 -2
BITMAP
00000000
00000000
00000000
00000000
00000000
00000000
00000000
00000000
00000000
00F000F0
00F801F0
007C03E0
003E07C0
001F0F80
000F9F00
0007BE00
0003FC00
0001F800
0000F000
0003F800
0007FC00
000FBE00
001F1F00
003E0F80
007C07C0
00F803E0
01F001F0
01E000F0
00000000
00000000
00000000
00000000
ENDCHAR

STARTCHAR kor_A3F9
ENCODING 41977
SWIDTH 1024 0
DWIDTH 32 0
BBX 32 32 0 -2
BITMAP
00000000
00000000
00000000
00000000
00000000
00000000
01E001E0
01E003E0
00F003C0
00F00780
00700780
00780F00
00380F00
003C1E00
001C1E00
001E3C00
000E3C00
000E7800
000F7800
0007F000
0007F000
0003E000
0003E000
0001C000
0003C000
00078000
00078000
000F0000
000F0000
001E0000
003E0000
003C0000
ENDCHAR

STARTCHAR kor_A3FA
ENCODING 41978
SWIDTH 1024 0
DWIDTH 32 0
BBX 32 32 0 -2
BITMAP
00000000
00000000
00000000
00000000
00000000
00000000
00000000
00000000
003FFF80
003FFF80
003FFF80
00000780
00000F00
00001E00
00003E00
00003C00
00007800
0000F800
0001F000
0001E000
0003C000
0007C000
000F8000
000F0000
001E0000
003E0000
003DFF80
003FFF80
003FFF80
00000000
00000000
00000000
ENDCHAR

STARTCHAR kor_A3FB
ENCODING 41979
SWIDTH 1024 0
DWIDTH 32 0
BBX 32 32 0 -2
BITMAP
00000000
00000000
0000007C
000001FC
000001E0
000003C0
000003C0
000003C0
000003C0
000003C0
000003C0
000003C0
00000380
00000780
00001F00
00001E00
00000780
00000380
000003C0
000003C0
000003C0
000003C0
000003C0
000003C0
000003C0
000003C0
000001E0
000001FC
0000007C
00000000
00000000
00000000
ENDCHAR

STARTCHAR kor_A3FC
ENCODING 41980
SWIDTH 1024 0
DWIDTH 32 0
BBX 32 32 0 -2
BITMAP
00000000
00038000
00038000
00038000
00038000
00038000
00038000
00038000
00038000
00038000
00038000
00038000
00038000
00038000
00038000
00038000
00038000
00038000
00038000
00038000
00038000
00038000
00038000
00038000
00038000
00038000
00038000
00038000
00000000
00000000
00000000
00000000
ENDCHAR

STARTCHAR kor_A3FD
ENCODING 41981
SWIDTH 1024 0
DWIDTH 32 0
BBX 32 32 0 -2
BITMAP
00000000
00000000
3E000000
3F800000
07800000
03C00000
03C00000
03C00000
03C00000
03C00000
03C00000
03C00000
01C00000
01E00000
00F80000
00780000
01E00000
01C00000
03C00000
03C00000
03C00000
03C00000
03C00000
03C00000
03C00000
03C00000
07800000
3F800000
3E000000
00000000
00000000
00000000
ENDCHAR

STARTCHAR kor_A3FE
ENCODING 41982
SWIDTH 1024 0
DWIDTH 32 0
BBX 32 32 0 -2
BITMAP
00000000
00000000
00000000
00000000
03FFFF00
03FFFF00
03FFFF00
00000000
00000000
00000000
00000000
00000000
00000000
00000000
00000000
00000000
00000000
00000000
00000000
00000000
00000000
00000000
00000000
00000000
00000000
00000000
00000000
00000000
00000000
00000000
00000000
00000000
ENDCHAR

STARTCHAR kor_A4A1
ENCODING 42145
SWIDTH 1024 0
DWIDTH 32 0
BBX 32 32 0 -2
BITMAP
00000000
00000000
00000000
00000000
00000000
00000000
00000000
00000000
03FFFF80
03FFFF80
03FFFF80
00000380
00000380
00000380
00000380
00000380
00000380
00000380
00000380
00000380
00000380
00000380
00000380
00000380
00000380
00000000
00000000
00000000
00000000
00000000
00000000
00000000
ENDCHAR

STARTCHAR kor_A4A2
ENCODING 42146
SWIDTH 1024 0
DWIDTH 32 0
BBX 32 32 0 -2
BITMAP
00000000
00000000
00000000
00000000
00000000
00000000
00000000
0FFF7FF8
0FFF7FF8
0FFFFFF8
00038038
00038038
00038038
00038038
00038038
00038038
00038038
00038038
00038038
00038038
00038038
00038038
00038038
00038038
00000000
00000000
00000000
00000000
00000000
00000000
00000000
00000000
ENDCHAR

STARTCHAR kor_A4A3
ENCODING 42147
SWIDTH 1024 0
DWIDTH 32 0
BBX 32 32 0 -2
BITMAP
00000000
00000000
00000000
00000000
00000000
00000000
00000380
1FFE0380
1FFE0380
1FFE0380
000E0380
000E07C0
000E07C0
000E07C0
000E07C0
000E0FE0
000E0FE0
000E1EE0
000E1EF0
000E3C78
000E7C7C
000FF83E
000DF01E
000EE00C
00000000
00000000
00000000
00000000
00000000
00000000
00000000
00000000
ENDCHAR

STARTCHAR kor_A4A4
ENCODING 42148
SWIDTH 1024 0
DWIDTH 32 0
BBX 32 32 0 -2
BITMAP
00000000
00000000
00000000
00000000
00000000
00000000
00E00000
00E00000
00E00000
00E00000
00E00000
00E00000
00E00000
00E00000
00E00000
00E00000
00E00000
00E00000
00E00000
00E00000
00E00000
00FFFFE0
00FFFFE0
00FFFFE0
00000000
00000000
00000000
00000000
00000000
00000000
00000000
00000000
ENDCHAR

STARTCHAR kor_A4A5
ENCODING 42149
SWIDTH 1024 0
DWIDTH 32 0
BBX 32 32 0 -2
BITMAP
00000000
00000000
00000000
00000000
00000000
0E000000
0E03FFF0
0E03FFF0
0E03FFF0
0E000E00
0E000E00
0E000E00
0E000E00
0E000F00
0E001F00
0E001F80
0E001F80
0E003FC0
0E007BE0
0E01F9F8
0FFFF0FE
0FFFE07E
0FFB801C
00000000
00000000
00000000
00000000
00000000
00000000
00000000
00000000
00000000
ENDCHAR

STARTCHAR kor_A4A6
ENCODING 42150
SWIDTH 1024 0
DWIDTH 32 0
BBX 32 32 0 -2
BITMAP
00000000
00000000
00000000
00000000
00000000
00000000
0E00FF80
0E00FF80
0E00FF80
0E000000
0E0FFFFC
0E0FFFFC
0E0FFFFC
0E000000
0E003F00
0E00FFC0
0E00FFC0
0E01E1E0
0E01C0E0
0E01C0E0
0E01C0E0
0E01C0E0
0FFFE1E0
0FFEFFC0
0FFEFFC0
00003F00
00000000
00000000
00000000
00000000
00000000
00000000
ENDCHAR

STARTCHAR kor_A4A7
ENCODING 42151
SWIDTH 1024 0
DWIDTH 32 0
BBX 32 32 0 -2
BITMAP
00000000
00000000
00000000
00000000
00000000
00000000
00000000
03FFFF00
03FFFF00
03FFFF00
03800000
03800000
03800000
03800000
03800000
03800000
03800000
03800000
03800000
03800000
03FFFF80
03FFFF80
03FFFF80
00000000
00000000
00000000
00000000
00000000
00000000
00000000
00000000
00000000
ENDCHAR

STARTCHAR kor_A4A8
ENCODING 42152
SWIDTH 1024 0
DWIDTH 32 0
BBX 32 32 0 -2
BITMAP
00000000
00000000
00000000
00000000
00000000
00000000
0FFEFFF0
0FFEFFF0
0FFEFFF0
0E00E000
0E00E000
0E00E000
0E00E000
0E00E000
0E00E000
0E00E000
0E00E000
0E00E000
0E00E000
0E00E000
0FFEFFF8
0FFEFFF8
0FFEFFF8
00000000
00000000
00000000
00000000
00000000
00000000
00000000
00000000
00000000
ENDCHAR

STARTCHAR kor_A4A9
ENCODING 42153
SWIDTH 1024 0
DWIDTH 32 0
BBX 32 32 0 -2
BITMAP
00000000
00000000
00000000
00000000
00000000
00000000
03FFFE00
03FFFE00
03FFFE00
00000E00
00000E00
00000E00
00000E00
03FFFE00
03FFFE00
03FFFE00
03800000
03800000
03800000
03800000
03800000
03FFFF80
03FFFF80
03FFFF80
00000000
00000000
00000000
00000000
00000000
00000000
00000000
00000000
ENDCHAR

STARTCHAR kor_A4AA
ENCODING 42154
SWIDTH 1024 0
DWIDTH 32 0
BBX 32 32 0 -2
BITMAP
00000000
00000000
00000000
00000000
00000000
00000000
0FFF7FF8
0FFF7FF8
0FFF7FF8
00070038
00070038
00070038
00070038
0FFF0038
0FFF0038
0FFF0038
0E000038
0E000038
0E000038
0E000038
0E000038
0FFF8038
0FFF8038
0FFF8038
00000000
00000000
00000000
00000000
00000000
00000000
00000000
00000000
ENDCHAR

STARTCHAR kor_A4AB
ENCODING 42155
SWIDTH 1024 0
DWIDTH 32 0
BBX 32 32 0 -2
BITMAP
00000000
00000000
00000000
00000000
00000000
00000000
0FFF7FF0
0FFF7FF0
0FFF7FF0
00077070
00077070
00077070
00077070
0FFF7070
0FFF7070
0FFF7070
0E007070
0E007070
0E007070
0E007070
0E007070
0FFF7FF0
0FFF7FF0
0FFF7FF0
00000000
00000000
00000000
00000000
00000000
00000000
00000000
00000000
ENDCHAR

STARTCHAR kor_A4AC
ENCODING 42156
SWIDTH 1024 0
DWIDTH 32 0
BBX 32 32 0 -2
BITMAP
00000000
00000000
00000000
00000000
00000000
00000000
00000000
0FFE3838
0FFE3838
0FFE3838
000E3838
000E3838
000E3838
000E3838
0FFE3FF8
0FFE3FF8
0FFE3FF8
0E003838
0E003838
0E003838
0E003838
0E003838
0FFF3FF8
0FFF3FF8
0FFF3FF8
00000000
00000000
00000000
00000000
00000000
00000000
00000000
ENDCHAR

STARTCHAR kor_A4AD
ENCODING 42157
SWIDTH 1024 0
DWIDTH 32 0
BBX 32 32 0 -2
BITMAP
00000000
00000000
00000000
00000000
00000000
00000000
00000700
1FFE0700
1FFE0700
1FFE0700
000E0700
000E0700
000E0F80
000E0F80
1FFE0F80
1FFE1FC0
1FFE1DC0
1C003DE0
1C0038E0
1C0078F0
1C00F0F8
1C01F07C
1FFFE03E
1FFFC01E
1FFD800C
00000000
00000000
00000000
00000000
00000000
00000000
00000000
ENDCHAR

STARTCHAR kor_A4AE
ENCODING 42158
SWIDTH 1024 0
DWIDTH 32 0
BBX 32 32 0 -2
BITMAP
00000000
00000000
00000000
00000000
00000000
00000000
00000000
1FFE7FF0
1FFE7FF0
1FFE7FF0
000E7000
000E7000
000E7000
000E7000
000E7000
1FFE7FF0
1FFE7FF0
1FFE7FF0
1C007000
1C007000
1C007000
1C007000
1C007000
1FFF7FF8
1FFF7FF8
1FFF7FF8
00000000
00000000
00000000
00000000
00000000
00000000
ENDCHAR

STARTCHAR kor_A4AF
ENCODING 42159
SWIDTH 1024 0
DWIDTH 32 0
BBX 32 32 0 -2
BITMAP
00000000
00000000
00000000
00000000
00000000
00000000
00000000
1FFDFFFE
1FFDFFFE
1FFDFFFE
001C1CE0
001C1CE0
001C1CE0
001C1CE0
1FFC1CE0
1FFC1CE0
1FFC1CE0
1C001CE0
1C001CE0
1C001CE0
1C001CE0
1C001CE0
1FFDFFFE
1FFDFFFE
1FFDFFFE
00000000
00000000
00000000
00000000
00000000
00000000
00000000
ENDCHAR

STARTCHAR kor_A4B0
ENCODING 42160
SWIDTH 1024 0
DWIDTH 32 0
BBX 32 32 0 -2
BITMAP
00000000
00000000
00000000
00000000
00000000
00000000
00003FC0
1FFC3FC0
1FFC3FC0
1FFC0000
001FFFFC
001BFFFC
001FFFFC
001C0000
1FFC1F80
1FFC7FE0
1FFC7FE0
1C00F0F0
1C00E070
1C00E070
1C00E070
1C00F0F0
1FFE7FE0
1FFE7FE0
1FFE1F80
00000000
00000000
00000000
00000000
00000000
00000000
00000000
ENDCHAR

STARTCHAR kor_A4B1
ENCODING 42161
SWIDTH 1024 0
DWIDTH 32 0
BBX 32 32 0 -2
BITMAP
00000000
00000000
00000000
00000000
00000000
00000000
00000000
01FFFF80
01FFFF80
01FFFF80
01C00380
01C00380
01C00380
01C00380
01C00380
01C00380
01C00380
01C00380
01C00380
01C00380
01C00380
01FFFF80
01FFFF80
01FFFF80
00000000
00000000
00000000
00000000
00000000
00000000
00000000
00000000
ENDCHAR

STARTCHAR kor_A4B2
ENCODING 42162
SWIDTH 1024 0
DWIDTH 32 0
BBX 32 32 0 -2
BITMAP
00000000
00000000
00000000
00000000
00000000
00000000
01C00380
01C00380
01C00380
01C00380
01C00380
01C00380
01C00380
01FFFF80
01FFFF80
01FFFF80
01C00380
01C00380
01C00380
01C00380
01C00380
01C00380
01FFFF80
01FFFF80
01FFFF80
00000000
00000000
00000000
00000000
00000000
00000000
00000000
ENDCHAR

STARTCHAR kor_A4B3
ENCODING 42163
SWIDTH 1024 0
DWIDTH 32 0
BBX 32 32 0 -2
BITMAP
00000000
00000000
00000000
00000000
00000000
00000000
07073838
07073838
07073838
07073838
07073838
07073838
07073838
07FF3FF8
07FF3FF8
07FF3FF8
07073838
07073838
07073838
07073838
07073838
07073838
07FF3FF8
07FF3FF8
07FF3FF8
00000000
00000000
00000000
00000000
00000000
00000000
00000000
ENDCHAR

STARTCHAR kor_A4B4
ENCODING 42164
SWIDTH 1024 0
DWIDTH 32 0
BBX 32 32 0 -2
BITMAP
00000000
00000000
00000000
00000000
00000000
00000E00
0E0E0E00
0E0E0E00
0E0E0E00
0E0E0E00
0E0E0E00
0E0E0E00
0E0E0E00
0FFE1F00
0FFE1F00
0FFE1F00
0E0E3F80
0E0E3780
0E0E7BC0
0E0E7BC0
0E0EF1E0
0FFFF1F0
0FFDE0F8
0FFFC078
00018030
00000000
00000000
00000000
00000000
00000000
00000000
00000000
ENDCHAR

STARTCHAR kor_A4B5
ENCODING 42165
SWIDTH 1024 0
DWIDTH 32 0
BBX 32 32 0 -2
BITMAP
00000000
00000000
00000000
00000000
00000000
00038000
00038000
00038000
00038000
00038000
00038000
00038000
0007C000
0007C000
000FE000
000FE000
001FF000
003EF800
007C7C00
00F83E00
03F01F80
0FE00FE0
0FC007E0
070001C0
00000000
00000000
00000000
00000000
00000000
00000000
00000000
00000000
ENDCHAR

STARTCHAR kor_A4B6
ENCODING 42166
SWIDTH 1024 0
DWIDTH 32 0
BBX 32 32 0 -2
BITMAP
00000000
00000000
00000000
00000000
00000000
00000000
001C0700
001C0700
001C0700
001C0700
001C0700
001C0700
001C0700
001E0700
003E0780
003F0F80
007F8FC0
0077DFC0
00F3DDE0
00F1FDF0
01E1FCF8
03E0F87C
0FC0783E
0F83F01E
0703E00C
0001C000
00000000
00000000
00000000
00000000
00000000
00000000
ENDCHAR

STARTCHAR kor_A4B7
ENCODING 42167
SWIDTH 1024 0
DWIDTH 32 0
BBX 32 32 0 -2
BITMAP
00000000
00000000
00000000
00000000
00000000
00000000
00000000
00000000
00000000
001FF800
007FFE00
00FFFF00
01F81F80
01E00780
03C003C0
03C003C0
038001C0
038001C0
038001C0
038001C0
03C003C0
03C003C0
01E00780
01F81F80
00FFFF00
007FFE00
001FF800
00000000
00000000
00000000
00000000
00000000
ENDCHAR

STARTCHAR kor_A4B8
ENCODING 42168
SWIDTH 1024 0
DWIDTH 32 0
BBX 32 32 0 -2
BITMAP
00000000
00000000
00000000
00000000
00000000
00000000
00000000
03FFFF00
03FFFF00
03FFFF00
00070000
00070000
00070000
00070000
00078000
000F8000
000FC000
001FC000
001DE000
003DF000
007CFC00
01F87F00
0FF03FC0
0FC00FC0
07000380
00000000
00000000
00000000
00000000
00000000
00000000
00000000
ENDCHAR

STARTCHAR kor_A4B9
ENCODING 42169
SWIDTH 1024 0
DWIDTH 32 0
BBX 32 32 0 -2
BITMAP
00000000
00000000
00000000
00000000
00000000
00000000
07FFFFE0
07FFFFE0
07FFFFE0
00701C00
00701C00
00701C00
00701C00
00781C00
00781E00
00FC1E00
00FC3F00
01DE3F00
01EF7780
03CFF7C0
07C7F3F0
1F83F1FC
1F00E0FC
0E03E038
0001C000
00000000
00000000
00000000
00000000
00000000
00000000
00000000
ENDCHAR

STARTCHAR kor_A4BA
ENCODING 42170
SWIDTH 1024 0
DWIDTH 32 0
BBX 32 32 0 -2
BITMAP
00000000
00000000
00000000
00000000
00000000
007FF000
007FF000
007FF000
00000000
00000000
07FFFF00
07FFFF00
07FFFF00
00070000
00070000
00070000
00078000
000F8000
000FC000
001FE000
003DF000
00FCFC00
03F87F00
1FF03FE0
1FC00FE0
0F0003C0
00000000
00000000
00000000
00000000
00000000
00000000
ENDCHAR

STARTCHAR kor_A4BB
ENCODING 42171
SWIDTH 1024 0
DWIDTH 32 0
BBX 32 32 0 -2
BITMAP
00000000
00000000
00000000
00000000
00000000
00000000
00000000
03FFFFC0
03FFFFC0
03FFFFC0
000001C0
000001C0
000001C0
000001C0
000001C0
07FFFFC0
07FFFFC0
07FFFFC0
000001C0
000001C0
000001C0
000001C0
000001C0
000001C0
000001C0
000001C0
00000000
00000000
00000000
00000000
00000000
00000000
ENDCHAR

STARTCHAR kor_A4BC
ENCODING 42172
SWIDTH 1024 0
DWIDTH 32 0
BBX 32 32 0 -2
BITMAP
00000000
00000000
00000000
00000000
00000000
00000000
00000000
03FFFFC0
03FFFFC0
03FFFFC0
03800000
03800000
03800000
03800000
03FFFF80
03FFFF80
03FFFF80
03800000
03800000
03800000
03800000
03FFFFC0
03FFFFC0
03FFFFC0
00000000
00000000
00000000
00000000
00000000
00000000
00000000
00000000
ENDCHAR

STARTCHAR kor_A4BD
ENCODING 42173
SWIDTH 1024 0
DWIDTH 32 0
BBX 32 32 0 -2
BITMAP
00000000
00000000
00000000
00000000
00000000
00000000
00000000
03FFFFF0
03FFFFF0
03FFFFF0
00000000
00000700
00380700
00380700
00380700
00380F00
003C0E00
003C0E00
001C0E00
001C1E00
001C1C00
001C1C00
00001C00
0FFFE3FC
0FFFFFFC
0FFFFFFC
00000000
00000000
00000000
00000000
00000000
00000000
ENDCHAR

STARTCHAR kor_A4BE
ENCODING 42174
SWIDTH 1024 0
DWIDTH 32 0
BBX 32 32 0 -2
BITMAP
00000000
00000000
00000000
00000000
003FFC00
003FFC00
003FFC00
00000000
00000000
0FFFFFF8
0FFFFFF8
0FFFFFF8
00000000
00000000
000FF800
003FFE00
007FFF00
00780F00
00F00780
00E00380
00E00380
00E00380
00F00780
00780F00
007FFF00
003FFE00
000FF800
00000000
00000000
00000000
00000000
00000000
ENDCHAR

STARTCHAR kor_A4BF
ENCODING 42175
SWIDTH 1024 0
DWIDTH 32 0
BBX 32 32 0 -2
BITMAP
00000000
00038000
00038000
00038000
00038000
00038000
00038000
00038000
00038000
00038000
00038000
00038000
00038000
0003FF00
0003FF00
0003FF00
00038000
00038000
00038000
00038000
00038000
00038000
00038000
00038000
00038000
00038000
00038000
00038000
00038000
00038000
00000000
00000000
ENDCHAR

STARTCHAR kor_A4C0
ENCODING 42176
SWIDTH 1024 0
DWIDTH 32 0
BBX 32 32 0 -2
BITMAP
00000000
00001C00
00001C00
000E1C00
000E1C00
000E1C00
000E1C00
000E1C00
000E1C00
000E1C00
000E1C00
000E1C00
000E1C00
000FFC00
000FFC00
000FFC00
000E1C00
000E1C00
000E1C00
000E1C00
000E1C00
000E1C00
000E1C00
000E1C00
000E1C00
000E1C00
000E1C00
000E1C00
000E1C00
00001C00
00000000
00000000
ENDCHAR

STARTCHAR kor_A4C1
ENCODING 42177
SWIDTH 1024 0
DWIDTH 32 0
BBX 32 32 0 -2
BITMAP
00000000
00038000
00038000
00038000
00038000
00038000
00038000
00038000
00038000
0003FF00
0003FF00
0003FF00
00038000
00038000
00038000
00038000
0003FF00
0003FF00
0003FF00
00038000
00038000
00038000
00038000
00038000
00038000
00038000
00038000
00038000
00038000
00038000
00000000
00000000
ENDCHAR

STARTCHAR kor_A4C2
ENCODING 42178
SWIDTH 1024 0
DWIDTH 32 0
BBX 32 32 0 -2
BITMAP
00000000
00001C00
00001C00
000E1C00
000E1C00
000E1C00
000E1C00
000E1C00
000E1C00
000E1C00
000E1C00
000FFC00
000FFC00
000FFC00
000E1C00
000E1C00
000E1C00
000FFC00
000FFC00
000FFC00
000E1C00
000E1C00
000E1C00
000E1C00
000E1C00
000E1C00
000E1C00
000E1C00
000E1C00
00001C00
00000000
00000000
ENDCHAR

STARTCHAR kor_A4C3
ENCODING 42179
SWIDTH 1024 0
DWIDTH 32 0
BBX 32 32 0 -2
BITMAP
00000000
00003800
00003800
00003800
00003800
00003800
00003800
00003800
00003800
00003800
00003800
00003800
00003800
001FF800
001FF800
001FF800
00003800
00003800
00003800
00003800
00003800
00003800
00003800
00003800
00003800
00003800
00003800
00003800
00003800
00003800
00000000
00000000
ENDCHAR

STARTCHAR kor_A4C4
ENCODING 42180
SWIDTH 1024 0
DWIDTH 32 0
BBX 32 32 0 -2
BITMAP
00000000
00000700
00000700
0001C700
0001C700
0001C700
0001C700
0001C700
0001C700
0001C700
0001C700
0001C700
0001C700
00FFC700
00FFC700
00FFC700
0001C700
0001C700
0001C700
0001C700
0001C700
0001C700
0001C700
0001C700
0001C700
0001C700
0001C700
0001C700
00000700
00000700
00000000
00000000
ENDCHAR

STARTCHAR kor_A4C5
ENCODING 42181
SWIDTH 1024 0
DWIDTH 32 0
BBX 32 32 0 -2
BITMAP
00000000
00003800
00003800
00003800
00003800
00003800
00003800
00003800
00003800
00003800
001FF800
001FF800
001FF800
00003800
00003800
00003800
00003800
001FF800
001FF800
001FF800
00003800
00003800
00003800
00003800
00003800
00003800
00003800
00003800
00003800
00003800
00000000
00000000
ENDCHAR

STARTCHAR kor_A4C6
ENCODING 42182
SWIDTH 1024 0
DWIDTH 32 0
BBX 32 32 0 -2
BITMAP
00000000
00000700
00000700
0001C700
0001C700
0001C700
0001C700
0001C700
0001C700
0001C700
0001C700
00FFC700
00FFC700
00FFC700
0001C700
0001C700
0001C700
00FFC700
00FFC700
00FFC700
0001C700
0001C700
0001C700
0001C700
0001C700
0001C700
0001C700
0001C700
00000700
00000700
00000000
00000000
ENDCHAR

STARTCHAR kor_A4C7
ENCODING 42183
SWIDTH 1024 0
DWIDTH 32 0
BBX 32 32 0 -2
BITMAP
00000000
00000000
00000000
00000000
00000000
0001C000
0001C000
0001C000
0001C000
0001C000
0001C000
0001C000
0001C000
0001C000
0001C000
0001C000
0001C000
0001C000
0001C000
1FFFFFFE
1FFFFFFE
1FFFFFFE
00000000
00000000
00000000
00000000
00000000
00000000
00000000
00000000
00000000
00000000
ENDCHAR

STARTCHAR kor_A4C8
ENCODING 42184
SWIDTH 1024 0
DWIDTH 32 0
BBX 32 32 0 -2
BITMAP
00000000
00000380
00000380
00000380
00000380
00000380
00000380
00000380
000E0380
000E0380
000E0380
000E0380
000E0380
000E0380
000E03FF
000E03FF
000E03FF
000E3F80
003FFF80
1FFFFF80
1FFFE380
1FF00380
00000380
00000380
00000380
00000380
00000380
00000380
00000380
00000380
00000000
00000000
ENDCHAR

STARTCHAR kor_A4C9
ENCODING 42185
SWIDTH 1024 0
DWIDTH 32 0
BBX 32 32 0 -2
BITMAP
00000000
00000070
00000070
00003870
00003870
00003870
00003870
00003870
00003870
00003870
00703870
00703870
00703870
00703FF0
00703FF0
00703FF0
00703870
0071F870
007FF870
1FFFF870
1FFF3870
1FE03870
00003870
00003870
00003870
00003870
00003870
00003870
00003870
00000070
00000000
00000000
ENDCHAR

STARTCHAR kor_A4CA
ENCODING 42186
SWIDTH 1024 0
DWIDTH 32 0
BBX 32 32 0 -2
BITMAP
00000000
00000380
00000380
00000380
00000380
00000380
00000380
00000380
000E0380
000E0380
000E0380
000E0380
000E0380
000E0380
000E0380
000E0380
000E0380
000E3F80
003FFF80
1FFFFF80
1FFFE380
1FF00380
00000380
00000380
00000380
00000380
00000380
00000380
00000380
00000380
00000000
00000000
ENDCHAR

STARTCHAR kor_A4CB
ENCODING 42187
SWIDTH 1024 0
DWIDTH 32 0
BBX 32 32 0 -2
BITMAP
00000000
00000000
00000000
00000000
00000000
00000000
00001C00
00001C00
000E1C00
000E1C00
000E1C00
000E1C00
000E1C00
000E1C00
000E1C00
000E1C00
000E1C00
000E1C00
000E1C00
1FFFFFFE
1FFFFFFE
1FFFFFFE
00000000
00000000
00000000
00000000
00000000
00000000
00000000
00000000
00000000
00000000
ENDCHAR

STARTCHAR kor_A4CC
ENCODING 42188
SWIDTH 1024 0
DWIDTH 32 0
BBX 32 32 0 -2
BITMAP
00000000
00000000
00000000
00000000
00000000
00000000
00000000
1FFFFFFC
1FFFFFFC
1FFFFFFC
0001C000
0001C000
0001C000
0001C000
0001C000
0001C000
0001C000
0001C000
0001C000
0001C000
0001C000
0001C000
0001C000
0001C000
0001C000
00000000
00000000
00000000
00000000
00000000
00000000
00000000
ENDCHAR

STARTCHAR kor_A4CD
ENCODING 42189
SWIDTH 1024 0
DWIDTH 32 0
BBX 32 32 0 -2
BITMAP
00000000
000000E0
000000E0
000000E0
000000E0
000000E0
000000E0
000000E0
000000E0
000000E0
000000E0
000000E0
00003FE0
000FFFE0
1FFFFFE0
1FFFF0E0
1FFE00E0
000E00E0
000E7FE0
000E7FE0
000E7FE0
000E00E0
000E00E0
000E00E0
000E00E0
000E00E0
000E00E0
000E00E0
000E00E0
000000E0
00000000
00000000
ENDCHAR

STARTCHAR kor_A4CE
ENCODING 42190
SWIDTH 1024 0
DWIDTH 32 0
BBX 32 32 0 -2
BITMAP
00000000
00000038
00000038
00000E38
00000E38
00000E38
00000E38
00000E38
00000E38
00000E38
00000E38
00000E38
0000FE38
001FFE38
1FFFFE38
1FFF8E38
1FF80E38
00380E38
003BFE38
003BFE38
003BFE38
00380E38
00380E38
00380E38
00380E38
00380E38
00380E38
00380E38
00380E38
00000038
00000000
00000000
ENDCHAR

STARTCHAR kor_A4CF
ENCODING 42191
SWIDTH 1024 0
DWIDTH 32 0
BBX 32 32 0 -2
BITMAP
00000000
000000E0
000000E0
000000E0
000000E0
000000E0
000000E0
000000E0
000000E0
000000E0
000000E0
000000E0
00000FE0
0001FFE0
1FFFFFE0
1FFFF8E0
1FFF00E0
000700E0
000700E0
000700E0
000700E0
000700E0
000700E0
000700E0
000700E0
000700E0
000700E0
000700E0
000700E0
000000E0
00000000
00000000
ENDCHAR

STARTCHAR kor_A4D0
ENCODING 42192
SWIDTH 1024 0
DWIDTH 32 0
BBX 32 32 0 -2
BITMAP
00000000
00000000
00000000
00000000
00000000
00000000
00000000
3FFFFFFE
3FFFFFFE
3FFFFFFE
000E1C00
000E1C00
000E1C00
000E1C00
000E1C00
000E1C00
000E1C00
000E1C00
000E1C00
000E1C00
000E1C00
000E1C00
000E1C00
000E1C00
000E0000
00000000
00000000
00000000
00000000
00000000
00000000
00000000
ENDCHAR

STARTCHAR kor_A4D1
ENCODING 42193
SWIDTH 1024 0
DWIDTH 32 0
BBX 32 32 0 -2
BITMAP
00000000
00000000
00000000
00000000
00000000
00000000
00000000
00000000
00000000
00000000
00000000
00000000
00000000
00000000
1FFFFFFE
1FFFFFFE
1FFFFFFE
00000000
00000000
00000000
00000000
00000000
00000000
00000000
00000000
00000000
00000000
00000000
00000000
00000000
00000000
00000000
ENDCHAR

STARTCHAR kor_A4D2
ENCODING 42194
SWIDTH 1024 0
DWIDTH 32 0
BBX 32 32 0 -2
BITMAP
00000000
000001C0
000001C0
000001C0
000001C0
000001C0
000001C0
000001C0
000001C0
000001C0
000001C0
000001C0
000001C0
000001C0
00007FC0
003FFFC0
1FFFFFC0
1FFFC1C0
1FF001C0
000001C0
000001C0
000001C0
000001C0
000001C0
000001C0
000001C0
000001C0
000001C0
000001C0
000001C0
00000000
00000000
ENDCHAR

STARTCHAR kor_A4D3
ENCODING 42195
SWIDTH 1024 0
DWIDTH 32 0
BBX 32 32 0 -2
BITMAP
00000000
0000E000
0000E000
0000E000
0000E000
0000E000
0000E000
0000E000
0000E000
0000E000
0000E000
0000E000
0000E000
0000E000
0000E000
0000E000
0000E000
0000E000
0000E000
0000E000
0000E000
0000E000
0000E000
0000E000
0000E000
0000E000
0000E000
0000E000
0000E000
0000E000
00000000
00000000
ENDCHAR

STARTCHAR kor_A4D4
ENCODING 42196
SWIDTH 1024 0
DWIDTH 32 0
BBX 32 32 0 -2
BITMAP
00000000
00000000
00000000
00000000
00000000
00000000
00000000
00000000
00000000
00000000
00000000
00000000
00000000
00000000
00000000
00000000
00000000
00000000
00000000
00000000
00000000
00000000
00000000
00000000
00000000
00000000
00000000
00000000
00000000
00000000
00000000
00000000
ENDCHAR

STARTCHAR kor_A4D5
ENCODING 42197
SWIDTH 1024 0
DWIDTH 32 0
BBX 32 32 0 -2
BITMAP
00000000
00000000
00000000
00000000
00000000
0E00E000
0E00E000
0E00E000
0E00E000
0E00E000
0E00E000
0E00E000
0E00E000
0E00E000
0E00E000
0E00E000
0E00E000
0E00E000
0E00E000
0E00E000
0E00E000
0FFEFFFE
0FFEFFFE
0FFEFFFE
00000000
00000000
00000000
00000000
00000000
00000000
00000000
00000000
ENDCHAR

STARTCHAR kor_A4D6
ENCODING 42198
SWIDTH 1024 0
DWIDTH 32 0
BBX 32 32 0 -2
BITMAP
00000000
00000000
00000000
00000000
00000000
00000000
07003FFC
07003FFC
07003FFC
07003800
07003800
07003800
07003800
07003800
07003800
07003800
07003800
07003800
07003800
07003800
07003800
07FFBFFE
07FFBFFE
07FFBFFE
00000000
00000000
00000000
00000000
00000000
00000000
00000000
00000000
ENDCHAR

STARTCHAR kor_A4D7
ENCODING 42199
SWIDTH 1024 0
DWIDTH 32 0
BBX 32 32 0 -2
BITMAP
00000000
00000000
00000000
00000000
00000000
0E000E00
0E000E00
0E000E00
0E000E00
0E000E00
0E000E00
0E000E00
0E000F00
0E001F00
0E001F80
0E003B80
0E003BC0
0E0079E0
0E00F0F0
0E01F0F8
0E03E07C
0FFFC03C
0FFF8018
0FFB0000
00000000
00000000
00000000
00000000
00000000
00000000
00000000
00000000
ENDCHAR

STARTCHAR kor_A4D8
ENCODING 42200
SWIDTH 1024 0
DWIDTH 32 0
BBX 32 32 0 -2
BITMAP
00000000
00000000
00000000
00000000
00000000
00000700
1C000700
1C000F80
1C000F80
1C000F80
1C001FC0
1C001DC0
1C001DC0
1C003DE0
1C0038E0
1C0038F0
1C0078F0
1C007070
1C007078
1C00F078
1C00E038
1FFDFFFC
1FFDFFFC
1FFDFFFC
00000000
00000000
00000000
00000000
00000000
00000000
00000000
00000000
ENDCHAR

STARTCHAR kor_A4D9
ENCODING 42201
SWIDTH 1024 0
DWIDTH 32 0
BBX 32 32 0 -2
BITMAP
00000000
00000000
00000000
00000000
00000000
00000000
000001C0
3FDFE1C0
3FDFE1C0
3FFFE1C0
00E0E1C0
00E0E1C0
00E0E1C0
00E0E1C0
3FE0E1E0
3FE0E3E0
3FE0E3F0
3800E778
3800E77C
3800EF3E
3800FE1F
3FF8DE0F
3FF8FC06
3FF8D800
00000000
00000000
00000000
00000000
00000000
00000000
00000000
00000000
ENDCHAR

STARTCHAR kor_A4DA
ENCODING 42202
SWIDTH 1024 0
DWIDTH 32 0
BBX 32 32 0 -2
BITMAP
00000000
00000000
00000000
00000000
00000000
00000000
1FFC7FF8
1FFC7FF8
1FFC7FF8
001C7000
001C7000
001C7000
001C7000
001C7000
1FFC7000
1FFC7000
1FFC7000
1C007000
1C007000
1C007000
1C007000
1C007000
1FFF7FF8
1FFF7FF8
1FFF7FF8
00000000
00000000
00000000
00000000
00000000
00000000
00000000
ENDCHAR

STARTCHAR kor_A4DB
ENCODING 42203
SWIDTH 1024 0
DWIDTH 32 0
BBX 32 32 0 -2
BITMAP
00000000
00000000
00000000
00000000
00000000
00000070
3FEE3870
3FEE3870
3FEE3870
00EE3870
00EE3870
00EE3870
00EE3870
3FEFF870
3FEFF870
3FEFF8F8
380E38F8
380E38DC
380E39DC
380E39DE
380E3BCE
380E3F8F
3FEFF787
3FEFFF07
3FEFF603
00000000
00000000
00000000
00000000
00000000
00000000
00000000
ENDCHAR

STARTCHAR kor_A4DC
ENCODING 42204
SWIDTH 1024 0
DWIDTH 32 0
BBX 32 32 0 -2
BITMAP
00000000
00000000
00000000
00000000
00000000
00000700
3FFC0700
3FFC0F80
3FFC0F80
001C0F80
001C1FC0
001C1DC0
001C1DC0
3FFC3DE0
3FFC38E0
3FFC38E0
380078F0
38007070
38007070
3800F078
3800E038
3800E038
3FFDFFFC
3FFDFFFC
3FFDFFFC
00000000
00000000
00000000
00000000
00000000
00000000
00000000
ENDCHAR

STARTCHAR kor_A4DD
ENCODING 42205
SWIDTH 1024 0
DWIDTH 32 0
BBX 32 32 0 -2
BITMAP
00000000
00000000
00000000
00000000
00000000
00000000
00000000
1FFDFFFC
1FFDFFFC
1FFDFFFC
001C0000
001C0000
001C0000
1FFC1FC0
1FFC7FF0
1FFC7FF0
1C00F078
1C00E038
1C00E038
1C00E038
1C00F078
1FFE7FF0
1FFE7FF0
1FFE1FC0
00000000
00000000
00000000
00000000
00000000
00000000
00000000
00000000
ENDCHAR

STARTCHAR kor_A4DE
ENCODING 42206
SWIDTH 1024 0
DWIDTH 32 0
BBX 32 32 0 -2
BITMAP
00000000
00000000
00000000
00000000
00000000
00000000
0FFE7038
0FFE7038
0FFE7038
0E0E7038
0E0E7038
0E0E7038
0E0E7FF8
0E0E7FF8
0E0E7FF8
0E0E7038
0E0E7038
0E0E7038
0E0E7038
0E0E7038
0E0E7038
0FFE7FF8
0FFE7FF8
0FFE7FF8
00000000
00000000
00000000
00000000
00000000
00000000
00000000
00000000
ENDCHAR

STARTCHAR kor_A4DF
ENCODING 42207
SWIDTH 1024 0
DWIDTH 32 0
BBX 32 32 0 -2
BITMAP
00000000
00000000
00000000
00000000
00000000
00000000
0FFE0380
0FFE0380
0FFE0380
0E0E0380
0E0E0380
0E0E0380
0E0E0780
0E0E0700
0E0E0780
0E0E0F80
0E0E0FC0
0E0E1DC0
0E0E1CE0
0E0E3CF0
0FFE7878
0FFEF83C
0FFFF03E
0003E01E
0001C00C
00000000
00000000
00000000
00000000
00000000
00000000
00000000
ENDCHAR

STARTCHAR kor_A4E0
ENCODING 42208
SWIDTH 1024 0
DWIDTH 32 0
BBX 32 32 0 -2
BITMAP
00000000
00000000
00000000
00000000
00000000
00000000
00000380
0FFE0380
0FFE07C0
0FFE07C0
0E0E07C0
0E0E0FE0
0E0E0EE0
0E0E0EE0
0E0E1EF0
0E0E1C70
0E0E1C70
0E0E3C78
0E0E3838
0E0E3838
0E0E783C
0E0E701C
0E0E701C
0FFEFFFE
0FFEFFFE
0FFEFFFE
00000000
00000000
00000000
00000000
00000000
00000000
ENDCHAR

STARTCHAR kor_A4E1
ENCODING 42209
SWIDTH 1024 0
DWIDTH 32 0
BBX 32 32 0 -2
BITMAP
00000000
00000000
00000000
00000000
007FFF80
007FFF80
007FFF80
00700380
00700380
00700380
00700380
00700380
007FFF80
007FFF80
007FFF80
00000000
000FFC00
003FFF00
003FFF00
00780780
00700380
00700380
00700380
00780780
003FFF00
003FFF00
000FFC00
00000000
00000000
00000000
00000000
00000000
ENDCHAR

STARTCHAR kor_A4E2
ENCODING 42210
SWIDTH 1024 0
DWIDTH 32 0
BBX 32 32 0 -2
BITMAP
00000000
00000000
00000000
00000000
00000000
00000000
0E070000
0E077FF8
0E077FF8
0E077FF8
0E070038
0E070038
0E070038
0E070038
0FFF0038
0FFF0038
0FFF0038
0E070038
0E070038
0E070038
0E070038
0E070038
0E070038
0FFF0038
0FFF0038
0FFF0038
00000000
00000000
00000000
00000000
00000000
00000000
ENDCHAR

STARTCHAR kor_A4E3
ENCODING 42211
SWIDTH 1024 0
DWIDTH 32 0
BBX 32 32 0 -2
BITMAP
00000000
00000000
00000000
00000000
00000000
00000000
0E073FF8
0E073FF8
0E073FF8
0E073800
0E073800
0E073800
0E073800
0E073800
0FFF3800
0FFF3800
0FFF3800
0E073800
0E073800
0E073800
0E073800
0E073800
0E073800
0FFF3FFC
0FFF3FFC
0FFF3FFC
00000000
00000000
00000000
00000000
00000000
00000000
ENDCHAR

STARTCHAR kor_A4E4
ENCODING 42212
SWIDTH 1024 0
DWIDTH 32 0
BBX 32 32 0 -2
BITMAP
00000000
00000000
00000000
00000000
00000000
00000000
0000E000
1C70EFF8
1C70EFF8
1C70EFF8
1C70E038
1C70E038
1C70E038
1C70E038
1FF0E038
1FF1F038
1FF1F038
1C71F838
1C73B838
1C73BC38
1C779C38
1C7F1E38
1FEF1F38
1FFE0F38
1FEC0E38
00000000
00000000
00000000
00000000
00000000
00000000
00000000
ENDCHAR

STARTCHAR kor_A4E5
ENCODING 42213
SWIDTH 1024 0
DWIDTH 32 0
BBX 32 32 0 -2
BITMAP
00000000
00000000
00000000
00000000
00000000
00000000
00000000
38E1C3FE
38E1C3FE
38E1C3FE
38E1C380
38E1C380
38E1C380
38E1C380
3FE1C380
3FE1C380
3FE3E380
38E3E380
38E3F380
38E77380
38E77B80
38EF3B80
38EE3B80
3FFE3FFF
3FDC1FFF
3FFC1BFF
00D80000
00000000
00000000
00000000
00000000
00000000
ENDCHAR

STARTCHAR kor_A4E6
ENCODING 42214
SWIDTH 1024 0
DWIDTH 32 0
BBX 32 32 0 -2
BITMAP
00000000
00000000
00000000
00000000
00000000
00000000
00000000
1C1DFFF0
1C1DFFF0
1C1DFFF0
1C1C0E00
1C1C0E00
1C1C0E00
1C1C0E00
1FFC0E00
1FFC0E00
1FFC1F00
1C1C1F00
1C1C3F80
1C1C3FC0
1C1C7BE0
1C1CF9F8
1C1FF0FE
1FFBE07E
1FFFC01C
1FFB0000
00000000
00000000
00000000
00000000
00000000
00000000
ENDCHAR

STARTCHAR kor_A4E7
ENCODING 42215
SWIDTH 1024 0
DWIDTH 32 0
BBX 32 32 0 -2
BITMAP
00000000
00000000
00000000
00000000
00000000
00000000
0E0E0000
0E0E7FF0
0E0E7FF0
0E0E7FF0
0E0E7000
0E0E7000
0E0E7000
0E0E7000
0FFE7000
0FFE7FE0
0FFE7FE0
0E0E7FE0
0E0E7000
0E0E7000
0E0E7000
0E0E7000
0E0E7000
0FFE7FF8
0FFE7FF8
0FFE7FF8
00000000
00000000
00000000
00000000
00000000
00000000
ENDCHAR

STARTCHAR kor_A4E8
ENCODING 42216
SWIDTH 1024 0
DWIDTH 32 0
BBX 32 32 0 -2
BITMAP
00000000
00000000
00000000
00700380
00700380
00700380
00700380
007FFF80
007FFF80
007FFF80
00700380
00700380
00700380
007FFF80
007FFF80
007FFF80
00000000
000FFC00
003FFF00
003FFF00
00780780
00700380
00700380
00700380
00780780
003FFF00
003FFF00
000FFC00
00000000
00000000
00000000
00000000
ENDCHAR

STARTCHAR kor_A4E9
ENCODING 42217
SWIDTH 1024 0
DWIDTH 32 0
BBX 32 32 0 -2
BITMAP
00000000
00000000
00000000
00000000
038E71C0
038E71C0
038E71C0
038E71C0
03FE7FC0
03FE7FC0
03FE7FC0
038E71C0
038E71C0
038E71C0
03FE7FC0
03FE7FC0
03FE7FC0
00000000
001FF800
007FFE00
007FFE00
00F00F00
00E00700
00E00700
00E00700
00F00F00
007FFE00
007FFE00
001FF800
00000000
00000000
00000000
ENDCHAR

STARTCHAR kor_A4EA
ENCODING 42218
SWIDTH 1024 0
DWIDTH 32 0
BBX 32 32 0 -2
BITMAP
00000000
00000000
00000000
00000000
00000000
00000000
00700000
0070FFF0
0070FFF0
0070FFF0
00700070
00700070
00F00070
00E00070
00F00070
01F00070
01F80070
03BC0070
039E0070
078F0070
0F0F8070
1F07C070
3E03E070
3C01E070
1800C000
00000000
00000000
00000000
00000000
00000000
00000000
00000000
ENDCHAR

STARTCHAR kor_A4EB
ENCODING 42219
SWIDTH 1024 0
DWIDTH 32 0
BBX 32 32 0 -2
BITMAP
00000000
00000000
00000000
00000000
00000000
00000000
00701C00
00701C00
00701C00
00701C00
00701C00
00F01C00
00E01C00
00E01C00
01F01C00
01F01C00
03F81C00
03BC1C00
079E1C00
070F1C00
0F0F9C00
1E07DFFF
3E03DFFF
3C019FFF
18000000
00000000
00000000
00000000
00000000
00000000
00000000
00000000
ENDCHAR

STARTCHAR kor_A4EC
ENCODING 42220
SWIDTH 1024 0
DWIDTH 32 0
BBX 32 32 0 -2
BITMAP
00000000
00000000
00000000
00000000
00000000
00000000
00700000
00703FFC
00703FFC
00703FFC
00703800
00703800
00F03800
00E03800
00F03800
01F03800
01F83800
03B83800
03BC3800
079E3800
0F0F3800
1F0FB800
3E07BFFE
3C03BFFE
1801BFFE
00000000
00000000
00000000
00000000
00000000
00000000
00000000
ENDCHAR

STARTCHAR kor_A4ED
ENCODING 42221
SWIDTH 1024 0
DWIDTH 32 0
BBX 32 32 0 -2
BITMAP
00000000
00000000
00000000
00000000
00000000
00000000
00703838
00703838
00703838
00703838
00703838
00703838
00F03838
00E03FF8
01F03FF8
01F83FF8
01B83838
03BC3838
039C3838
079E3838
0F0E3838
0F0F3838
1E07BFF8
3C07BFF8
3C03BFF8
18018000
00000000
00000000
00000000
00000000
00000000
00000000
ENDCHAR

STARTCHAR kor_A4EE
ENCODING 42222
SWIDTH 1024 0
DWIDTH 32 0
BBX 32 32 0 -2
BITMAP
00000000
00000000
00000000
00000000
00000000
00000000
00700000
0070FFF0
0070FFF0
0070FFF0
00700700
00700700
00F00700
00E00700
00F00700
01F00780
01F80F80
03B80FC0
03BC1FE0
079E1DF0
0F0F3CF8
1F0F7C7C
3E07F83F
3C03F01F
1801E00E
0000C000
00000000
00000000
00000000
00000000
00000000
00000000
ENDCHAR

STARTCHAR kor_A4EF
ENCODING 42223
SWIDTH 1024 0
DWIDTH 32 0
BBX 32 32 0 -2
BITMAP
00000000
00000000
00000000
00000000
00000000
0001C000
0001C000
0003E000
0003E000
0007F000
00077000
000F7800
000E3800
001E3C00
001C1C00
003C1E00
00380E00
00780F00
00700700
00F00780
00E00380
01E003C0
01C001C0
03FFFFE0
03FFFFE0
03FFFFE0
00000000
00000000
00000000
00000000
00000000
00000000
ENDCHAR

STARTCHAR kor_A4F0
ENCODING 42224
SWIDTH 1024 0
DWIDTH 32 0
BBX 32 32 0 -2
BITMAP
00000000
00000000
00000000
00000000
00000000
00000000
00000000
00000000
03F007E0
0FFC1FF8
1FFE3FFC
1E0E3C3C
3C0F781E
3807700E
3807700E
3807700E
3807700E
3807700E
3807700E
3807700E
3C0F781E
1E1E3C3C
1FFE3FFC
0FFC1FF8
03F007E0
00000000
00000000
00000000
00000000
00000000
00000000
00000000
ENDCHAR

STARTCHAR kor_A4F1
ENCODING 42225
SWIDTH 1024 0
DWIDTH 32 0
BBX 32 32 0 -2
BITMAP
00000000
00000000
00000000
00000000
00000000
00000000
00000000
00000000
00000000
003FE000
00FFF800
01FFFC00
03F07E00
03C01E00
07800F00
07800F00
07000700
07000700
07000700
07000700
07800F00
07800F00
03C01E00
03F07E00
01FFFC00
00FFF800
003FE000
00000000
00000000
00000000
00000000
00000000
ENDCHAR

STARTCHAR kor_A4F2
ENCODING 42226
SWIDTH 1024 0
DWIDTH 32 0
BBX 32 32 0 -2
BITMAP
00000000
00000000
00000000
00000000
00000000
00000000
00000000
07C01C00
1FF01C00
3FF81C00
3C781C00
783C1C00
701C1C00
701C3C00
701C3E00
701C3E00
701C7F00
701C7700
783CF780
783CE3C0
3C79E1E0
3FFBC1F0
1FF7C0F8
07CF8078
000F0030
00060000
00000000
00000000
00000000
00000000
00000000
00000000
ENDCHAR

STARTCHAR kor_A4F3
ENCODING 42227
SWIDTH 1024 0
DWIDTH 32 0
BBX 32 32 0 -2
BITMAP
00000000
00000000
00000000
00000000
00000000
00000000
00000700
00000700
07E00F80
1FF80F80
3FFC0F80
3C3C1FC0
781E1DC0
700E1DC0
700E3DE0
700E38E0
700E38E0
700E78F0
700E7070
781E7070
781EF078
3C3CE038
3FFCE038
1FF9FFFC
07E1FFFC
0001FFFC
00000000
00000000
00000000
00000000
00000000
00000000
ENDCHAR

STARTCHAR kor_A4F4
ENCODING 42228
SWIDTH 1024 0
DWIDTH 32 0
BBX 32 32 0 -2
BITMAP
00000000
00000000
00000000
00000000
00FFFFE0
00FFFFE0
00FFFFE0
00000000
000E1C00
000F1C00
000F1C00
00073C00
00073800
03F8FFF0
03FFFFF0
03FFFFF0
00000000
000FFC00
003FFF00
003FFF00
00780780
00700380
00700380
00700380
00780780
003FFF00
003FFF00
000FFC00
00000000
00000000
00000000
00000000
ENDCHAR

STARTCHAR kor_A4F5
ENCODING 42229
SWIDTH 1024 0
DWIDTH 32 0
BBX 32 32 0 -2
BITMAP
00000000
00000000
00000000
00000000
00000000
01FF07FC
01FF07FC
01FF07FC
00000000
00000000
1FFFDFFF
1FFFDFFF
1FFFDFFF
00000000
00000000
00FE03F8
03FF8FFE
03FF8FFE
0783DE0F
0701DC07
0701DC07
0701DC07
0701DC07
0783DE0F
03FF8FFE
03FF8FFE
00FE03F8
00000000
00000000
00000000
00000000
00000000
ENDCHAR

STARTCHAR kor_A4F6
ENCODING 42230
SWIDTH 1024 0
DWIDTH 32 0
BBX 32 32 0 -2
BITMAP
00000000
00000000
00000000
00000000
00000000
00000000
0FFFFFF8
0FFFFFF8
0FFFFFF8
00000000
00000000
00000000
001FF800
007FFE00
00FFFF00
00F00F00
01E00780
01C00380
01C00380
01C00380
01C00380
01E00780
00F00F00
00FFFF00
007FFE00
001FF800
00000000
00000000
00000000
00000000
00000000
00000000
ENDCHAR

STARTCHAR kor_A4F7
ENCODING 42231
SWIDTH 1024 0
DWIDTH 32 0
BBX 32 32 0 -2
BITMAP
00000000
000001C0
000001C0
000001C0
000001C0
000001C0
000001C0
000001C0
000001C0
000001FF
000001FF
0000E1FF
0070E1C0
0070E1C0
0070E1C0
0070E1C0
0070E1FF
0070E1FF
0070FFFF
007FFFC0
3FFFFFC0
3FFFC1C0
3FC001C0
000001C0
000001C0
000001C0
000001C0
000001C0
000001C0
000001C0
00000000
00000000
ENDCHAR

STARTCHAR kor_A4F8
ENCODING 42232
SWIDTH 1024 0
DWIDTH 32 0
BBX 32 32 0 -2
BITMAP
00000000
0000001C
0000001C
0000071C
0000071C
0000071C
0000071C
0000071C
0000071C
0000071C
000007FC
0001C7FC
0001C7FC
00E1C71C
00E1C71C
00E1C71C
00E1C71C
00E1C7FC
00E1FFFC
00FFFFFC
3FFFFF1C
3FFF871C
3FC0071C
0000071C
0000071C
0000071C
0000071C
0000071C
0000001C
0000001C
00000000
00000000
ENDCHAR

STARTCHAR kor_A4F9
ENCODING 42233
SWIDTH 1024 0
DWIDTH 32 0
BBX 32 32 0 -2
BITMAP
00000000
000000E0
000000E0
000000E0
000000E0
000000E0
000000E0
000000E0
000000E0
000000E0
000000E0
000000E0
0070E0E0
0070E0E0
0070E0E0
0070E0E0
0070E0E0
0070E0E0
0070FFE0
007FFFE0
3FFFFFE0
3FFFE0E0
3FE000E0
000000E0
000000E0
000000E0
000000E0
000000E0
000000E0
000000E0
00000000
00000000
ENDCHAR

STARTCHAR kor_A4FA
ENCODING 42234
SWIDTH 1024 0
DWIDTH 32 0
BBX 32 32 0 -2
BITMAP
00000000
00000038
00000038
00000038
00000038
00000038
00000038
00000038
00000038
00000038
00000038
00000038
0000FF38
003FFF38
3FFFFF38
3FFF8038
3FE39FF8
00E39FF8
00E39FF8
00E38038
00E38038
00E39FF8
00E39FF8
00E39FF8
00E38038
00E38038
00E38038
00E38038
00E38038
00E38038
00000000
00000000
ENDCHAR

STARTCHAR kor_A4FB
ENCODING 42235
SWIDTH 1024 0
DWIDTH 32 0
BBX 32 32 0 -2
BITMAP
00000000
00000007
00000007
000001C7
000001C7
000001C7
000001C7
000001C7
000001C7
000001C7
000001C7
000001C7
0001FDC7
007FFDC7
3FFFFDC7
3FFF01C7
3FE77FC7
00E77FC7
00E77FC7
00E701C7
00E701C7
00E77FC7
00E77FC7
00E77FC7
00E701C7
00E701C7
00E701C7
00E701C7
000701C7
00000007
00000000
00000000
ENDCHAR

STARTCHAR kor_A4FC
ENCODING 42236
SWIDTH 1024 0
DWIDTH 32 0
BBX 32 32 0 -2
BITMAP
00000000
000000E0
000000E0
000000E0
000000E0
000000E0
000000E0
000000E0
000000E0
000000E0
000000E0
000000E0
000000E0
000000E0
00007FE0
003FFFE0
3FFFFFE0
3FFFE0E0
3FF0E0E0
0070E0E0
0070E0E0
0070E0E0
0070E0E0
0070E0E0
0070E0E0
0070E0E0
0070E0E0
0070E0E0
0070E0E0
0070E0E0
00000000
00000000
ENDCHAR

STARTCHAR kor_A4FD
ENCODING 42237
SWIDTH 1024 0
DWIDTH 32 0
BBX 32 32 0 -2
BITMAP
00000000
00000000
00000000
00000000
00000000
00000000
00000000
00000000
00000000
00000000
00000000
00000000
00000000
0003C000
0007E000
0007E000
0007E000
0007E000
0003C000
00000000
00000000
00000000
00000000
00000000
00000000
00000000
00000000
00000000
00000000
00000000
00000000
00000000
ENDCHAR

STARTCHAR kor_A4FE
ENCODING 42238
SWIDTH 1024 0
DWIDTH 32 0
BBX 32 32 0 -2
BITMAP
00000000
00000700
00000700
00000700
00000700
00000700
00000700
00000700
00000700
00000700
00000700
00000700
00780700
00FC0700
00FC0700
00FC0700
00FC0700
00780700
00000700
00000700
00000700
00000700
00000700
00000700
00000700
00000700
00000700
00000700
00000700
00000700
00000000
00000000
ENDCHAR

STARTCHAR kor_A5A1
ENCODING 42401
SWIDTH 1024 0
DWIDTH 32 0
BBX 32 32 0 -2
BITMAP
00000000
00000000
00000000
0003C000
0003C000
0003C000
00000000
00000000
00000000
0003C000
0003C000
0003C000
0003C000
0003C000
0003C000
0003C000
0003C000
0003C000
0003C000
0003C000
0003C000
0003C000
0003C000
0003C000
0003C000
0003C000
0003C000
0003C000
00000000
00000000
00000000
00000000
ENDCHAR

STARTCHAR kor_A5A2
ENCODING 42402
SWIDTH 1024 0
DWIDTH 32 0
BBX 32 32 0 -2
BITMAP
00000000
00000000
003C1E00
003C1E00
003C1E00
003C1E00
00000000
00000000
00000000
003C1E00
003C1E00
003C1E00
003C1E00
003C1E00
003C1E00
003C1E00
003C1E00
003C1E00
003C1E00
003C1E00
003C1E00
003C1E00
003C1E00
003C1E00
003C1E00
003C1E00
003C1E00
003C1E00
00000000
00000000
00000000
00000000
ENDCHAR

STARTCHAR kor_A5A3
ENCODING 42403
SWIDTH 1024 0
DWIDTH 32 0
BBX 32 32 0 -2
BITMAP
00000000
00000000
07878780
07878780
07878780
07878780
00000000
00000000
00000000
07878780
07878780
07878780
07878780
07878780
07878780
07878780
07878780
07878780
07878780
07878780
07878780
07878780
07878780
07878780
07878780
07878780
07878780
07878780
00000000
00000000
00000000
00000000
ENDCHAR

STARTCHAR kor_A5A4
ENCODING 42404
SWIDTH 1024 0
DWIDTH 32 0
BBX 32 32 0 -2
BITMAP
00000000
00000000
03C00000
03C00000
03C00000
03C00000
00000000
00000000
00000000
03C70038
03C70038
03C78078
03C78078
03C3C070
03C3C0F0
03C1E0E0
03C1E0E0
03C1F1E0
03C0F1C0
03C0FBC0
03C07BC0
03C07F80
03C03F80
03C03F00
03C03F00
03C01E00
03C01E00
03C01E00
00000000
00000000
00000000
00000000
ENDCHAR

STARTCHAR kor_A5A5
ENCODING 42405
SWIDTH 1024 0
DWIDTH 32 0
BBX 32 32 0 -2
BITMAP
00000000
00000000
00000000
00000000
00000000
00000000
00000000
00000000
00000000
00E001E0
00F001E0
00F003C0
007803C0
00780780
00380780
003C0F00
003C0F00
001E1E00
001E1E00
000F3C00
000F3C00
000F7800
0007F800
0007F000
0003F000
0003E000
0001E000
0001E000
00000000
00000000
00000000
00000000
ENDCHAR

STARTCHAR kor_A5A6
ENCODING 42406
SWIDTH 1024 0
DWIDTH 32 0
BBX 32 32 0 -2
BITMAP
00000000
00000000
000003C0
000003C0
000003C0
000003C0
00000000
00000000
00000000
07001BC0
07801BC0
07803BC0
03C03BC0
03C07BC0
01E07BC0
01E0F3C0
00F0F3C0
00F1E3C0
0079E3C0
007BC3C0
003BC3C0
003F83C0
001F83C0
001F03C0
000F03C0
000F03C0
000603C0
000603C0
00000000
00000000
00000000
00000000
ENDCHAR

STARTCHAR kor_A5A7
ENCODING 42407
SWIDTH 1024 0
DWIDTH 32 0
BBX 32 32 0 -2
BITMAP
00000000
00000000
00003C78
00003C78
00003C78
00003C78
00000000
00000000
00000000
0381BC78
0381BC78
0381BC78
03C3BC78
01C3BC78
01C3BC78
01C3BC78
01E7BC78
00E73C78
00E73C78
00E73C78
00EF3C78
006E3C78
006E3C78
006E3C78
007E3C78
003C3C78
003C3C78
003C3C78
00183C78
00000000
00000000
00000000
ENDCHAR

STARTCHAR kor_A5A8
ENCODING 42408
SWIDTH 1024 0
DWIDTH 32 0
BBX 32 32 0 -2
BITMAP
00000000
00000000
00007BDE
00007BDE
00007BDE
00007BDE
00000000
00000000
00000000
07037BDE
07037BDE
07037BDE
07877BDE
03877BDE
03877BDE
03877BDE
03CF7BDE
01CE7BDE
01CE7BDE
01CE7BDE
01DE7BDE
00DC7BDE
00DC7BDE
00DC7BDE
00FC7BDE
00787BDE
00787BDE
00787BDE
00307BDE
00000000
00000000
00000000
ENDCHAR

STARTCHAR kor_A5A9
ENCODING 42409
SWIDTH 1024 0
DWIDTH 32 0
BBX 32 32 0 -2
BITMAP
00000000
00000000
03C00000
03C00000
03C00000
03C00000
00000000
00000000
00000000
03C00000
03CF003C
03CF807C
03C7C0F8
03C3E1F0
03C1F3E0
03C0F7C0
03C07F80
03C03F00
03C01E00
03C00C00
03C03F00
03C07F80
03C0F7C0
03C1F3E0
03C3E1F0
03C7C0F8
03CF807C
03CF003C
00000000
00000000
00000000
00000000
ENDCHAR

STARTCHAR kor_A5AA
ENCODING 42410
SWIDTH 1024 0
DWIDTH 32 0
BBX 32 32 0 -2
BITMAP
00000000
00000000
00000000
00000000
00000000
00000000
00000000
00000000
078001E0
07C003E0
03E007C0
01F00F80
00F81F00
007C3E00
003E7C00
001EF800
000FF000
0007E000
0003C000
000FF000
001EF800
003E7C00
007C3E00
00F81F00
01F00F80
03E007C0
07C003E0
078001E0
00000000
00000000
00000000
00000000
ENDCHAR

STARTCHAR kor_A5B0
ENCODING 42416
SWIDTH 1024 0
DWIDTH 32 0
BBX 32 32 0 -2
BITMAP
00000000
00000000
00000000
0003C000
0003C000
0003C000
0003C000
0003C000
0003C000
0003C000
0003C000
0003C000
0003C000
0003C000
0003C000
0003C000
0003C000
0003C000
0003C000
0003C000
0003C000
0003C000
0003C000
0003C000
0003C000
0003C000
0003C000
0003C000
00000000
00000000
00000000
00000000
ENDCHAR

STARTCHAR kor_A5B1
ENCODING 42417
SWIDTH 1024 0
DWIDTH 32 0
BBX 32 32 0 -2
BITMAP
00000000
00000000
00000000
003C3C00
003C3C00
003C3C00
003C3C00
003C3C00
003C3C00
003C3C00
003C3C00
003C3C00
003C3C00
003C3C00
003C3C00
003C3C00
003C3C00
003C3C00
003C3C00
003C3C00
003C3C00
003C3C00
003C3C00
003C3C00
003C3C00
003C3C00
003C3C00
003C3C00
00000000
00000000
00000000
00000000
ENDCHAR

STARTCHAR kor_A5B2
ENCODING 42418
SWIDTH 1024 0
DWIDTH 32 0
BBX 32 32 0 -2
BITMAP
00000000
00000000
00000000
00F1E3C0
00F1E3C0
00F1E3C0
00F1E3C0
00F1E3C0
00F1E3C0
00F1E3C0
00F1E3C0
00F1E3C0
00F1E3C0
00F1E3C0
00F1E3C0
00F1E3C0
00F1E3C0
00F1E3C0
00F1E3C0
00F1E3C0
00F1E3C0
00F1E3C0
00F1E3C0
00F1E3C0
00F1E3C0
00F1E3C0
00F1E3C0
00F1E3C0
00000000
00000000
00000000
00000000
ENDCHAR

STARTCHAR kor_A5B3
ENCODING 42419
SWIDTH 1024 0
DWIDTH 32 0
BBX 32 32 0 -2
BITMAP
00000000
00000000
00000000
03CE00E0
03CE00E0
03CF00E0
03CF01E0
03CF01E0
03C781C0
03C781C0
03C783C0
03C383C0
03C3C380
03C3C380
03C3C780
03C1C780
03C1E700
03C1E700
03C1EF00
03C0EF00
03C0EE00
03C0EE00
03C07E00
03C07E00
03C07C00
03C03C00
03C03C00
03C03C00
00000000
00000000
00000000
00000000
ENDCHAR

STARTCHAR kor_A5B4
ENCODING 42420
SWIDTH 1024 0
DWIDTH 32 0
BBX 32 32 0 -2
BITMAP
00000000
00000000
00000000
03C001E0
03E001E0
03E003E0
01E003C0
00F003C0
00F00780
00F00780
00780780
00780700
003C0F00
003C0F00
003C0E00
001E1E00
001E1E00
001E1C00
000F3C00
000F3C00
00073800
00077800
00077800
0003F000
0003F000
0001E000
0001E000
0001E000
00000000
00000000
00000000
00000000
ENDCHAR

STARTCHAR kor_A5B5
ENCODING 42421
SWIDTH 1024 0
DWIDTH 32 0
BBX 32 32 0 -2
BITMAP
00000000
00000000
00000000
1E01E780
1E01E780
1E01E780
0E01C780
0F01C780
0F03C780
0703C780
07038780
07838780
07878780
03878780
03870780
03CF0780
03CF0780
01CF0780
01CE0780
01DE0780
01DE0780
00DC0780
00FC0780
00FC0780
00FC0780
00780780
00780780
00780780
00000000
00000000
00000000
00000000
ENDCHAR

STARTCHAR kor_A5B6
ENCODING 42422
SWIDTH 1024 0
DWIDTH 32 0
BBX 32 32 0 -2
BITMAP
00000000
00000000
00000000
0E0379E0
0E0379E0
0E0379E0
0F0379E0
0F0779E0
070779E0
070779E0
078779E0
078F79E0
038F79E0
038E79E0
03CE79E0
03DE79E0
01DE79E0
01DC79E0
01FC79E0
01FC79E0
00FC79E0
00F879E0
00F879E0
00F879E0
007079E0
007079E0
007079E0
007079E0
00000000
00000000
00000000
00000000
ENDCHAR

STARTCHAR kor_A5B7
ENCODING 42423
SWIDTH 1024 0
DWIDTH 32 0
BBX 32 32 0 -2
BITMAP
00000000
00000000
00000000
1E03F770
1E03F770
1E03F770
0F077770
0F077770
0F077770
07077770
078F7770
078F7770
038E7770
038E7770
03DE7770
03DE7770
01DC7770
01DC7770
01FC7770
01FC7770
00F87770
00F87770
00F87770
00F87770
00707770
00707770
00707770
00707770
00000000
00000000
00000000
00000000
ENDCHAR

STARTCHAR kor_A5B8
ENCODING 42424
SWIDTH 1024 0
DWIDTH 32 0
BBX 32 32 0 -2
BITMAP
00000000
00000000
00000000
03CF00F0
03CF00F0
03C780F0
03C781E0
03C3C1E0
03C3C3C0
03C1E3C0
03C1E780
03C0F780
03C0FF00
03C07F00
03C07F00
03C03E00
03C03E00
03C07F00
03C07F00
03C0F780
03C0F780
03C1E3C0
03C1E3C0
03C3C1E0
03C3C1E0
03C780F0
03C780F0
03CF0078
03CF0078
00000000
00000000
00000000
ENDCHAR

STARTCHAR kor_A5B9
ENCODING 42425
SWIDTH 1024 0
DWIDTH 32 0
BBX 32 32 0 -2
BITMAP
00000000
00000000
00000000
0F000078
0F8000F8
07C001F0
03E003E0
01F007C0
00F80F80
007C1F00
003E3E00
001F7C00
000FF800
0007F000
0003E000
0001C000
0003F000
0007F800
000F7C00
001F3E00
003E1F00
007C0F80
00F807C0
01F003E0
03E001F0
07C000F8
0F80007C
0F00003C
00000000
00000000
00000000
00000000
ENDCHAR

STARTCHAR kor_A5C1
ENCODING 42433
SWIDTH 1024 0
DWIDTH 32 0
BBX 32 32 0 -2
BITMAP
00000000
00000000
00000000
00000000
00000000
000003C0
000007C0
00000FC0
00001FC0
00003FC0
00003BC0
00007BC0
0000F3C0
0001F3C0
0003E3C0
0003C3C0
000783C0
000F03C0
001F03C0
003EFFC0
003FFFC0
007803C0
00F803C0
01F003C0
07E003C0
3FD81FF8
3FF81FF8
3FF81FF8
00000000
00000000
00000000
00000000
ENDCHAR

STARTCHAR kor_A5C2
ENCODING 42434
SWIDTH 1024 0
DWIDTH 32 0
BBX 32 32 0 -2
BITMAP
00000000
00000000
00000000
00000000
00000000
03FFFF00
03FFFF80
03FFFFC0
007803E0
007801E0
007801E0
007801E0
00F801C0
00F003C0
00FFFFC0
00FFFF80
00FFFF80
01F00700
01F00780
01E003C0
01E003C0
01E003C0
03E003C0
03E00780
03C00F80
0FFFFF00
0FFFFE00
0FFFF800
00000000
00000000
00000000
00000000
ENDCHAR

STARTCHAR kor_A5C3
ENCODING 42435
SWIDTH 1024 0
DWIDTH 32 0
BBX 32 32 0 -2
BITMAP
00000000
00000000
00000000
00000000
00000000
01FFFFE0
01FFFFE0
01FFFFE0
003C01E0
003C01E0
003C0060
003C0060
003C0000
007C0000
00780000
00780000
00780000
00780000
00780000
00780000
00F80000
00F00000
00F00000
00F00000
00F00000
07FE0000
07FE0000
07FE0000
00000000
00000000
00000000
00000000
ENDCHAR

STARTCHAR kor_A5C4
ENCODING 42436
SWIDTH 1024 0
DWIDTH 32 0
BBX 32 32 0 -2
BITMAP
00000000
00000000
00000000
00000000
00000000
000001E0
000003E0
000007E0
00000FE0
00001DE0
00003DE0
000079E0
0000F3E0
0001E3C0
0003C3C0
000783C0
000F03C0
001E03C0
003C03C0
007807C0
00F00780
01E00780
03C00780
07800780
0F7FFF80
0FFFFF80
0FFFFF80
0FFFFF80
00000000
00000000
00000000
00000000
ENDCHAR

STARTCHAR kor_A5C5
ENCODING 42437
SWIDTH 1024 0
DWIDTH 32 0
BBX 32 32 0 -2
BITMAP
00000000
00000000
00000000
00000000
00000000
00FFFFFC
00FFFFFC
00FFFFFC
003C003C
003C000C
003C000C
003C0380
007C0380
007BFF80
007FFF80
007FFF80
00780700
00780700
00780700
00F80700
00F00000
00F000C0
00F000C0
00F003C0
00F003C0
03FFFFC0
03FFFFC0
03FFFFC0
00000000
00000000
00000000
00000000
ENDCHAR

STARTCHAR kor_A5C6
ENCODING 42438
SWIDTH 1024 0
DWIDTH 32 0
BBX 32 32 0 -2
BITMAP
00000000
00000000
00000000
00000000
00000000
007FFFE0
007FFFE0
007FFFE0
007801E0
007807C0
00600F80
00601F00
00003E00
00007C00
0000F800
0001F000
0003E000
0007C000
000F8000
001F0000
003E0000
007C0180
00F80180
01F00780
03E00780
03DFFF80
03FFFF80
03FFFF80
00000000
00000000
00000000
00000000
ENDCHAR

STARTCHAR kor_A5C7
ENCODING 42439
SWIDTH 1024 0
DWIDTH 32 0
BBX 32 32 0 -2
BITMAP
00000000
00000000
00000000
00000000
00000000
07FE1FF8
07FE1FF8
07FE1FF8
00F003C0
00F003C0
00F003C0
00F003C0
01F007C0
01E00780
01E00780
01FFFF80
01FFFF80
01FFFF80
01E00780
01E00780
03E00780
03C00F80
03C00F00
03C00F00
03C00F00
1FF07FE0
1FF07FE0
1FF07FE0
00000000
00000000
00000000
00000000
ENDCHAR

STARTCHAR kor_A5C8
ENCODING 42440
SWIDTH 1024 0
DWIDTH 32 0
BBX 32 32 0 -2
BITMAP
00000000
00000000
00000000
0007F000
001FFC00
003FFF00
007C1F80
00F007C0
00E003C0
01E001E0
01E001E0
03C001E0
03C001E0
03DC1DE0
03DC1DE0
03FFFDE0
03BFFDE0
03BFFDE0
03B839E0
03F839C0
03C003C0
03C003C0
03C00380
03C00780
01E00F80
01F01F00
00FC7E00
007FFC00
003FF000
000FC000
00000000
00000000
ENDCHAR

STARTCHAR kor_A5C9
ENCODING 42441
SWIDTH 1024 0
DWIDTH 32 0
BBX 32 32 0 -2
BITMAP
00000000
00000000
00000000
00000000
00000000
0007FE00
0007FE00
0007FE00
0000F000
0000F000
0000F000
0001F000
0001E000
0001E000
0001E000
0001E000
0001E000
0001E000
0001E000
0003E000
0003C000
0003C000
0003C000
0003C000
0003C000
001FF800
001FF800
001FF800
00000000
00000000
00000000
00000000
ENDCHAR

STARTCHAR kor_A5CA
ENCODING 42442
SWIDTH 1024 0
DWIDTH 32 0
BBX 32 32 0 -2
BITMAP
00000000
00000000
00000000
00000000
00000000
03FE7FF8
03FE7FF8
03FE7FF8
00F00F00
00F03E00
00F07C00
00F0F800
01F1F000
01E3E000
01E7C000
01EF8000
01FFE000
01DFE000
01FDF800
01F9F800
01F07E00
03E07E00
03C01F80
03C01F80
03C007C0
0FF83FF8
0FF83FF8
0FF83FF8
00000000
00000000
00000000
00000000
ENDCHAR

STARTCHAR kor_A5CB
ENCODING 42443
SWIDTH 1024 0
DWIDTH 32 0
BBX 32 32 0 -2
BITMAP
00000000
00000000
00000000
00000000
00000000
000003C0
000007C0
00000FC0
00001FC0
00003FC0
00007BC0
00007BC0
0000F3C0
0000F3C0
0001E3C0
0003E3C0
0007C3C0
000F83C0
000F03C0
001E03C0
003E03C0
007C03C0
00F803C0
01F003C0
03E003C0
1FDC1FF8
1FFC1FF8
1FFC1FF8
00000000
00000000
00000000
00000000
ENDCHAR

STARTCHAR kor_A5CC
ENCODING 42444
SWIDTH 1024 0
DWIDTH 32 0
BBX 32 32 0 -2
BITMAP
00000000
00000000
00000000
00000000
0000001F
0FF0003F
0FF0003F
0FF0007E
03F8007E
037800FE
037801DE
03FC01DE
03BC03DE
07BE07BE
071E07BC
071E0F3C
071F1F3C
070F1E3C
070F3C3C
070F7C3C
0707787C
0F07F078
0E07F078
0E03E078
0E03E078
7F03C1FF
7F03C1FF
7F0001FF
00000000
00000000
00000000
00000000
ENDCHAR

STARTCHAR kor_A5CD
ENCODING 42445
SWIDTH 1024 0
DWIDTH 32 0
BBX 32 32 0 -2
BITMAP
00000000
00000000
00000000
00000000
00000000
03FC03FE
03FC03FE
03FF03FE
007F0070
007F0070
006F0070
007FC070
0073C070
00F3C0F0
00E3C0E0
00E3F0E0
00E3F0E0
00E0F0E0
00E0F0E0
00E0FDE0
00E0FDC0
01E03DC0
01C03DC0
01C03FC0
01C03FC0
0FF00FC0
0FF00FC0
0FF00FC0
00000000
00000000
00000000
00000000
ENDCHAR

STARTCHAR kor_A5CE
ENCODING 42446
SWIDTH 1024 0
DWIDTH 32 0
BBX 32 32 0 -2
BITMAP
00000000
00000000
00000000
00000000
00000000
01FFFFF8
01FFFFF8
01FFFFF8
03C000E0
038000E0
038000E0
03B807E0
00380700
003FFF00
003FFF00
007FFF00
00700E00
00700E00
00700E00
00700E00
00000000
038001C0
038001C0
038001C0
078001C0
077FFFC0
07FFFF80
07FFFF80
07000380
07000380
00000000
00000000
ENDCHAR

STARTCHAR kor_A5CF
ENCODING 42447
SWIDTH 1024 0
DWIDTH 32 0
BBX 32 32 0 -2
BITMAP
00000000
00000000
00000000
0001F800
0007FE00
001FFF00
003F0F80
007C0780
007803C0
00F001C0
00F001E0
01E001E0
01E001E0
01C001E0
03C001E0
03C001E0
03C001E0
03C001C0
03C003C0
03C003C0
03C00380
01E00780
01E00780
00F00F00
00FC3E00
007FFC00
003FF800
000FE000
00000000
00000000
00000000
00000000
ENDCHAR

STARTCHAR kor_A5D0
ENCODING 42448
SWIDTH 1024 0
DWIDTH 32 0
BBX 32 32 0 -2
BITMAP
00000000
00000000
00000000
00000000
00000000
07FFFFFC
07FFFFFC
07FFFFFC
00F001E0
00F001E0
00F001E0
01F001E0
01E003E0
01E003C0
01E003C0
01E003C0
01E003C0
01E003C0
01E003C0
03E003C0
03C007C0
03C00780
03C00780
03C00780
03C00780
1FF03FF0
1FF03FF0
1FF03FF0
00000000
00000000
00000000
00000000
ENDCHAR

STARTCHAR kor_A5D1
ENCODING 42449
SWIDTH 1024 0
DWIDTH 32 0
BBX 32 32 0 -2
BITMAP
00000000
00000000
00000000
00000000
00000000
03FFFC00
03FFFF00
03FFFF80
007807C0
007803C0
007801E0
007801E0
00F801E0
00F001E0
00F001E0
00F003C0
00F00FC0
00FFFF80
00FFFF00
00FFFC00
00F00000
01F00000
01E00000
01E00000
01E00000
0FF80000
0FF80000
0FF80000
00000000
00000000
00000000
00000000
ENDCHAR

STARTCHAR kor_A5D2
ENCODING 42450
SWIDTH 1024 0
DWIDTH 32 0
BBX 32 32 0 -2
BITMAP
00000000
00000000
00000000
00000000
00000000
00FFFFE0
00FFFFE0
00FFFFE0
00F801E0
007E0060
003F0060
001F8060
000FC000
0007E000
0003E000
0001E000
0007C000
000F8000
001F0000
003E0000
007C0000
00F80600
01F00600
03E01E00
0FDFFE00
0FFFFE00
0FFFFE00
0FFFFE00
00000000
00000000
00000000
00000000
ENDCHAR

STARTCHAR kor_A5D3
ENCODING 42451
SWIDTH 1024 0
DWIDTH 32 0
BBX 32 32 0 -2
BITMAP
00000000
00000000
00000000
00000000
00000000
03FFFFF8
03FFFFF8
03FFFFF8
03C0F078
0300F018
0300F018
0300F018
0001F000
0001E000
0001E000
0001E000
0001E000
0001E000
0001E000
0001E000
0001E000
0003E000
0003C000
0003C000
0003C000
001FF800
001FF800
001FF800
00000000
00000000
00000000
00000000
ENDCHAR

STARTCHAR kor_A5D4
ENCODING 42452
SWIDTH 1024 0
DWIDTH 32 0
BBX 32 32 0 -2
BITMAP
00000000
00000000
00000000
00000000
00000000
01F07F00
01F1FF80
01FBFFC0
007BC3C0
003F83C0
003F0000
003F0000
003F0000
003C0000
003C0000
007C0000
00780000
00780000
00780000
00780000
00780000
00F80000
00F00000
00F00000
00F00000
07FE0000
07FE0000
07FE0000
00000000
00000000
00000000
00000000
ENDCHAR

STARTCHAR kor_A5D5
ENCODING 42453
SWIDTH 1024 0
DWIDTH 32 0
BBX 32 32 0 -2
BITMAP
00000000
000FFC00
000FFC00
000FFC00
0001E000
001FFE00
003FDF00
0079E780
00F1E380
01E1E3C0
01E1E1C0
03C3E1C0
03C3C1E0
0783C1E0
0783C1E0
0783C1E0
0783C1E0
0783C1E0
0787C1C0
078781C0
078783C0
03878380
03C78780
01C78F00
01E79E00
00F7FC00
007F7800
001FE000
00078000
001FF000
001FF000
001FF000
ENDCHAR

STARTCHAR kor_A5D6
ENCODING 42454
SWIDTH 1024 0
DWIDTH 32 0
BBX 32 32 0 -2
BITMAP
00000000
00000000
00000000
00000000
00000000
03FF8FF8
03FF8FF8
03FF8FF8
007C03C0
003E0F80
001F1F00
001F3E00
000F7C00
000FF800
0007F000
0003E000
0007F000
000FF000
001EF800
003EFC00
007C7E00
00F83E00
01F01F00
03E01F80
07C00FC0
1FA037F0
1FE03FF0
1FE03FF0
00000000
00000000
00000000
00000000
ENDCHAR

STARTCHAR kor_A5D7
ENCODING 42455
SWIDTH 1024 0
DWIDTH 32 0
BBX 32 32 0 -2
BITMAP
00000000
00000000
00000000
00000000
00000000
0F0FF9F0
3F0FF9FC
3FCFFBFC
3BC3C3DC
03C3C3C0
03C3C3C0
03C3C3C0
03C7C3C0
078783C0
078783C0
078783C0
07878780
07878780
07C7BF80
03FFFF00
01FFFC00
007FE000
000F0000
000F0000
000F0000
007FE000
007FE000
007FE000
00000000
00000000
00000000
00000000
ENDCHAR

STARTCHAR kor_A5D8
ENCODING 42456
SWIDTH 1024 0
DWIDTH 32 0
BBX 32 32 0 -2
BITMAP
00000000
00000000
00000000
00000000
00000000
0007FE00
001FFE00
003FFFC0
007C07C0
007803E0
00F001E0
00F001E0
00F001E0
00F003E0
007003E0
007803C0
003807C0
003C0F80
001C1F00
001E1E38
039E3C38
039E3C38
039C38F8
039C78E0
0FFC7FE0
0FFC7FE0
0FFC7FE0
0FFC7FE0
00000000
00000000
00000000
00000000
ENDCHAR

STARTCHAR kor_A5E1
ENCODING 42465
SWIDTH 1024 0
DWIDTH 32 0
BBX 32 32 0 -2
BITMAP
00000000
00000000
00000000
00000000
00000000
00000000
00000000
00000000
00000000
00000000
000003C0
0007F3C0
001FFBC0
007FFFC0
00FC1F80
01F00780
01E00780
03C00780
03C00780
03C00F80
03C00F00
03C00F00
03C00F00
03C03F00
01F0FF00
01FFFFF0
00FFF7F0
001F87F0
000001C0
00000000
00000000
00000000
ENDCHAR

STARTCHAR kor_A5E2
ENCODING 42466
SWIDTH 1024 0
DWIDTH 32 0
BBX 32 32 0 -2
BITMAP
00000000
00000000
00000000
00000000
00000000
0000F800
0003FF00
0007FF00
000F8F80
000F0780
001E0780
001E0780
001CE780
003CFF00
003CFF00
0038FE00
00380F00
00780700
00780780
00780780
00700780
00F00F80
00F00F00
00FC1F00
00FC7E00
01FFFC00
01E7F800
01E7E000
01E00000
01E00000
01E00000
00000000
ENDCHAR

STARTCHAR kor_A5E3
ENCODING 42467
SWIDTH 1024 0
DWIDTH 32 0
BBX 32 32 0 -2
BITMAP
00000000
00000000
00000000
00000000
00000000
00000000
00000000
00000000
00000000
00000000
00000000
001F0780
003F0780
003FBF80
0033BF80
0033FC00
0003F000
0003C000
0007C000
00078000
00078000
00078000
000F8000
000F0000
000F0000
000F0000
001F0000
001E0000
001E0000
001E0000
00000000
00000000
ENDCHAR

STARTCHAR kor_A5E4
ENCODING 42468
SWIDTH 1024 0
DWIDTH 32 0
BBX 32 32 0 -2
BITMAP
00000000
00000000
00000000
001F8000
003FE000
003FF800
003CFC00
003C3E00
003C0F00
001E0780
000E0380
000F8180
0007F000
001FF800
003EFC00
007C3C00
00781E00
00F81E00
00F01E00
00F01E00
00F01E00
00F01E00
00F01E00
00F03C00
00787C00
007FF800
003FF000
001FC000
00000000
00000000
00000000
00000000
ENDCHAR

STARTCHAR kor_A5E5
ENCODING 42469
SWIDTH 1024 0
DWIDTH 32 0
BBX 32 32 0 -2
BITMAP
00000000
00000000
00000000
00000000
00000000
00000000
00000000
00000000
00000000
00000000
00000000
0001FF00
0007FF80
000FFFC0
001F03C0
001E01C0
001E01C0
001FFC00
0007FC00
001FFC00
001E3C00
003C0000
003C0000
003C0700
003E0700
001FFF00
001FFC00
000FFC00
0003E000
00000000
00000000
00000000
ENDCHAR

STARTCHAR kor_A5E6
ENCODING 42470
SWIDTH 1024 0
DWIDTH 32 0
BBX 32 32 0 -2
BITMAP
00000000
00000000
00000000
0007C3C0
000FC3C0
000F8FC0
000E0FC0
000F7F00
0007FF00
0003F800
0003E000
000F8000
000E0000
003E0000
00380000
00780000
00700000
00700000
00F00000
00E00000
00F00000
00FF8000
00FFE000
007FF000
003FF000
00007800
00003800
00003800
0007B800
0007B800
0007F800
0007F000
ENDCHAR

STARTCHAR kor_A5E7
ENCODING 42471
SWIDTH 1024 0
DWIDTH 32 0
BBX 32 32 0 -2
BITMAP
00000000
00000000
00000000
00000000
00000000
00000000
00000000
00000000
00000000
00000000
00000000
003E1F80
00FF7FC0
00FFFFE0
00E3E1E0
00E3C0E0
000780E0
000F01E0
001E01C0
003C03C0
007C0380
00F80780
00F00700
01F00F00
01E00F00
01E01E00
00001E00
00003C00
00003C00
00003C00
00003C00
00000000
ENDCHAR

STARTCHAR kor_A5E8
ENCODING 42472
SWIDTH 1024 0
DWIDTH 32 0
BBX 32 32 0 -2
BITMAP
00000000
00000000
00000000
0001F800
0007FE00
000FFF00
001F0F00
003C0780
00380780
00780780
00700780
00F00780
00E00780
00FFFF80
01FFFF80
01FFFF80
01E00700
03C00F00
03C00F00
03C01E00
03C01E00
03C03C00
03C03800
03C07800
01E1F000
01FFE000
00FFC000
003F0000
00000000
00000000
00000000
00000000
ENDCHAR

STARTCHAR kor_A5E9
ENCODING 42473
SWIDTH 1024 0
DWIDTH 32 0
BBX 32 32 0 -2
BITMAP
00000000
00000000
00000000
00000000
00000000
00000000
00000000
00000000
00000000
00000000
00000000
0000F800
0000F800
0001F800
0001F800
0001E000
0003E000
0003E000
00038000
00038000
000F8000
000E0000
000E0000
000E0E00
000E0E00
000FFE00
000FFE00
0003F000
0003F000
00000000
00000000
00000000
ENDCHAR

STARTCHAR kor_A5EA
ENCODING 42474
SWIDTH 1024 0
DWIDTH 32 0
BBX 32 32 0 -2
BITMAP
00000000
00000000
00000000
00000000
00000000
00000000
00000000
00000000
00000000
00000000
00780000
00780F00
00787F80
0078FF80
0079FF80
00FBE000
00F38000
00FF0000
00FF0000
00FFC000
00F3C000
00F3C000
01F3C3C0
01E3C3C0
01E3E7C0
01E3E700
01E1FF00
01E1FE00
00000000
00000000
00000000
00000000
ENDCHAR

STARTCHAR kor_A5EB
ENCODING 42475
SWIDTH 1024 0
DWIDTH 32 0
BBX 32 32 0 -2
BITMAP
00000000
00000000
0003E000
0003E000
0003F800
0003F800
00003E00
00000E00
00000E00
00000E00
00001E00
00001C00
00001C00
00003C00
00003C00
00007800
0000F800
0000F800
0001F800
0003B800
0003BC00
0007BC00
000F1F00
001F0F00
003E0FC0
003E07C0
003C07C0
003C03C0
00000000
00000000
00000000
00000000
ENDCHAR

STARTCHAR kor_A5EC
ENCODING 42476
SWIDTH 1024 0
DWIDTH 32 0
BBX 32 32 0 -2
BITMAP
00000000
00000000
00000000
00000000
00000000
00000000
00000000
00000000
00000000
00000000
00000000
003C0F00
003C0F00
003C0F00
003C0F00
007C1F00
00781F00
00781E00
00781E00
00701E00
00703E00
007038E0
007038E0
00FC7FE0
00DC7FE0
00FFFF80
00E7CF80
03E7C000
03E00000
03E00000
00000000
00000000
ENDCHAR

STARTCHAR kor_A5ED
ENCODING 42477
SWIDTH 1024 0
DWIDTH 32 0
BBX 32 32 0 -2
BITMAP
00000000
00000000
00000000
00000000
00000000
00000000
00000000
00000000
00000000
00000000
000001C0
00F801C0
00F801C0
00FE01C0
00FE01C0
003E03C0
003E0380
003E0780
003E0F00
00381F00
00383E00
0078FC00
0073F800
007FF000
007FE000
007F8000
00FE0000
00F80000
00000000
00000000
00000000
00000000
ENDCHAR

STARTCHAR kor_A5EE
ENCODING 42478
SWIDTH 1024 0
DWIDTH 32 0
BBX 32 32 0 -2
BITMAP
00000000
00000000
0000FC00
0001FC00
0003FC00
00038000
0003CF80
0001FF80
0002FF80
000FFF80
001F8000
003E0000
00380000
003FFE00
001FFE00
002FFE00
007C3E00
00F80000
00F00000
01E00000
01E00000
01F00000
01FF8000
00FFE000
007FF000
001FF000
00003800
000F3800
000F3800
000FF800
000FE000
00000000
ENDCHAR

STARTCHAR kor_A5EF
ENCODING 42479
SWIDTH 1024 0
DWIDTH 32 0
BBX 32 32 0 -2
BITMAP
00000000
00000000
00000000
00000000
00000000
00000000
00000000
00000000
00000000
00000000
00000000
0001F000
0007FC00
000FFE00
001F1F00
003C0F00
00780780
00780780
00F00780
00F00780
00F00780
00F00F00
00F00F00
00F01E00
00787C00
007FF800
003FF000
000FC000
00000000
00000000
00000000
00000000
ENDCHAR

STARTCHAR kor_A5F0
ENCODING 42480
SWIDTH 1024 0
DWIDTH 32 0
BBX 32 32 0 -2
BITMAP
00000000
00000000
00000000
00000000
00000000
00000000
00000000
00000000
00000000
00000000
00000000
003FFFE0
003FFFE0
01FFFFE0
07FFFF80
07FE1C00
070E1C00
001E3C00
001E3800
003C3800
003C3800
003C7800
007CF800
01FCF9C0
01F0F9C0
01F0FFC0
01F0FF80
01F03F80
00000000
00000000
00000000
00000000
ENDCHAR

STARTCHAR kor_A5F1
ENCODING 42481
SWIDTH 1024 0
DWIDTH 32 0
BBX 32 32 0 -2
BITMAP
00000000
00000000
00000000
00000000
00000000
00000000
00000000
00000000
00000000
00000000
00000000
0001F800
0007FE00
000FFF00
001F0F00
001E0780
003C0780
003C0780
00780780
00780F80
00780F00
00F81F00
00F81E00
00FC3E00
00DFFC00
00EFF800
03E3E000
03E00000
03E00000
03E00000
00000000
00000000
ENDCHAR

STARTCHAR kor_A5F2
ENCODING 42482
SWIDTH 1024 0
DWIDTH 32 0
BBX 32 32 0 -2
BITMAP
00000000
00000000
00000000
00000000
00000000
00000000
00000000
00000000
00000000
00000000
00000000
0001FF80
000FFF80
003FFF80
007FFF80
00F07000
01E07C00
01E03C00
03C03C00
03C03C00
03C03C00
03C03C00
03C07800
03C07800
01C1F000
01FFE000
00FFC000
003F0000
00000000
00000000
00000000
00000000
ENDCHAR

STARTCHAR kor_A5F3
ENCODING 42483
SWIDTH 1024 0
DWIDTH 32 0
BBX 32 32 0 -2
BITMAP
00000000
00000000
00000000
00000000
00000000
00000000
00000000
00000000
00000000
00000000
00000000
000FFF80
000FFF80
00FFFF80
00FFFF80
03FFFF80
0380E000
0383E000
00038000
00038000
00078000
00070000
00070000
000F1C00
000F1C00
000FFC00
000FF800
0003F800
0003F800
00000000
00000000
00000000
ENDCHAR

STARTCHAR kor_A5F4
ENCODING 42484
SWIDTH 1024 0
DWIDTH 32 0
BBX 32 32 0 -2
BITMAP
00000000
00000000
00000000
00000000
00000000
00000000
00000000
00000000
00000000
00000000
00000E00
003C0E00
003C0F00
003E0700
003E0780
003E0780
003E0780
003E0780
00380780
00F80780
00F80780
00E00700
00E00F00
00E01F00
00F07E00
00FFFC00
007FF000
001FC000
00000000
00000000
00000000
00000000
ENDCHAR

STARTCHAR kor_A5F5
ENCODING 42485
SWIDTH 1024 0
DWIDTH 32 0
BBX 32 32 0 -2
BITMAP
00000000
00000000
00000000
00000000
00000000
00000000
00000000
00000000
00000000
00000000
00000000
000F3C00
003F3F00
007F7F80
00F87FC0
01F0F3C0
01E0E1C0
03E1E1C0
03C1C1C0
03C1C3C0
03C3C3C0
03E38780
01E38F80
01F39F00
00FFFE00
007FFC00
001FF000
00038000
000F8000
000F8000
000F8000
00000000
ENDCHAR

STARTCHAR kor_A5F6
ENCODING 42486
SWIDTH 1024 0
DWIDTH 32 0
BBX 32 32 0 -2
BITMAP
00000000
00000000
00000000
00000000
00000000
00000000
00000000
00000000
00000000
00000000
00000000
003E03E0
003F87E0
00FF8FE0
00FF9FC0
00E3BF00
00E3FE00
00037C00
0003F800
0003F000
0007E000
000FC000
001F8000
003F8000
007F8380
00FFC380
01FBFF80
07F3FF80
07E0FF00
07C0FF00
00000000
00000000
ENDCHAR

STARTCHAR kor_A5F7
ENCODING 42487
SWIDTH 1024 0
DWIDTH 32 0
BBX 32 32 0 -2
BITMAP
00000000
00000000
00000000
0001E000
0001E000
0001E000
0001E000
0001E000
0001E000
0001CE00
0001CF00
0039CF80
00F9C380
00FBC3C0
01E383C0
03E383C0
03C383C0
07C383C0
078383C0
078783C0
078707C0
07870780
07870F80
078F1F00
03CE7E00
03FFFC00
01FFF000
003FC000
000E0000
001E0000
001E0000
00000000
ENDCHAR

STARTCHAR kor_A5F8
ENCODING 42488
SWIDTH 1024 0
DWIDTH 32 0
BBX 32 32 0 -2
BITMAP
00000000
00000000
00000000
00000000
00000000
00000000
00000000
00000000
00000000
00000000
00000380
001C03C0
003C01C0
007800E0
00F000E0
00E0F0F0
01E0F0F0
01C0F0F0
03C1F0F0
03C1F0F0
03C1F0F0
03C0E1E0
03C0E1E0
03C1F1C0
01E1F3C0
01FFFF80
00FF1F00
003F1E00
00000000
00000000
00000000
00000000
ENDCHAR

STARTCHAR kor_A6A1
ENCODING 42657
SWIDTH 1024 0
DWIDTH 32 0
BBX 32 32 0 -2
BITMAP
00000000
00000000
00000000
00000000
00000000
00000000
00000000
00000000
00000000
00000000
00000000
00000000
00000000
00000000
FFFFFFFF
FFFFFFFF
FFFFFFFF
00000000
00000000
00000000
00000000
00000000
00000000
00000000
00000000
00000000
00000000
00000000
00000000
00000000
00000000
00000000
ENDCHAR

STARTCHAR kor_A6A2
ENCODING 42658
SWIDTH 1024 0
DWIDTH 32 0
BBX 32 32 0 -2
BITMAP
0001C000
0001C000
0001C000
0001C000
0001C000
0001C000
0001C000
0001C000
0001C000
0001C000
0001C000
0001C000
0001C000
0001C000
0001C000
0001C000
0001C000
0001C000
0001C000
0001C000
0001C000
0001C000
0001C000
0001C000
0001C000
0001C000
0001C000
0001C000
0001C000
0001C000
0001C000
0001C000
ENDCHAR

STARTCHAR kor_A6A3
ENCODING 42659
SWIDTH 1024 0
DWIDTH 32 0
BBX 32 32 0 -2
BITMAP
00000000
00000000
00000000
00000000
00000000
00000000
00000000
00000000
00000000
00000000
00000000
00000000
00000000
00000000
0001FFFF
0001FFFF
0001FFFF
0001C000
0001C000
0001C000
0001C000
0001C000
0001C000
0001C000
0001C000
0001C000
0001C000
0001C000
0001C000
0001C000
0001C000
0001C000
ENDCHAR

STARTCHAR kor_A6A4
ENCODING 42660
SWIDTH 1024 0
DWIDTH 32 0
BBX 32 32 0 -2
BITMAP
00000000
00000000
00000000
00000000
00000000
00000000
00000000
00000000
00000000
00000000
00000000
00000000
00000000
00000000
FFFFC000
FFFFC000
FFFFC000
0001C000
0001C000
0001C000
0001C000
0001C000
0001C000
0001C000
0001C000
0001C000
0001C000
0001C000
0001C000
0001C000
0001C000
0001C000
ENDCHAR

STARTCHAR kor_A6A5
ENCODING 42661
SWIDTH 1024 0
DWIDTH 32 0
BBX 32 32 0 -2
BITMAP
0001C000
0001C000
0001C000
0001C000
0001C000
0001C000
0001C000
0001C000
0001C000
0001C000
0001C000
0001C000
0001C000
0001C000
FFFFC000
FFFFC000
FFFFC000
00000000
00000000
00000000
00000000
00000000
00000000
00000000
00000000
00000000
00000000
00000000
00000000
00000000
00000000
00000000
ENDCHAR

STARTCHAR kor_A6A6
ENCODING 42662
SWIDTH 1024 0
DWIDTH 32 0
BBX 32 32 0 -2
BITMAP
0001C000
0001C000
0001C000
0001C000
0001C000
0001C000
0001C000
0001C000
0001C000
0001C000
0001C000
0001C000
0001C000
0001C000
0001FFFF
0001FFFF
0001FFFF
00000000
00000000
00000000
00000000
00000000
00000000
00000000
00000000
00000000
00000000
00000000
00000000
00000000
00000000
00000000
ENDCHAR

STARTCHAR kor_A6A7
ENCODING 42663
SWIDTH 1024 0
DWIDTH 32 0
BBX 32 32 0 -2
BITMAP
0001C000
0001C000
0001C000
0001C000
0001C000
0001C000
0001C000
0001C000
0001C000
0001C000
0001C000
0001C000
0001C000
0001C000
0001FFFF
0001FFFF
0001FFFF
0001C000
0001C000
0001C000
0001C000
0001C000
0001C000
0001C000
0001C000
0001C000
0001C000
0001C000
0001C000
0001C000
0001C000
0001C000
ENDCHAR

STARTCHAR kor_A6A8
ENCODING 42664
SWIDTH 1024 0
DWIDTH 32 0
BBX 32 32 0 -2
BITMAP
00000000
00000000
00000000
00000000
00000000
00000000
00000000
00000000
00000000
00000000
00000000
00000000
00000000
00000000
FFFFFFFF
FFFFFFFF
FFFFFFFF
0001C000
0001C000
0001C000
0001C000
0001C000
0001C000
0001C000
0001C000
0001C000
0001C000
0001C000
0001C000
0001C000
0001C000
0001C000
ENDCHAR

STARTCHAR kor_A6A9
ENCODING 42665
SWIDTH 1024 0
DWIDTH 32 0
BBX 32 32 0 -2
BITMAP
0001C000
0001C000
0001C000
0001C000
0001C000
0001C000
0001C000
0001C000
0001C000
0001C000
0001C000
0001C000
0001C000
0001C000
FFFFC000
FFFFC000
FFFFC000
0001C000
0001C000
0001C000
0001C000
0001C000
0001C000
0001C000
0001C000
0001C000
0001C000
0001C000
0001C000
0001C000
0001C000
0001C000
ENDCHAR

STARTCHAR kor_A6AA
ENCODING 42666
SWIDTH 1024 0
DWIDTH 32 0
BBX 32 32 0 -2
BITMAP
0001C000
0001C000
0001C000
0001C000
0001C000
0001C000
0001C000
0001C000
0001C000
0001C000
0001C000
0001C000
0001C000
0001C000
FFFFFFFF
FFFFFFFF
FFFFFFFF
00000000
00000000
00000000
00000000
00000000
00000000
00000000
00000000
00000000
00000000
00000000
00000000
00000000
00000000
00000000
ENDCHAR

STARTCHAR kor_A6AB
ENCODING 42667
SWIDTH 1024 0
DWIDTH 32 0
BBX 32 32 0 -2
BITMAP
0001C000
0001C000
0001C000
0001C000
0001C000
0001C000
0001C000
0001C000
0001C000
0001C000
0001C000
0001C000
0001C000
0001C000
FFFFFFFF
FFFFFFFF
FFFFFFFF
0001C000
0001C000
0001C000
0001C000
0001C000
0001C000
0001C000
0001C000
0001C000
0001C000
0001C000
0001C000
0001C000
0001C000
0001C000
ENDCHAR

STARTCHAR kor_A6AC
ENCODING 42668
SWIDTH 1024 0
DWIDTH 32 0
BBX 32 32 0 -2
BITMAP
00000000
00000000
00000000
00000000
00000000
00000000
00000000
00000000
00000000
00000000
00000000
00000000
00000000
FFFFFFFF
FFFFFFFF
FFFFFFFF
FFFFFFFF
FFFFFFFF
00000000
00000000
00000000
00000000
00000000
00000000
00000000
00000000
00000000
00000000
00000000
00000000
00000000
00000000
ENDCHAR

STARTCHAR kor_A6AD
ENCODING 42669
SWIDTH 1024 0
DWIDTH 32 0
BBX 32 32 0 -2
BITMAP
0003E000
0003E000
0003E000
0003E000
0003E000
0003E000
0003E000
0003E000
0003E000
0003E000
0003E000
0003E000
0003E000
0003E000
0003E000
0003E000
0003E000
0003E000
0003E000
0003E000
0003E000
0003E000
0003E000
0003E000
0003E000
0003E000
0003E000
0003E000
0003E000
0003E000
0003E000
0003E000
ENDCHAR

STARTCHAR kor_A6AE
ENCODING 42670
SWIDTH 1024 0
DWIDTH 32 0
BBX 32 32 0 -2
BITMAP
00000000
00000000
00000000
00000000
00000000
00000000
00000000
00000000
00000000
00000000
00000000
00000000
00000000
0003FFFF
0003FFFF
0003FFFF
0003FFFF
0003FFFF
0003E000
0003E000
0003E000
0003E000
0003E000
0003E000
0003E000
0003E000
0003E000
0003E000
0003E000
0003E000
0003E000
0003E000
ENDCHAR

STARTCHAR kor_A6AF
ENCODING 42671
SWIDTH 1024 0
DWIDTH 32 0
BBX 32 32 0 -2
BITMAP
00000000
00000000
00000000
00000000
00000000
00000000
00000000
00000000
00000000
00000000
00000000
00000000
00000000
FFFFE000
FFFFE000
FFFFE000
FFFFE000
FFFFE000
0003E000
0003E000
0003E000
0003E000
0003E000
0003E000
0003E000
0003E000
0003E000
0003E000
0003E000
0003E000
0003E000
0003E000
ENDCHAR

STARTCHAR kor_A6B0
ENCODING 42672
SWIDTH 1024 0
DWIDTH 32 0
BBX 32 32 0 -2
BITMAP
0003E000
0003E000
0003E000
0003E000
0003E000
0003E000
0003E000
0003E000
0003E000
0003E000
0003E000
0003E000
0003E000
FFFFE000
FFFFE000
FFFFE000
FFFFE000
FFFFE000
00000000
00000000
00000000
00000000
00000000
00000000
00000000
00000000
00000000
00000000
00000000
00000000
00000000
00000000
ENDCHAR

STARTCHAR kor_A6B1
ENCODING 42673
SWIDTH 1024 0
DWIDTH 32 0
BBX 32 32 0 -2
BITMAP
0003E000
0003E000
0003E000
0003E000
0003E000
0003E000
0003E000
0003E000
0003E000
0003E000
0003E000
0003E000
0003E000
0003FFFF
0003FFFF
0003FFFF
0003FFFF
0003FFFF
00000000
00000000
00000000
00000000
00000000
00000000
00000000
00000000
00000000
00000000
00000000
00000000
00000000
00000000
ENDCHAR

STARTCHAR kor_A6B2
ENCODING 42674
SWIDTH 1024 0
DWIDTH 32 0
BBX 32 32 0 -2
BITMAP
0003E000
0003E000
0003E000
0003E000
0003E000
0003E000
0003E000
0003E000
0003E000
0003E000
0003E000
0003E000
0003E000
0003FFFF
0003FFFF
0003FFFF
0003FFFF
0003FFFF
0003E000
0003E000
0003E000
0003E000
0003E000
0003E000
0003E000
0003E000
0003E000
0003E000
0003E000
0003E000
0003E000
0003E000
ENDCHAR

STARTCHAR kor_A6B3
ENCODING 42675
SWIDTH 1024 0
DWIDTH 32 0
BBX 32 32 0 -2
BITMAP
00000000
00000000
00000000
00000000
00000000
00000000
00000000
00000000
00000000
00000000
00000000
00000000
00000000
FFFFFFFF
FFFFFFFF
FFFFFFFF
FFFFFFFF
FFFFFFFF
0003E000
0003E000
0003E000
0003E000
0003E000
0003E000
0003E000
0003E000
0003E000
0003E000
0003E000
0003E000
0003E000
0003E000
ENDCHAR

STARTCHAR kor_A6B4
ENCODING 42676
SWIDTH 1024 0
DWIDTH 32 0
BBX 32 32 0 -2
BITMAP
0003E000
0003E000
0003E000
0003E000
0003E000
0003E000
0003E000
0003E000
0003E000
0003E000
0003E000
0003E000
0003E000
FFFFE000
FFFFE000
FFFFE000
FFFFE000
FFFFE000
0003E000
0003E000
0003E000
0003E000
0003E000
0003E000
0003E000
0003E000
0003E000
0003E000
0003E000
0003E000
0003E000
0003E000
ENDCHAR

STARTCHAR kor_A6B5
ENCODING 42677
SWIDTH 1024 0
DWIDTH 32 0
BBX 32 32 0 -2
BITMAP
0003E000
0003E000
0003E000
0003E000
0003E000
0003E000
0003E000
0003E000
0003E000
0003E000
0003E000
0003E000
0003E000
FFFFFFFF
FFFFFFFF
FFFFFFFF
FFFFFFFF
FFFFFFFF
00000000
00000000
00000000
00000000
00000000
00000000
00000000
00000000
00000000
00000000
00000000
00000000
00000000
00000000
ENDCHAR

STARTCHAR kor_A6B6
ENCODING 42678
SWIDTH 1024 0
DWIDTH 32 0
BBX 32 32 0 -2
BITMAP
0003E000
0003E000
0003E000
0003E000
0003E000
0003E000
0003E000
0003E000
0003E000
0003E000
0003E000
0003E000
0003E000
FFFFFFFF
FFFFFFFF
FFFFFFFF
FFFFFFFF
FFFFFFFF
0003E000
0003E000
0003E000
0003E000
0003E000
0003E000
0003E000
0003E000
0003E000
0003E000
0003E000
0003E000
0003E000
0003E000
ENDCHAR

STARTCHAR kor_A6B7
ENCODING 42679
SWIDTH 1024 0
DWIDTH 32 0
BBX 32 32 0 -2
BITMAP
0003E000
0003E000
0003E000
0003E000
0003E000
0003E000
0003E000
0003E000
0003E000
0003E000
0003E000
0003E000
0003E000
0003E000
0003FFFF
0003FFFF
0003FFFF
0003E000
0003E000
0003E000
0003E000
0003E000
0003E000
0003E000
0003E000
0003E000
0003E000
0003E000
0003E000
0003E000
0003E000
0003E000
ENDCHAR

STARTCHAR kor_A6B8
ENCODING 42680
SWIDTH 1024 0
DWIDTH 32 0
BBX 32 32 0 -2
BITMAP
00000000
00000000
00000000
00000000
00000000
00000000
00000000
00000000
00000000
00000000
00000000
00000000
00000000
FFFFFFFF
FFFFFFFF
FFFFFFFF
FFFFFFFF
FFFFFFFF
0001C000
0001C000
0001C000
0001C000
0001C000
0001C000
0001C000
0001C000
0001C000
0001C000
0001C000
0001C000
0001C000
0001C000
ENDCHAR

STARTCHAR kor_A6B9
ENCODING 42681
SWIDTH 1024 0
DWIDTH 32 0
BBX 32 32 0 -2
BITMAP
0003E000
0003E000
0003E000
0003E000
0003E000
0003E000
0003E000
0003E000
0003E000
0003E000
0003E000
0003E000
0003E000
0003E000
FFFFE000
FFFFE000
FFFFE000
0003E000
0003E000
0003E000
0003E000
0003E000
0003E000
0003E000
0003E000
0003E000
0003E000
0003E000
0003E000
0003E000
0003E000
0003E000
ENDCHAR

STARTCHAR kor_A6BA
ENCODING 42682
SWIDTH 1024 0
DWIDTH 32 0
BBX 32 32 0 -2
BITMAP
0001C000
0001C000
0001C000
0001C000
0001C000
0001C000
0001C000
0001C000
0001C000
0001C000
0001C000
0001C000
0001C000
FFFFFFFF
FFFFFFFF
FFFFFFFF
FFFFFFFF
FFFFFFFF
00000000
00000000
00000000
00000000
00000000
00000000
00000000
00000000
00000000
00000000
00000000
00000000
00000000
00000000
ENDCHAR

STARTCHAR kor_A6BB
ENCODING 42683
SWIDTH 1024 0
DWIDTH 32 0
BBX 32 32 0 -2
BITMAP
0001C000
0001C000
0001C000
0001C000
0001C000
0001C000
0001C000
0001C000
0001C000
0001C000
0001C000
0001C000
0001C000
FFFFFFFF
FFFFFFFF
FFFFFFFF
FFFFFFFF
FFFFFFFF
0001C000
0001C000
0001C000
0001C000
0001C000
0001C000
0001C000
0001C000
0001C000
0001C000
0001C000
0001C000
0001C000
0001C000
ENDCHAR

STARTCHAR kor_A6BC
ENCODING 42684
SWIDTH 1024 0
DWIDTH 32 0
BBX 32 32 0 -2
BITMAP
0001C000
0001C000
0001C000
0001C000
0001C000
0001C000
0001C000
0001C000
0001C000
0001C000
0001C000
0001C000
0001C000
0001FFFF
0001FFFF
0001FFFF
0001FFFF
0001FFFF
0001C000
0001C000
0001C000
0001C000
0001C000
0001C000
0001C000
0001C000
0001C000
0001C000
0001C000
0001C000
0001C000
0001C000
ENDCHAR

STARTCHAR kor_A6BD
ENCODING 42685
SWIDTH 1024 0
DWIDTH 32 0
BBX 32 32 0 -2
BITMAP
00000000
00000000
00000000
00000000
00000000
00000000
00000000
00000000
00000000
00000000
00000000
00000000
00000000
00000000
FFFFFFFF
FFFFFFFF
FFFFFFFF
0003E000
0003E000
0003E000
0003E000
0003E000
0003E000
0003E000
0003E000
0003E000
0003E000
0003E000
0003E000
0003E000
0003E000
0003E000
ENDCHAR

STARTCHAR kor_A6BE
ENCODING 42686
SWIDTH 1024 0
DWIDTH 32 0
BBX 32 32 0 -2
BITMAP
0001C000
0001C000
0001C000
0001C000
0001C000
0001C000
0001C000
0001C000
0001C000
0001C000
0001C000
0001C000
0001C000
FFFFC000
FFFFC000
FFFFC000
FFFFC000
FFFFC000
0001C000
0001C000
0001C000
0001C000
0001C000
0001C000
0001C000
0001C000
0001C000
0001C000
0001C000
0001C000
0001C000
0001C000
ENDCHAR

STARTCHAR kor_A6BF
ENCODING 42687
SWIDTH 1024 0
DWIDTH 32 0
BBX 32 32 0 -2
BITMAP
0003E000
0003E000
0003E000
0003E000
0003E000
0003E000
0003E000
0003E000
0003E000
0003E000
0003E000
0003E000
0003E000
0003E000
FFFFFFFF
FFFFFFFF
FFFFFFFF
00000000
00000000
00000000
00000000
00000000
00000000
00000000
00000000
00000000
00000000
00000000
00000000
00000000
00000000
00000000
ENDCHAR

STARTCHAR kor_A6C0
ENCODING 42688
SWIDTH 1024 0
DWIDTH 32 0
BBX 32 32 0 -2
BITMAP
0003E000
0003E000
0003E000
0003E000
0003E000
0003E000
0003E000
0003E000
0003E000
0003E000
0003E000
0003E000
0003E000
0003E000
FFFFFFFF
FFFFFFFF
FFFFFFFF
0003E000
0003E000
0003E000
0003E000
0003E000
0003E000
0003E000
0003E000
0003E000
0003E000
0003E000
0003E000
0003E000
0003E000
0003E000
ENDCHAR

STARTCHAR kor_A6C1
ENCODING 42689
SWIDTH 1024 0
DWIDTH 32 0
BBX 32 32 0 -2
BITMAP
00000000
00000000
00000000
00000000
00000000
00000000
00000000
00000000
00000000
00000000
00000000
00000000
00000000
00000000
FFFFE000
FFFFE000
FFFFE000
0003E000
0003E000
0003E000
0003E000
0003E000
0003E000
0003E000
0003E000
0003E000
0003E000
0003E000
0003E000
0003E000
0003E000
0003E000
ENDCHAR

STARTCHAR kor_A6C2
ENCODING 42690
SWIDTH 1024 0
DWIDTH 32 0
BBX 32 32 0 -2
BITMAP
00000000
00000000
00000000
00000000
00000000
00000000
00000000
00000000
00000000
00000000
00000000
00000000
00000000
FFFFC000
FFFFC000
FFFFC000
FFFFC000
FFFFC000
0001C000
0001C000
0001C000
0001C000
0001C000
0001C000
0001C000
0001C000
0001C000
0001C000
0001C000
0001C000
0001C000
0001C000
ENDCHAR

STARTCHAR kor_A6C3
ENCODING 42691
SWIDTH 1024 0
DWIDTH 32 0
BBX 32 32 0 -2
BITMAP
0003E000
0003E000
0003E000
0003E000
0003E000
0003E000
0003E000
0003E000
0003E000
0003E000
0003E000
0003E000
0003E000
0003E000
FFFFE000
FFFFE000
FFFFE000
00000000
00000000
00000000
00000000
00000000
00000000
00000000
00000000
00000000
00000000
00000000
00000000
00000000
00000000
00000000
ENDCHAR

STARTCHAR kor_A6C4
ENCODING 42692
SWIDTH 1024 0
DWIDTH 32 0
BBX 32 32 0 -2
BITMAP
0001C000
0001C000
0001C000
0001C000
0001C000
0001C000
0001C000
0001C000
0001C000
0001C000
0001C000
0001C000
0001C000
FFFFC000
FFFFC000
FFFFC000
FFFFC000
FFFFC000
00000000
00000000
00000000
00000000
00000000
00000000
00000000
00000000
00000000
00000000
00000000
00000000
00000000
00000000
ENDCHAR

STARTCHAR kor_A6C5
ENCODING 42693
SWIDTH 1024 0
DWIDTH 32 0
BBX 32 32 0 -2
BITMAP
0003E000
0003E000
0003E000
0003E000
0003E000
0003E000
0003E000
0003E000
0003E000
0003E000
0003E000
0003E000
0003E000
0003E000
0003FFFF
0003FFFF
0003FFFF
00000000
00000000
00000000
00000000
00000000
00000000
00000000
00000000
00000000
00000000
00000000
00000000
00000000
00000000
00000000
ENDCHAR

STARTCHAR kor_A6C6
ENCODING 42694
SWIDTH 1024 0
DWIDTH 32 0
BBX 32 32 0 -2
BITMAP
0001C000
0001C000
0001C000
0001C000
0001C000
0001C000
0001C000
0001C000
0001C000
0001C000
0001C000
0001C000
0001C000
0001FFFF
0001FFFF
0001FFFF
0001FFFF
0001FFFF
00000000
00000000
00000000
00000000
00000000
00000000
00000000
00000000
00000000
00000000
00000000
00000000
00000000
00000000
ENDCHAR

STARTCHAR kor_A6C7
ENCODING 42695
SWIDTH 1024 0
DWIDTH 32 0
BBX 32 32 0 -2
BITMAP
00000000
00000000
00000000
00000000
00000000
00000000
00000000
00000000
00000000
00000000
00000000
00000000
00000000
00000000
0003FFFF
0003FFFF
0003FFFF
0003E000
0003E000
0003E000
0003E000
0003E000
0003E000
0003E000
0003E000
0003E000
0003E000
0003E000
0003E000
0003E000
0003E000
0003E000
ENDCHAR

STARTCHAR kor_A6C8
ENCODING 42696
SWIDTH 1024 0
DWIDTH 32 0
BBX 32 32 0 -2
BITMAP
00000000
00000000
00000000
00000000
00000000
00000000
00000000
00000000
00000000
00000000
00000000
00000000
00000000
0001FFFF
0001FFFF
0001FFFF
0001FFFF
0001FFFF
0001C000
0001C000
0001C000
0001C000
0001C000
0001C000
0001C000
0001C000
0001C000
0001C000
0001C000
0001C000
0001C000
0001C000
ENDCHAR

STARTCHAR kor_A6C9
ENCODING 42697
SWIDTH 1024 0
DWIDTH 32 0
BBX 32 32 0 -2
BITMAP
0003E000
0003E000
0003E000
0003E000
0003E000
0003E000
0003E000
0003E000
0003E000
0003E000
0003E000
0003E000
0003E000
0003E000
0003FFFF
0003FFFF
0003FFFF
0001C000
0001C000
0001C000
0001C000
0001C000
0001C000
0001C000
0001C000
0001C000
0001C000
0001C000
0001C000
0001C000
0001C000
0001C000
ENDCHAR

STARTCHAR kor_A6CA
ENCODING 42698
SWIDTH 1024 0
DWIDTH 32 0
BBX 32 32 0 -2
BITMAP
0001C000
0001C000
0001C000
0001C000
0001C000
0001C000
0001C000
0001C000
0001C000
0001C000
0001C000
0001C000
0001C000
0001C000
0003FFFF
0003FFFF
0003FFFF
0003E000
0003E000
0003E000
0003E000
0003E000
0003E000
0003E000
0003E000
0003E000
0003E000
0003E000
0003E000
0003E000
0003E000
0003E000
ENDCHAR

STARTCHAR kor_A6CB
ENCODING 42699
SWIDTH 1024 0
DWIDTH 32 0
BBX 32 32 0 -2
BITMAP
0003E000
0003E000
0003E000
0003E000
0003E000
0003E000
0003E000
0003E000
0003E000
0003E000
0003E000
0003E000
0003E000
0003FFFF
0003FFFF
0003FFFF
0003FFFF
0003FFFF
0001C000
0001C000
0001C000
0001C000
0001C000
0001C000
0001C000
0001C000
0001C000
0001C000
0001C000
0001C000
0001C000
0001C000
ENDCHAR

STARTCHAR kor_A6CC
ENCODING 42700
SWIDTH 1024 0
DWIDTH 32 0
BBX 32 32 0 -2
BITMAP
0001C000
0001C000
0001C000
0001C000
0001C000
0001C000
0001C000
0001C000
0001C000
0001C000
0001C000
0001C000
0001C000
0003FFFF
0003FFFF
0003FFFF
0003FFFF
0003FFFF
0003E000
0003E000
0003E000
0003E000
0003E000
0003E000
0003E000
0003E000
0003E000
0003E000
0003E000
0003E000
0003E000
0003E000
ENDCHAR

STARTCHAR kor_A6CD
ENCODING 42701
SWIDTH 1024 0
DWIDTH 32 0
BBX 32 32 0 -2
BITMAP
0003E000
0003E000
0003E000
0003E000
0003E000
0003E000
0003E000
0003E000
0003E000
0003E000
0003E000
0003E000
0003E000
0003E000
FFFFE000
FFFFE000
FFFFE000
0001C000
0001C000
0001C000
0001C000
0001C000
0001C000
0001C000
0001C000
0001C000
0001C000
0001C000
0001C000
0001C000
0001C000
0001C000
ENDCHAR

STARTCHAR kor_A6CE
ENCODING 42702
SWIDTH 1024 0
DWIDTH 32 0
BBX 32 32 0 -2
BITMAP
0001C000
0001C000
0001C000
0001C000
0001C000
0001C000
0001C000
0001C000
0001C000
0001C000
0001C000
0001C000
0001C000
0001C000
FFFFE000
FFFFE000
FFFFE000
0003E000
0003E000
0003E000
0003E000
0003E000
0003E000
0003E000
0003E000
0003E000
0003E000
0003E000
0003E000
0003E000
0003E000
0003E000
ENDCHAR

STARTCHAR kor_A6CF
ENCODING 42703
SWIDTH 1024 0
DWIDTH 32 0
BBX 32 32 0 -2
BITMAP
0003E000
0003E000
0003E000
0003E000
0003E000
0003E000
0003E000
0003E000
0003E000
0003E000
0003E000
0003E000
0003E000
FFFFE000
FFFFE000
FFFFE000
FFFFE000
FFFFE000
0001C000
0001C000
0001C000
0001C000
0001C000
0001C000
0001C000
0001C000
0001C000
0001C000
0001C000
0001C000
0001C000
0001C000
ENDCHAR

STARTCHAR kor_A6D0
ENCODING 42704
SWIDTH 1024 0
DWIDTH 32 0
BBX 32 32 0 -2
BITMAP
0001C000
0001C000
0001C000
0001C000
0001C000
0001C000
0001C000
0001C000
0001C000
0001C000
0001C000
0001C000
0001C000
FFFFE000
FFFFE000
FFFFE000
FFFFE000
FFFFE000
0003E000
0003E000
0003E000
0003E000
0003E000
0003E000
0003E000
0003E000
0003E000
0003E000
0003E000
0003E000
0003E000
0003E000
ENDCHAR

STARTCHAR kor_A6D1
ENCODING 42705
SWIDTH 1024 0
DWIDTH 32 0
BBX 32 32 0 -2
BITMAP
00000000
00000000
00000000
00000000
00000000
00000000
00000000
00000000
00000000
00000000
00000000
00000000
00000000
FFFFC000
FFFFFFFF
FFFFFFFF
FFFFFFFF
FFFFC000
0001C000
0001C000
0001C000
0001C000
0001C000
0001C000
0001C000
0001C000
0001C000
0001C000
0001C000
0001C000
0001C000
0001C000
ENDCHAR

STARTCHAR kor_A6D2
ENCODING 42706
SWIDTH 1024 0
DWIDTH 32 0
BBX 32 32 0 -2
BITMAP
00000000
00000000
00000000
00000000
00000000
00000000
00000000
00000000
00000000
00000000
00000000
00000000
00000000
0001FFFF
FFFFFFFF
FFFFFFFF
FFFFFFFF
0001FFFF
0001C000
0001C000
0001C000
0001C000
0001C000
0001C000
0001C000
0001C000
0001C000
0001C000
0001C000
0001C000
0001C000
0001C000
ENDCHAR

STARTCHAR kor_A6D3
ENCODING 42707
SWIDTH 1024 0
DWIDTH 32 0
BBX 32 32 0 -2
BITMAP
00000000
00000000
00000000
00000000
00000000
00000000
00000000
00000000
00000000
00000000
00000000
00000000
00000000
FFFFE000
FFFFFFFF
FFFFFFFF
FFFFFFFF
FFFFE000
0003E000
0003E000
0003E000
0003E000
0003E000
0003E000
0003E000
0003E000
0003E000
0003E000
0003E000
0003E000
0003E000
0003E000
ENDCHAR

STARTCHAR kor_A6D4
ENCODING 42708
SWIDTH 1024 0
DWIDTH 32 0
BBX 32 32 0 -2
BITMAP
00000000
00000000
00000000
00000000
00000000
00000000
00000000
00000000
00000000
00000000
00000000
00000000
00000000
0003FFFF
FFFFFFFF
FFFFFFFF
FFFFFFFF
0003FFFF
0003E000
0003E000
0003E000
0003E000
0003E000
0003E000
0003E000
0003E000
0003E000
0003E000
0003E000
0003E000
0003E000
0003E000
ENDCHAR

STARTCHAR kor_A6D5
ENCODING 42709
SWIDTH 1024 0
DWIDTH 32 0
BBX 32 32 0 -2
BITMAP
0001C000
0001C000
0001C000
0001C000
0001C000
0001C000
0001C000
0001C000
0001C000
0001C000
0001C000
0001C000
0001C000
FFFFC000
FFFFFFFF
FFFFFFFF
FFFFFFFF
FFFFC000
00000000
00000000
00000000
00000000
00000000
00000000
00000000
00000000
00000000
00000000
00000000
00000000
00000000
00000000
ENDCHAR

STARTCHAR kor_A6D6
ENCODING 42710
SWIDTH 1024 0
DWIDTH 32 0
BBX 32 32 0 -2
BITMAP
0001C000
0001C000
0001C000
0001C000
0001C000
0001C000
0001C000
0001C000
0001C000
0001C000
0001C000
0001C000
0001C000
0001FFFF
FFFFFFFF
FFFFFFFF
FFFFFFFF
0001FFFF
00000000
00000000
00000000
00000000
00000000
00000000
00000000
00000000
00000000
00000000
00000000
00000000
00000000
00000000
ENDCHAR

STARTCHAR kor_A6D7
ENCODING 42711
SWIDTH 1024 0
DWIDTH 32 0
BBX 32 32 0 -2
BITMAP
0003E000
0003E000
0003E000
0003E000
0003E000
0003E000
0003E000
0003E000
0003E000
0003E000
0003E000
0003E000
0003E000
FFFFE000
FFFFFFFF
FFFFFFFF
FFFFFFFF
FFFFE000
00000000
00000000
00000000
00000000
00000000
00000000
00000000
00000000
00000000
00000000
00000000
00000000
00000000
00000000
ENDCHAR

STARTCHAR kor_A6D8
ENCODING 42712
SWIDTH 1024 0
DWIDTH 32 0
BBX 32 32 0 -2
BITMAP
0003E000
0003E000
0003E000
0003E000
0003E000
0003E000
0003E000
0003E000
0003E000
0003E000
0003E000
0003E000
0003E000
0003FFFF
FFFFFFFF
FFFFFFFF
FFFFFFFF
0003FFFF
00000000
00000000
00000000
00000000
00000000
00000000
00000000
00000000
00000000
00000000
00000000
00000000
00000000
00000000
ENDCHAR

STARTCHAR kor_A6D9
ENCODING 42713
SWIDTH 1024 0
DWIDTH 32 0
BBX 32 32 0 -2
BITMAP
0001C000
0001C000
0001C000
0001C000
0001C000
0001C000
0001C000
0001C000
0001C000
0001C000
0001C000
0001C000
0001C000
FFFFC000
FFFFFFFF
FFFFFFFF
FFFFFFFF
FFFFC000
0001C000
0001C000
0001C000
0001C000
0001C000
0001C000
0001C000
0001C000
0001C000
0001C000
0001C000
0001C000
0001C000
0001C000
ENDCHAR

STARTCHAR kor_A6DA
ENCODING 42714
SWIDTH 1024 0
DWIDTH 32 0
BBX 32 32 0 -2
BITMAP
0001C000
0001C000
0001C000
0001C000
0001C000
0001C000
0001C000
0001C000
0001C000
0001C000
0001C000
0001C000
0001C000
0001FFFF
FFFFFFFF
FFFFFFFF
FFFFFFFF
0001FFFF
0001C000
0001C000
0001C000
0001C000
0001C000
0001C000
0001C000
0001C000
0001C000
0001C000
0001C000
0001C000
0001C000
0001C000
ENDCHAR

STARTCHAR kor_A6DB
ENCODING 42715
SWIDTH 1024 0
DWIDTH 32 0
BBX 32 32 0 -2
BITMAP
0003E000
0003E000
0003E000
0003E000
0003E000
0003E000
0003E000
0003E000
0003E000
0003E000
0003E000
0003E000
0003E000
0003E000
FFFFFFFF
FFFFFFFF
FFFFFFFF
0001C000
0001C000
0001C000
0001C000
0001C000
0001C000
0001C000
0001C000
0001C000
0001C000
0001C000
0001C000
0001C000
0001C000
0001C000
ENDCHAR

STARTCHAR kor_A6DC
ENCODING 42716
SWIDTH 1024 0
DWIDTH 32 0
BBX 32 32 0 -2
BITMAP
0001C000
0001C000
0001C000
0001C000
0001C000
0001C000
0001C000
0001C000
0001C000
0001C000
0001C000
0001C000
0001C000
0001C000
FFFFFFFF
FFFFFFFF
FFFFFFFF
0003E000
0003E000
0003E000
0003E000
0003E000
0003E000
0003E000
0003E000
0003E000
0003E000
0003E000
0003E000
0003E000
0003E000
0003E000
ENDCHAR

STARTCHAR kor_A6DD
ENCODING 42717
SWIDTH 1024 0
DWIDTH 32 0
BBX 32 32 0 -2
BITMAP
0003E000
0003E000
0003E000
0003E000
0003E000
0003E000
0003E000
0003E000
0003E000
0003E000
0003E000
0003E000
0003E000
FFFFE000
FFFFFFFF
FFFFFFFF
FFFFFFFF
FFFFE000
0001C000
0001C000
0001C000
0001C000
0001C000
0001C000
0001C000
0001C000
0001C000
0001C000
0001C000
0001C000
0001C000
0001C000
ENDCHAR

STARTCHAR kor_A6DE
ENCODING 42718
SWIDTH 1024 0
DWIDTH 32 0
BBX 32 32 0 -2
BITMAP
0003E000
0003E000
0003E000
0003E000
0003E000
0003E000
0003E000
0003E000
0003E000
0003E000
0003E000
0003E000
0003E000
0003FFFF
FFFFFFFF
FFFFFFFF
FFFFFFFF
0003FFFF
0001C000
0001C000
0001C000
0001C000
0001C000
0001C000
0001C000
0001C000
0001C000
0001C000
0001C000
0001C000
0001C000
0001C000
ENDCHAR

STARTCHAR kor_A6DF
ENCODING 42719
SWIDTH 1024 0
DWIDTH 32 0
BBX 32 32 0 -2
BITMAP
0001C000
0001C000
0001C000
0001C000
0001C000
0001C000
0001C000
0001C000
0001C000
0001C000
0001C000
0001C000
0001C000
FFFFE000
FFFFFFFF
FFFFFFFF
FFFFFFFF
FFFFE000
0003E000
0003E000
0003E000
0003E000
0003E000
0003E000
0003E000
0003E000
0003E000
0003E000
0003E000
0003E000
0003E000
0003E000
ENDCHAR

STARTCHAR kor_A6E0
ENCODING 42720
SWIDTH 1024 0
DWIDTH 32 0
BBX 32 32 0 -2
BITMAP
0001C000
0001C000
0001C000
0001C000
0001C000
0001C000
0001C000
0001C000
0001C000
0001C000
0001C000
0001C000
0001C000
0003FFFF
FFFFFFFF
FFFFFFFF
FFFFFFFF
0003FFFF
0003E000
0003E000
0003E000
0003E000
0003E000
0003E000
0003E000
0003E000
0003E000
0003E000
0003E000
0003E000
0003E000
0003E000
ENDCHAR

STARTCHAR kor_A6E1
ENCODING 42721
SWIDTH 1024 0
DWIDTH 32 0
BBX 32 32 0 -2
BITMAP
0003E000
0003E000
0003E000
0003E000
0003E000
0003E000
0003E000
0003E000
0003E000
0003E000
0003E000
0003E000
0003E000
FFFFFFFF
FFFFFFFF
FFFFFFFF
FFFFFFFF
FFFFFFFF
0001C000
0001C000
0001C000
0001C000
0001C000
0001C000
0001C000
0001C000
0001C000
0001C000
0001C000
0001C000
0001C000
0001C000
ENDCHAR

STARTCHAR kor_A6E2
ENCODING 42722
SWIDTH 1024 0
DWIDTH 32 0
BBX 32 32 0 -2
BITMAP
0001C000
0001C000
0001C000
0001C000
0001C000
0001C000
0001C000
0001C000
0001C000
0001C000
0001C000
0001C000
0001C000
FFFFFFFF
FFFFFFFF
FFFFFFFF
FFFFFFFF
FFFFFFFF
0003E000
0003E000
0003E000
0003E000
0003E000
0003E000
0003E000
0003E000
0003E000
0003E000
0003E000
0003E000
0003E000
0003E000
ENDCHAR

STARTCHAR kor_A6E3
ENCODING 42723
SWIDTH 1024 0
DWIDTH 32 0
BBX 32 32 0 -2
BITMAP
0003E000
0003E000
0003E000
0003E000
0003E000
0003E000
0003E000
0003E000
0003E000
0003E000
0003E000
0003E000
0003E000
FFFFE000
FFFFFFFF
FFFFFFFF
FFFFFFFF
FFFFE000
0003E000
0003E000
0003E000
0003E000
0003E000
0003E000
0003E000
0003E000
0003E000
0003E000
0003E000
0003E000
0003E000
0003E000
ENDCHAR

STARTCHAR kor_A6E4
ENCODING 42724
SWIDTH 1024 0
DWIDTH 32 0
BBX 32 32 0 -2
BITMAP
0003E000
0003E000
0003E000
0003E000
0003E000
0003E000
0003E000
0003E000
0003E000
0003E000
0003E000
0003E000
0003E000
0003FFFF
FFFFFFFF
FFFFFFFF
FFFFFFFF
0003FFFF
0003E000
0003E000
0003E000
0003E000
0003E000
0003E000
0003E000
0003E000
0003E000
0003E000
0003E000
0003E000
0003E000
0003E000
ENDCHAR

STARTCHAR kor_A7A1
ENCODING 42913
SWIDTH 1024 0
DWIDTH 32 0
BBX 32 32 0 -2
BITMAP
00000000
000001E0
000003F0
000007F8
000007B8
00000F38
00000F38
00001E38
00001E78
03871C70
03873C70
03873CF0
038738E0
038739E0
038739C0
078F3BC0
070E3B80
070E1F80
070E1F00
070E0E38
079E7F38
0FFFFFF8
0DF7F7F0
0EF3C1E0
0E000000
0E000000
0E000000
0E000000
0E000000
00000000
00000000
00000000
ENDCHAR

STARTCHAR kor_A7A2
ENCODING 42914
SWIDTH 1024 0
DWIDTH 32 0
BBX 32 32 0 -2
BITMAP
00000000
00000070
000000FC
000001FC
000001DE
000003CE
000003CE
0000038E
0000038E
0DC7878E
0FDFC71E
0FFFE71C
0F7DE71C
0E38E73C
0E38E73C
0E38E7B8
0E38E3F8
0E38E370
0E38E3F0
0E38E1E8
0E38E7FE
0E38FFBE
0E38FF9E
0E38FE00
00000000
00000000
00000000
00000000
00000000
00000000
00000000
00000000
ENDCHAR

STARTCHAR kor_A7A3
ENCODING 42915
SWIDTH 1024 0
DWIDTH 32 0
BBX 32 32 0 -2
BITMAP
00000000
000380E0
000381F0
000383F8
000383B8
000387BC
0003871C
0003871C
00038F1C
00F38E1C
03FB8E3C
07FF8E3C
079F8E38
0F078E78
0E078E70
0E038EF0
0E038EF0
0E0387E0
0E0787CE
0F07839E
0F8F9F9E
07FFFFFE
03FBFBFC
00FBF1F0
00000000
00000000
00000000
00000000
00000000
00000000
00000000
00000000
ENDCHAR

STARTCHAR kor_A7A4
ENCODING 42916
SWIDTH 1024 0
DWIDTH 32 0
BBX 32 32 0 -2
BITMAP
00000000
00007800
0000FC00
0001FE00
0003EE00
0003CE00
00078E00
00070E00
000F0E00
000F1E00
000E1C00
000E1C00
000E3C00
000E3800
000E7800
000E7000
000EF000
0007E000
0007E000
00038E00
001FCE00
007FFE00
007BFC00
0070F800
00000000
00000000
00000000
00000000
00000000
00000000
00000000
00000000
ENDCHAR

STARTCHAR kor_A7A5
ENCODING 42917
SWIDTH 1024 0
DWIDTH 32 0
BBX 32 32 0 -2
BITMAP
00000000
038001E0
038003F0
038007F8
03800738
03800738
03800F38
03800E38
03800E38
0383DE38
0387DC38
038F9C78
039F1C78
03BE1C70
03FC1CF0
03F81DF0
03F00DE0
03FC0FC0
03BE0780
039F0F1C
038FBF9C
0387FFFC
0383FBFC
0381F1F0
00000000
00000000
00000000
00000000
00000000
00000000
00000000
00000000
ENDCHAR

STARTCHAR kor_A7A6
ENCODING 42918
SWIDTH 1024 0
DWIDTH 32 0
BBX 32 32 0 -2
BITMAP
00000000
00000000
00000000
00000000
00000000
00000000
00000000
00000000
00000000
003C03C0
00FF0FF0
01FF9FF8
01E79E78
03C3BC38
0383B838
03803800
03803800
03803800
03803800
03C3BC38
03E7BE78
01FF9FF8
00FF0FF0
003C03E0
00000000
00000000
00000000
00000000
00000000
00000000
00000000
00000000
ENDCHAR

STARTCHAR kor_A7A7
ENCODING 42919
SWIDTH 1024 0
DWIDTH 32 0
BBX 32 32 0 -2
BITMAP
00000000
00000000
0000001E
0000001E
00000016
0000000E
0000001E
00000006
0000001E
0BB85DDE
0FFC7FE0
0FFE7FF0
0EEE7770
0EEE7770
0EEE7770
0EEE7770
0EEE7770
0EEE7770
0EEE7770
0EEE7770
0EEE7770
0EEE7770
0EEE7770
0EEE7770
00000000
00000000
00000000
00000000
00000000
00000000
00000000
00000000
ENDCHAR

STARTCHAR kor_A7A8
ENCODING 42920
SWIDTH 1024 0
DWIDTH 32 0
BBX 32 32 0 -2
BITMAP
00000000
00000000
0000003C
0000003C
0000002C
0000001C
0000003C
0000000C
0000003C
03E367BC
0FF3EFC0
1FFBFFE0
1E7BBDE0
3C3B9CE0
38039CE0
38039CE0
38039CE0
38039CE0
38039CE0
3C3B9CE0
1E7B9CE0
1FFB9CE0
0FF39CE0
03C39CE0
00000000
00000000
00000000
00000000
00000000
00000000
00000000
00000000
ENDCHAR

STARTCHAR kor_A7A9
ENCODING 42921
SWIDTH 1024 0
DWIDTH 32 0
BBX 32 32 0 -2
BITMAP
00000000
00000000
000000F0
000000F0
000000B0
00000070
000000F0
00000030
00DF7CF0
00FFFFF0
00FFFF00
00F3E780
00E1C380
00E1C380
00E1C380
00E1C380
00E1C380
00E1C380
00E1C380
00E1C380
00E1C380
00E1C380
00E1C380
00E1C380
00000000
00000000
00000000
00000000
00000000
00000000
00000000
00000000
ENDCHAR

STARTCHAR kor_A7AA
ENCODING 42922
SWIDTH 1024 0
DWIDTH 32 0
BBX 32 32 0 -2
BITMAP
00000000
0E000000
0E00001E
0E00001E
0E000016
0E00000E
0E00001E
0E000006
0E1E001E
0E3F779E
0E7BFFC0
0EFBFFE0
0FF3BDE0
0DE39CE0
0FC39CE0
0FE39CE0
0EF39CE0
0EF39CE0
0E7B9CE0
0E7B9CE0
0E3B9CE0
0E3F9CE0
0E1F9CE0
0E1F9CE0
00000000
00000000
00000000
00000000
00000000
00000000
00000000
00000000
ENDCHAR

STARTCHAR kor_A7AB
ENCODING 42923
SWIDTH 1024 0
DWIDTH 32 0
BBX 32 32 0 -2
BITMAP
00000000
00780000
01F80000
03F80000
03C00000
03800000
03800000
03800000
03800000
03800000
03800000
1FFB7BE0
1FFBFFF0
1FFBFFF8
0383DF78
03838E38
03838E38
03838E38
03838E38
03838E38
03838E38
03838E38
03838E38
03838E38
00000000
00000000
00000000
00000000
00000000
00000000
00000000
00000000
ENDCHAR

STARTCHAR kor_A7AC
ENCODING 42924
SWIDTH 1024 0
DWIDTH 32 0
BBX 32 32 0 -2
BITMAP
00000000
00000000
00000000
00000000
00000000
00000000
00000000
00000000
00000000
0DE0DEF8
0FF0FFFC
0FF8FFFE
0F78F7DE
0E38E38E
0E38E38E
0E38E38E
0E38E38E
0E38E38E
0E38E38E
0E38E38E
0E38E38E
0E38E38E
0E38E38E
0E38E38E
00000000
00000000
00000000
00000000
00000000
00000000
00000000
00000000
ENDCHAR

STARTCHAR kor_A7AD
ENCODING 42925
SWIDTH 1024 0
DWIDTH 32 0
BBX 32 32 0 -2
BITMAP
00000000
00000000
00000000
00000000
00000000
00000000
00000000
00000000
00000000
071CDDE0
071CFFF0
071CFFF8
071CEF78
071CE738
071CE738
0F3CE738
0E38E738
0E38E738
0E38E738
0E38E738
0E7CE738
1FFEE738
1FEEE738
1BC6E738
1C000000
1C000000
1C000000
1C000000
00000000
00000000
00000000
00000000
ENDCHAR

STARTCHAR kor_A7AE
ENCODING 42926
SWIDTH 1024 0
DWIDTH 32 0
BBX 32 32 0 -2
BITMAP
00000000
00000000
00000000
00000000
00000000
00000000
00000000
00000000
00000000
1BBC1BBC
1FFE1FFE
1FFF1FFF
1DEF1DEF
1CE71CE7
1CE71CE7
1CE71CE7
1CE71CE7
1CE71CE7
1CE71CE7
1CE71CE7
1CE71CE7
1CE71CE7
1CE71CE7
1CE71CE7
00000000
00000000
00000000
00000000
00000000
00000000
00000000
00000000
ENDCHAR

STARTCHAR kor_A7AF
ENCODING 42927
SWIDTH 1024 0
DWIDTH 32 0
BBX 32 32 0 -2
BITMAP
00000000
00000000
00000000
00000000
00000000
00000000
00000000
00000000
00000000
03F0DEF8
0FF8FFFC
1FFCFFFE
1E3CF7DE
3C1CE38E
3800E38E
3800E38E
3800E38E
3800E38E
3800E38E
3C1CE38E
1E3CE38E
1FFCE38E
0FF8E38E
03E0E38E
00000000
00000000
00000000
00000000
00000000
00000000
00000000
00000000
ENDCHAR

STARTCHAR kor_A7B0
ENCODING 42928
SWIDTH 1024 0
DWIDTH 32 0
BBX 32 32 0 -2
BITMAP
00000000
0E000000
0E000000
0E000000
0E000000
0E000000
0E000000
0E000000
0E0F0000
0E1FDEF8
0E3EFFFC
0E7CFFFE
0EF8F7DE
0FF0E38E
0DE0E38E
0FE0E38E
0FC0E38E
0FF0E38E
0EF8E38E
0E7CE38E
0E3EE38E
0E1EE38E
0E0FE38E
0E07E38E
00000000
00000000
00000000
00000000
00000000
00000000
00000000
00000000
ENDCHAR

STARTCHAR kor_A7B1
ENCODING 42929
SWIDTH 1024 0
DWIDTH 32 0
BBX 32 32 0 -2
BITMAP
00000000
0000001E
0000001E
00000016
0000000E
0000001E
0000001C
0000001B
0000001F
0DB86DC0
0FFC7FE0
0FFE7FF0
0EEE7770
0EEE7770
0EEE7770
0EEE7770
0EEE7770
0EEE7770
0EEE7770
0EEE7770
0EEE7770
0EEE7770
0EEE7770
0EEE7770
00000000
00000000
00000000
00000000
00000000
00000000
00000000
00000000
ENDCHAR

STARTCHAR kor_A7B2
ENCODING 42930
SWIDTH 1024 0
DWIDTH 32 0
BBX 32 32 0 -2
BITMAP
00000000
0000001E
0000001E
00000016
0000000E
0000001E
0000001C
0000001B
0000001F
03E37BE0
0FF3FFF0
1FFBFFF8
1E3BDF78
3C3B8E38
38038E38
38038E38
38038E38
38038E38
38038E38
383B8E38
3C7B8E38
1FFB8E38
1FF38E38
07E38E38
00000000
00000000
00000000
00000000
00000000
00000000
00000000
00000000
ENDCHAR

STARTCHAR kor_A7B3
ENCODING 42931
SWIDTH 1024 0
DWIDTH 32 0
BBX 32 32 0 -2
BITMAP
00000000
000000F0
000000F0
000000B0
00000070
000000F0
000000E0
000000D8
0379F8F8
03FFFC00
03FFFE00
03CF9E00
03870E00
03870E00
03870E00
03870E00
03870E00
03870E00
03870E00
03870E00
03870E00
03870E00
03870E00
03870E00
00000000
00000000
00000000
00000000
00000000
00000000
00000000
00000000
ENDCHAR

STARTCHAR kor_A7B4
ENCODING 42932
SWIDTH 1024 0
DWIDTH 32 0
BBX 32 32 0 -2
BITMAP
00000000
0E00001E
0E00001E
0E000016
0E00000E
0E00001E
0E00001C
0E00001B
0E00001F
0E0EDDE0
0E1EFFF0
0E3EFFF8
0E7CEF78
0EF8E738
0FF0E738
0DE0E738
0FC0E738
0FF0E738
0EF8E738
0E7CE738
0E3EE738
0E1EE738
0E0FE738
0E07E738
00000000
00000000
00000000
00000000
00000000
00000000
00000000
00000000
ENDCHAR

STARTCHAR kor_A7B5
ENCODING 42933
SWIDTH 1024 0
DWIDTH 32 0
BBX 32 32 0 -2
BITMAP
00000000
03800000
03800000
03800000
03800000
03800000
03800000
03800000
03800000
03FC1F00
037E3FC0
03FE7FE0
03EF71E0
03C770E0
038700E0
03871EE0
03873FE0
03877FE0
038771E0
038770E0
038779E0
03877FE0
03873FE0
03871EE0
00000000
00000000
00000000
00000000
00000000
00000000
00000000
00000000
ENDCHAR

STARTCHAR kor_A7B6
ENCODING 42934
SWIDTH 1024 0
DWIDTH 32 0
BBX 32 32 0 -2
BITMAP
00000000
00000000
00000000
00000000
00000000
00000000
00000000
00000000
00000000
01C70700
01C71FC0
01C71FE0
01C73DE0
03CF38E0
038E38E0
038E38E0
038E38E0
079E3DE0
071C3FE0
071C1FE0
071E06E0
0F7F80E0
0FF780E0
0DF780E0
0E0038E0
0E0038E0
0E003DE0
0E001FC0
0E001FC0
0E000780
00000000
00000000
ENDCHAR

STARTCHAR kor_A7B7
ENCODING 42935
SWIDTH 1024 0
DWIDTH 32 0
BBX 32 32 0 -2
BITMAP
00000000
00000000
00000000
00000000
00000000
00000000
00000000
00000000
00000000
0DDE03C0
0FFF0FF0
0FFF9FF8
0EF79E78
0E739C38
0E739C38
0E739C38
0E739C38
0E739E78
0E738FF8
0E738FF8
0E7383B8
0E738038
0E738038
0E739C38
00001C38
00001C38
00001E78
00000FF0
00000FF0
000003C0
00000000
00000000
ENDCHAR

STARTCHAR kor_A7B8
ENCODING 42936
SWIDTH 1024 0
DWIDTH 32 0
BBX 32 32 0 -2
BITMAP
00000000
03800000
03800000
03800000
03800000
03800000
03800000
03800000
03800000
0381E7E0
0383FFF0
0387DFF8
038FBC78
039F3838
03BE3838
03FC3838
03783C78
03FE1FF8
03DF1FF8
03CF87B8
0387C038
0383E038
0381E038
0380E038
00000038
00003838
00003878
00003CF0
00003FF0
00001FE0
00000780
00000000
ENDCHAR

STARTCHAR kor_A7B9
ENCODING 42937
SWIDTH 1024 0
DWIDTH 32 0
BBX 32 32 0 -2
BITMAP
00000000
03800000
03800000
03800000
03800000
03800700
03800700
03800700
03800700
0380FFF0
0381FFF0
0383FFF0
0387C700
038F8700
039F0700
03BE0700
03FC0700
037E0700
03FF0700
03EF8700
03C7C780
0383E7F0
0381F3F0
0380F1E0
00000000
00000000
00000000
00000000
00000000
00000000
00000000
00000000
ENDCHAR

STARTCHAR kor_A7BA
ENCODING 42938
SWIDTH 1024 0
DWIDTH 32 0
BBX 32 32 0 -2
BITMAP
00000000
00000000
00000000
00000038
00000038
00000038
00000038
00000038
00000038
03C07838
0FF1FE38
1FFBFF38
1E7BCF38
3C3B8738
38000738
3800FF38
3801FF38
3803FF38
3803C738
383B8738
3C7BC738
1FFBFF38
1FF1FF38
07C0F738
00000000
00000000
00000000
00000000
00000000
00000000
00000000
00000000
ENDCHAR

STARTCHAR kor_A7BB
ENCODING 42939
SWIDTH 1024 0
DWIDTH 32 0
BBX 32 32 0 -2
BITMAP
00000000
3800000E
3800000E
3800000E
3800000E
3800000E
3800000E
3800000E
3800000E
38700F8E
38F79FCE
39FFDFEE
3BEFFCEE
3FDCE0EE
37BC00EE
3F380FEE
3E381FEE
3FB83FEE
37B83CEE
3BFC38EE
39FE7CEE
38FFFFEE
387FDFEE
3807CFEE
00000000
00000000
00000000
00000000
00000000
00000000
00000000
00000000
ENDCHAR

STARTCHAR kor_A7BC
ENCODING 42940
SWIDTH 1024 0
DWIDTH 32 0
BBX 32 32 0 -2
BITMAP
00000000
000E3F80
000E3FE0
000E3FF0
000E38F0
000E3878
000E3838
000E3838
000E3878
01EE3878
03FE39F0
07FE3FF0
07BE3FC0
0F1E3FF0
0E0E38F0
0E0E3878
0E0E3838
0E0E3838
0E0E3838
0F0E3878
0F1E38F0
07FE3FF0
07FE3FE0
01EE3FC0
00000000
00000000
00000000
00000000
00000000
00000000
00000000
00000000
ENDCHAR

STARTCHAR kor_A7BD
ENCODING 42941
SWIDTH 1024 0
DWIDTH 32 0
BBX 32 32 0 -2
BITMAP
00000000
00000000
00000E00
00000E00
00000E00
00001E00
00001C00
00001C00
00001C00
0DB83CF8
0FFC39FE
0FFE3BFF
0EEE3BCF
0EEE3B87
0EEE7BC0
0EEE73F8
0EEE71FE
0EEE70FF
0EEE700F
0EEEF387
0EEEE3CF
0EEEE3FF
0EEEE1FE
0EEFE0FC
0001C000
0001C000
0001C000
0001C000
00000000
00000000
00000000
00000000
ENDCHAR

STARTCHAR kor_A7BE
ENCODING 42942
SWIDTH 1024 0
DWIDTH 32 0
BBX 32 32 0 -2
BITMAP
00000000
00001C1E
00001C1E
00001C16
00001C0E
00003C1E
0000381C
0000381B
0000381F
36E07BE0
3FF077F8
3FF87FFC
3BB86F3C
3BB8EE1C
3BB8EE00
3BB8EFE0
3BB8E7F8
3BB9E3FC
3BB9C07C
3BB9CE1C
3BB9CF3C
3BBBCFFC
3BBB87F8
3BBB83F0
00038000
00078000
00070000
00070000
00070000
00000000
00000000
00000000
ENDCHAR

STARTCHAR kor_A7BF
ENCODING 42943
SWIDTH 1024 0
DWIDTH 32 0
BBX 32 32 0 -2
BITMAP
00000000
00000000
00000000
00000000
00000000
00000000
00000000
00000000
00000000
03BC07E0
03FF1FF0
037F3FF8
03E7BC78
03C3B838
0383BC00
0383BFC0
03839FF0
038387F8
03C38078
03C3B838
03E7BC38
03FF3FF8
037F1FF0
03BC07E0
03800000
03800000
03800000
03800000
03800000
03800000
00000000
00000000
ENDCHAR

STARTCHAR kor_A7C0
ENCODING 42944
SWIDTH 1024 0
DWIDTH 32 0
BBX 32 32 0 -2
BITMAP
00000000
00000000
00000000
00000000
00000000
00000000
00000000
00000000
00000000
03781F80
03FC3FC0
03FE7FE0
03DE79E0
038E70E0
038E7000
038E7F00
038E3FC0
038E1FE0
038E03E0
038E70E0
038E79E0
038E7FE0
038E3FC0
038E0F00
00000000
00000000
00000000
00000000
00000000
00000000
00000000
00000000
ENDCHAR

STARTCHAR kor_A7C1
ENCODING 42945
SWIDTH 1024 0
DWIDTH 32 0
BBX 32 32 0 -2
BITMAP
00000000
00000000
00000000
00000000
00000000
00000000
00000000
00000000
00000000
01C38FC0
01C39FF0
01C3BFF8
01C3BC78
03C7B838
03C73C00
03873FC0
03871FF0
038F07F8
078F0078
078E3838
070E3C78
079F3FF8
0FFFDFF0
0DFBC7C0
0E79C000
0E000000
0E000000
0E000000
0E000000
0E000000
00000000
00000000
ENDCHAR

STARTCHAR kor_A7C2
ENCODING 42946
SWIDTH 1024 0
DWIDTH 32 0
BBX 32 32 0 -2
BITMAP
00000000
00000000
00000000
00000000
00000000
00000000
00000000
00000000
00000000
0DDE0FE0
0FFF1FF0
0FFFBFF8
0EF7BC78
0E73B838
0E73BC00
0E739FC0
0E739FF0
0E7387F8
0E738078
0E73B838
0E73BC78
0E73BFF8
0E739FF0
0E738FE0
00000000
00000000
00000000
00000000
00000000
00000000
00000000
00000000
ENDCHAR

STARTCHAR kor_A7C3
ENCODING 42947
SWIDTH 1024 0
DWIDTH 32 0
BBX 32 32 0 -2
BITMAP
00000000
0001C038
0001C038
0001C038
0000E070
0000E070
0000E070
0000E070
000060E0
0EF070E0
0FF870E0
0FFC70E0
0F3C70E0
0E1E39C0
0E1E39C0
0E0E39C0
0E0E39C0
0E0E3B80
0E0E1B80
0E1E1F80
0FBC1F80
0FFC0F00
0FF80F00
0DE00F00
0E000000
0E000000
0E000000
0E000000
0E000000
0E000000
00000000
00000000
ENDCHAR

STARTCHAR kor_A7C4
ENCODING 42948
SWIDTH 1024 0
DWIDTH 32 0
BBX 32 32 0 -2
BITMAP
00000000
000781E0
000781E0
000781E0
000381C0
000381C0
000381C0
0003C3C0
0001C380
0DE1C380
0FF1C380
0FF9C380
0F79E780
0E38E700
0E38E700
0E38E700
0E38E700
0E386F00
0E386E00
0E387E00
0E387E00
0E383C00
0E383C00
0E383C00
00000000
00000000
00000000
00000000
00000000
00000000
00000000
00000000
ENDCHAR

STARTCHAR kor_A7C5
ENCODING 42949
SWIDTH 1024 0
DWIDTH 32 0
BBX 32 32 0 -2
BITMAP
00000000
0000E070
0000E070
0000E070
0000E070
0000E070
0000E070
0000F0F0
000070E0
038E70E0
038E70E0
038E70E0
038E79E0
079E39C0
071C39C0
071C39C0
071C39C0
0F3C3B80
0E381B80
0E381F80
0E381F80
1F780F00
1FFE0F00
1BDE0F00
1DCE0000
1C000000
1C000000
1C000000
1C000000
1C000000
00000000
00000000
ENDCHAR

ENDFONT
